{
.appVersion = "1163";
DisplayStrings = (
"Hepta Slab\012ABCDEFGHIJKLMNOPQRSTUVWXYZ\012/a.sc/b.sc/c.sc/d.sc/e.sc/f.sc/g.sc/h.sc/i.sc/j.sc/k.sc/l.sc/m.sc/n.sc/o.sc/p.sc/q.sc/r.sc/s.sc/t.sc/u.sc/v.sc/w.sc/x.sc/y.sc/z.sc \012abcdefghijklmnopqrstuvwxyz\0120123456789 &",

glyphs = (
{
glyphname = A;
layers = (
{
anchors = (
{
name = bottom;
position = "{425, 0}";
},
{
name = ogonek;
position = "{831, 0}";
},
{
name = top;
position = "{425, 732}";
}
);
layerId = "67AEAADB-8447-4819-9D92-8BB76BD22042";
leftMetricsKey = "=H-8";
paths = (
{
closed = 1;
nodes = (
"218 278 LINE",
"218 273 LINE",
"632 273 LINE",
"632 278 LINE"
);
},
{
closed = 1;
nodes = (
"429 752 LINE",
"421 752 LINE",
"98 5 LINE",
"19 5 LINE",
"19 0 LINE",
"315 0 LINE",
"315 5 LINE",
"104 5 LINE",
"427 752 LINE",
"421 746 LINE",
"430 746 LINE",
"423 752 LINE",
"746 5 LINE",
"535 5 LINE",
"535 0 LINE",
"831 0 LINE",
"831 5 LINE",
"752 5 LINE"
);
}
);
width = 850;
},
{
anchors = (
{
name = bottom;
position = "{425, 0}";
},
{
name = ogonek;
position = "{856, 0}";
},
{
name = top;
position = "{425, 772}";
}
);
layerId = "BE4E587A-F76C-447B-AA28-A45E40876AAF";
leftMetricsKey = "=H-8";
paths = (
{
closed = 1;
nodes = (
"194 440 LINE",
"194 263 LINE",
"650 263 LINE",
"650 440 LINE"
);
},
{
closed = 1;
nodes = (
"606 772 LINE",
"268 772 LINE",
"65 207 LINE",
"13 207 LINE",
"13 0 LINE",
"385 0 LINE",
"385 207 LINE",
"310 207 LINE",
"461 720 LINE",
"376 560 LINE",
"474 560 LINE",
"372 720 LINE",
"523 207 LINE",
"460 207 LINE",
"460 0 LINE",
"856 0 LINE",
"856 207 LINE",
"809 207 LINE"
);
}
);
width = 869;
},
{
anchors = (
{
name = bottom;
position = "{402, 0}";
},
{
name = ogonek;
position = "{792, 0}";
},
{
name = top;
position = "{402, 732}";
}
);
layerId = "2C5E45D0-97E8-45AA-A5B2-946753DF54E1";
leftMetricsKey = "=H-16";
paths = (
{
closed = 1;
nodes = (
"202 320 LINE",
"202 231 LINE",
"602 231 LINE",
"602 320 LINE"
);
},
{
closed = 1;
nodes = (
"458 752 LINE",
"343 752 LINE",
"78 93 LINE",
"12 93 LINE",
"12 0 LINE",
"327 0 LINE",
"327 93 LINE",
"180 93 LINE",
"411 670 LINE",
"349 628 LINE",
"447 628 LINE",
"385 670 LINE",
"616 93 LINE",
"469 93 LINE",
"469 0 LINE",
"789 0 LINE",
"789 93 LINE",
"723 93 LINE"
);
}
);
width = 801;
},
{
anchors = (
{
name = bottom;
position = "{429, 0}";
},
{
name = ogonek;
position = "{839, 0}";
},
{
name = top;
position = "{429, 732}";
}
);
layerId = "A59F1195-5331-40FD-8BD6-3900E1073F61";
leftMetricsKey = "=H-9";
paths = (
{
closed = 1;
nodes = (
"223 287 LINE",
"223 264 LINE",
"635 264 LINE",
"635 287 LINE"
);
},
{
closed = 1;
nodes = (
"443 752 LINE",
"414 752 LINE",
"103 23 LINE",
"18 23 LINE",
"18 0 LINE",
"338 0 LINE",
"338 23 LINE",
"128 23 LINE",
"432 735 LINE",
"415 722 LINE",
"442 722 LINE",
"424 735 LINE",
"728 23 LINE",
"518 23 LINE",
"518 0 LINE",
"839 0 LINE",
"839 23 LINE",
"754 23 LINE"
);
}
);
width = 857;
},
{
anchors = (
{
name = bottom;
position = "{400, 0}";
},
{
name = ogonek;
position = "{790, 0}";
},
{
name = top;
position = "{400, 732}";
}
);
associatedMasterId = "2C5E45D0-97E8-45AA-A5B2-946753DF54E1";
layerId = "46ECEFB2-7DC8-4C77-86F9-87A2222E9504";
leftMetricsKey = "=H-16";
name = "May 29 18, 15:22";
paths = (
{
closed = 1;
nodes = (
"200 320 LINE",
"200 231 LINE",
"600 231 LINE",
"600 320 LINE"
);
},
{
closed = 1;
nodes = (
"459 752 LINE",
"341 752 LINE",
"76 93 LINE",
"10 93 LINE",
"10 0 LINE",
"325 0 LINE",
"325 93 LINE",
"178 93 LINE",
"409 670 LINE",
"347 628 LINE",
"445 628 LINE",
"383 670 LINE",
"614 93 LINE",
"467 93 LINE",
"467 0 LINE",
"790 0 LINE",
"790 93 LINE",
"724 93 LINE"
);
}
);
width = 800;
}
);
leftKerningGroup = A;
rightKerningGroup = A;
rightMetricsKey = "=|";
unicode = 0041;
},
{
glyphname = AE;
layers = (
{
anchors = (
{
name = bottom;
position = "{680, 0}";
},
{
name = top;
position = "{680, 732}";
}
);
layerId = "67AEAADB-8447-4819-9D92-8BB76BD22042";
leftMetricsKey = "=A-16";
paths = (
{
closed = 1;
nodes = (
"1232 0 LINE",
"1232 187 LINE",
"1227 187 LINE",
"1227 5 LINE",
"682 5 LINE",
"682 747 LINE",
"1218 747 LINE",
"1218 565 LINE",
"1223 565 LINE",
"1223 752 LINE",
"300 752 LINE",
"300 747 LINE",
"677 747 LINE",
"677 5 LINE",
"528 5 LINE",
"528 0 LINE"
);
},
{
closed = 1;
nodes = (
"325 0 LINE",
"325 5 LINE",
"118 5 LINE",
"568 752 LINE",
"562 752 LINE",
"112 5 LINE",
"3 5 LINE",
"3 0 LINE"
);
},
{
closed = 1;
nodes = (
"680 273 LINE",
"680 278 LINE",
"278 278 LINE",
"278 273 LINE"
);
},
{
closed = 1;
nodes = (
"1033 377 LINE",
"1033 382 LINE",
"679 382 LINE",
"679 377 LINE"
);
}
);
width = 1291;
},
{
anchors = (
{
name = bottom;
position = "{604, 0}";
},
{
name = top;
position = "{604, 732}";
}
);
layerId = "2C5E45D0-97E8-45AA-A5B2-946753DF54E1";
leftMetricsKey = "=A-11";
paths = (
{
closed = 1;
nodes = (
"1151 0 LINE",
"1151 227 LINE",
"1049 227 LINE",
"1049 93 LINE",
"653 93 LINE",
"653 659 LINE",
"1040 659 LINE",
"1040 525 LINE",
"1142 525 LINE",
"1142 752 LINE",
"203 752 LINE",
"203 659 LINE",
"551 659 LINE",
"551 93 LINE",
"441 93 LINE",
"441 0 LINE"
);
},
{
closed = 1;
nodes = (
"307 0 LINE",
"307 93 LINE",
"179 93 LINE",
"480 722 LINE",
"368 722 LINE",
"67 93 LINE",
"1 93 LINE",
"1 0 LINE"
);
},
{
closed = 1;
nodes = (
"615 230 LINE",
"615 320 LINE",
"205 320 LINE",
"205 230 LINE"
);
},
{
closed = 1;
nodes = (
"951 334 LINE",
"951 424 LINE",
"609 424 LINE",
"609 334 LINE"
);
}
);
width = 1207;
},
{
anchors = (
{
name = bottom;
position = "{721, 0}";
},
{
name = top;
position = "{721, 772}";
}
);
layerId = "BE4E587A-F76C-447B-AA28-A45E40876AAF";
leftMetricsKey = "=A-7";
paths = (
{
closed = 1;
nodes = (
"1325 0 LINE",
"1325 327 LINE",
"1067 327 LINE",
"1067 207 LINE",
"847 207 LINE",
"847 565 LINE",
"1058 565 LINE",
"1058 445 LINE",
"1316 445 LINE",
"1316 772 LINE",
"163 772 LINE",
"163 565 LINE",
"589 565 LINE",
"589 207 LINE",
"532 207 LINE",
"532 0 LINE"
);
},
{
closed = 1;
nodes = (
"422 0 LINE",
"422 207 LINE",
"359 207 LINE",
"656 772 LINE",
"422 772 LINE",
"73 207 LINE",
"6 207 LINE",
"6 0 LINE"
);
},
{
closed = 1;
nodes = (
"702 252 LINE",
"702 429 LINE",
"246 429 LINE",
"246 252 LINE"
);
},
{
closed = 1;
nodes = (
"1000 300 LINE",
"1000 477 LINE",
"716 477 LINE",
"716 300 LINE"
);
}
);
width = 1358;
},
{
anchors = (
{
name = top;
position = "{629, 732}";
}
);
associatedMasterId = "2C5E45D0-97E8-45AA-A5B2-946753DF54E1";
layerId = "77E4ACB9-B57D-420A-BA58-EB5078A5F5A8";
leftMetricsKey = "=A-11";
name = "Mar 14 18, 13:56";
paths = (
{
closed = 1;
nodes = (
"1113 0 LINE",
"1113 227 LINE",
"1011 227 LINE",
"1011 93 LINE",
"762 93 LINE",
"569 659 LINE",
"1002 659 LINE",
"1002 525 LINE",
"1104 525 LINE",
"1104 752 LINE",
"202 752 LINE",
"202 659 LINE",
"467 659 LINE",
"660 93 LINE",
"530 93 LINE",
"530 0 LINE"
);
},
{
closed = 1;
nodes = (
"349 0 LINE",
"349 93 LINE",
"222 93 LINE",
"471 722 LINE",
"354 722 LINE",
"116 93 LINE",
"50 93 LINE",
"50 0 LINE"
);
},
{
closed = 1;
nodes = (
"614 242 LINE",
"614 332 LINE",
"224 332 LINE",
"224 242 LINE"
);
},
{
closed = 1;
nodes = (
"913 339 LINE",
"913 429 LINE",
"608 429 LINE",
"608 339 LINE"
);
}
);
width = 1205;
},
{
anchors = (
{
name = bottom;
position = "{665, 0}";
},
{
name = top;
position = "{665, 732}";
}
);
layerId = "A59F1195-5331-40FD-8BD6-3900E1073F61";
leftMetricsKey = "=A-15";
paths = (
{
closed = 1;
nodes = (
"1216 0 LINE",
"1216 195 LINE",
"1191 195 LINE",
"1191 23 LINE",
"677 23 LINE",
"677 729 LINE",
"1182 729 LINE",
"1182 557 LINE",
"1207 557 LINE",
"1207 752 LINE",
"281 752 LINE",
"281 729 LINE",
"652 729 LINE",
"652 23 LINE",
"511 23 LINE",
"511 0 LINE"
);
},
{
closed = 1;
nodes = (
"322 0 LINE",
"322 23 LINE",
"131 23 LINE",
"551 746 LINE",
"523 746 LINE",
"104 23 LINE",
"3 23 LINE",
"3 0 LINE"
);
},
{
closed = 1;
nodes = (
"667 264 LINE",
"667 287 LINE",
"264 287 LINE",
"264 264 LINE"
);
},
{
closed = 1;
nodes = (
"1017 368 LINE",
"1017 391 LINE",
"665 391 LINE",
"665 368 LINE"
);
}
);
width = 1274;
}
);
leftKerningGroup = A;
leftMetricsKey = "A-16";
rightKerningGroup = E;
rightMetricsKey = E;
unicode = 00C6;
},
{
glyphname = B;
layers = (
{
anchors = (
{
name = bottom;
position = "{383, 0}";
},
{
name = top;
position = "{383, 732}";
}
);
layerId = "67AEAADB-8447-4819-9D92-8BB76BD22042";
rightMetricsKey = "=O+9";
paths = (
{
closed = 1;
nodes = (
"394 747 LINE SMOOTH",
"549 747 OFFCURVE",
"643 691 OFFCURVE",
"643 565 CURVE SMOOTH",
"643 446 OFFCURVE",
"559 388 OFFCURVE",
"403 388 CURVE SMOOTH",
"179 388 LINE",
"179 385 LINE",
"401 385 LINE SMOOTH",
"562 385 OFFCURVE",
"648 442 OFFCURVE",
"648 565 CURVE SMOOTH",
"648 694 OFFCURVE",
"552 752 OFFCURVE",
"394 752 CURVE SMOOTH",
"281 752 LINE",
"279 747 LINE"
);
},
{
closed = 1;
nodes = (
"291 0 LINE",
"408 0 LINE SMOOTH",
"575 0 OFFCURVE",
"676 67 OFFCURVE",
"676 195 CURVE SMOOTH",
"676 348 OFFCURVE",
"535 386 OFFCURVE",
"402 386 CURVE SMOOTH",
"179 386 LINE",
"179 383 LINE",
"402 383 LINE SMOOTH",
"532 383 OFFCURVE",
"671 344 OFFCURVE",
"671 195 CURVE SMOOTH",
"671 70 OFFCURVE",
"572 5 OFFCURVE",
"408 5 CURVE SMOOTH",
"291 5 LINE"
);
},
{
closed = 1;
nodes = (
"176 747 LINE",
"176 5 LINE",
"27 5 LINE",
"27 0 LINE",
"330 0 LINE",
"330 5 LINE",
"181 5 LINE",
"181 747 LINE",
"330 747 LINE",
"330 752 LINE",
"27 752 LINE",
"27 747 LINE"
);
},
{
closed = 1;
nodes = (
"386 384 LINE",
"434 384 LINE",
"434 387 LINE",
"386 387 LINE"
);
}
);
width = 737;
},
{
anchors = (
{
name = bottom;
position = "{404, 0}";
},
{
name = top;
position = "{404, 772}";
}
);
layerId = "BE4E587A-F76C-447B-AA28-A45E40876AAF";
rightMetricsKey = "=O-4";
paths = (
{
closed = 1;
nodes = (
"454 565 LINE SMOOTH",
"496 565 OFFCURVE",
"517 549 OFFCURVE",
"517 521 CURVE SMOOTH",
"517 493 OFFCURVE",
"496 478 OFFCURVE",
"454 478 CURVE SMOOTH",
"251 478 LINE",
"251 386 LINE",
"459 386 LINE SMOOTH",
"666 386 OFFCURVE",
"776 445 OFFCURVE",
"776 574 CURVE SMOOTH",
"776 705 OFFCURVE",
"664 772 OFFCURVE",
"480 772 CURVE SMOOTH",
"378 772 LINE",
"378 565 LINE"
);
},
{
closed = 1;
nodes = (
"368 0 LINE",
"513 0 LINE SMOOTH",
"694 0 OFFCURVE",
"804 75 OFFCURVE",
"804 211 CURVE SMOOTH",
"804 354 OFFCURVE",
"686 409 OFFCURVE",
"474 409 CURVE SMOOTH",
"251 409 LINE",
"251 301 LINE",
"474 301 LINE SMOOTH",
"521 301 OFFCURVE",
"545 284 OFFCURVE",
"545 254 CURVE SMOOTH",
"545 225 OFFCURVE",
"518 207 OFFCURVE",
"473 207 CURVE SMOOTH",
"368 207 LINE"
);
},
{
closed = 1;
nodes = (
"78 565 LINE",
"78 207 LINE",
"21 207 LINE",
"21 0 LINE",
"406 0 LINE",
"406 207 LINE",
"336 207 LINE",
"336 565 LINE",
"406 565 LINE",
"406 772 LINE",
"21 772 LINE",
"21 565 LINE"
);
},
{
closed = 1;
nodes = (
"574 371 LINE",
"622 371 LINE",
"622 425 LINE",
"574 425 LINE"
);
}
);
width = 811;
},
{
anchors = (
{
name = bottom;
position = "{350, 0}";
},
{
name = top;
position = "{350, 732}";
}
);
layerId = "2C5E45D0-97E8-45AA-A5B2-946753DF54E1";
rightMetricsKey = "=O+6";
paths = (
{
closed = 1;
nodes = (
"403 659 LINE SMOOTH",
"489 659 OFFCURVE",
"547 622 OFFCURVE",
"547 547 CURVE SMOOTH",
"547 483 OFFCURVE",
"510 424 OFFCURVE",
"410 424 CURVE SMOOTH",
"211 424 LINE",
"211 375 LINE",
"408 375 LINE SMOOTH",
"570 375 OFFCURVE",
"656 431 OFFCURVE",
"656 558 CURVE SMOOTH",
"656 685 OFFCURVE",
"568 752 OFFCURVE",
"423 752 CURVE SMOOTH",
"328 752 LINE",
"328 659 LINE"
);
},
{
closed = 1;
nodes = (
"318 0 LINE",
"456 0 LINE SMOOTH",
"598 0 OFFCURVE",
"684 76 OFFCURVE",
"684 207 CURVE SMOOTH",
"684 347 OFFCURVE",
"586 398 OFFCURVE",
"409 398 CURVE SMOOTH",
"211 398 LINE",
"211 334 LINE",
"409 334 LINE SMOOTH",
"529 334 OFFCURVE",
"575 282 OFFCURVE",
"575 215 CURVE SMOOTH",
"575 135 OFFCURVE",
"511 93 OFFCURVE",
"415 93 CURVE SMOOTH",
"318 93 LINE"
);
},
{
closed = 1;
nodes = (
"138 659 LINE",
"138 93 LINE",
"28 93 LINE",
"28 0 LINE",
"350 0 LINE",
"350 93 LINE",
"240 93 LINE",
"240 659 LINE",
"350 659 LINE",
"350 752 LINE",
"28 752 LINE",
"28 659 LINE"
);
},
{
closed = 1;
nodes = (
"485 376 LINE",
"533 376 LINE",
"533 401 LINE",
"485 401 LINE"
);
}
);
width = 736;
},
{
associatedMasterId = "67AEAADB-8447-4819-9D92-8BB76BD22042";
layerId = "11D755FA-889B-4325-AD99-A151548A5F9E";
name = "{20off}";
paths = (
{
closed = 1;
nodes = (
"394 733 LINE SMOOTH",
"538 733 OFFCURVE",
"626 680 OFFCURVE",
"626 562 CURVE SMOOTH",
"626 452 OFFCURVE",
"549 394 OFFCURVE",
"402 394 CURVE SMOOTH",
"177 394 LINE",
"177 381 LINE",
"400 381 LINE SMOOTH",
"562 381 OFFCURVE",
"648 438 OFFCURVE",
"648 562 CURVE SMOOTH",
"648 692 OFFCURVE",
"553 752 OFFCURVE",
"397 752 CURVE SMOOTH",
"287 752 LINE",
"285 733 LINE"
);
},
{
closed = 1;
nodes = (
"294 0 LINE",
"414 0 LINE SMOOTH",
"577 0 OFFCURVE",
"676 68 OFFCURVE",
"676 198 CURVE SMOOTH",
"676 350 OFFCURVE",
"542 390 OFFCURVE",
"401 390 CURVE SMOOTH",
"177 390 LINE",
"177 376 LINE",
"401 376 LINE SMOOTH",
"530 376 OFFCURVE",
"654 335 OFFCURVE",
"654 198 CURVE SMOOTH",
"654 80 OFFCURVE",
"561 19 OFFCURVE",
"407 19 CURVE SMOOTH",
"294 19 LINE"
);
},
{
closed = 1;
nodes = (
"163 733 LINE",
"163 19 LINE",
"20 19 LINE",
"20 0 LINE",
"327 0 LINE",
"327 19 LINE",
"184 19 LINE",
"184 733 LINE",
"327 733 LINE",
"327 752 LINE",
"20 752 LINE",
"20 733 LINE"
);
}
);
width = 749;
},
{
anchors = (
{
name = bottom;
position = "{376, 0}";
},
{
name = top;
position = "{376, 732}";
}
);
layerId = "A59F1195-5331-40FD-8BD6-3900E1073F61";
rightMetricsKey = "=O+8";
paths = (
{
closed = 1;
nodes = (
"396 729 LINE SMOOTH",
"537 729 OFFCURVE",
"623 677 OFFCURVE",
"623 561 CURVE SMOOTH",
"623 454 OFFCURVE",
"549 395 OFFCURVE",
"404 395 CURVE SMOOTH",
"186 395 LINE",
"186 383 LINE",
"402 383 LINE SMOOTH",
"564 383 OFFCURVE",
"650 440 OFFCURVE",
"650 564 CURVE SMOOTH",
"650 692 OFFCURVE",
"555 752 OFFCURVE",
"400 752 CURVE SMOOTH",
"291 752 LINE",
"289 729 LINE"
);
},
{
closed = 1;
nodes = (
"297 0 LINE",
"418 0 LINE SMOOTH",
"580 0 OFFCURVE",
"678 69 OFFCURVE",
"678 197 CURVE SMOOTH",
"678 348 OFFCURVE",
"545 388 OFFCURVE",
"403 388 CURVE SMOOTH",
"186 388 LINE",
"186 373 LINE",
"403 373 LINE SMOOTH",
"531 373 OFFCURVE",
"651 331 OFFCURVE",
"651 199 CURVE SMOOTH",
"651 83 OFFCURVE",
"560 23 OFFCURVE",
"409 23 CURVE SMOOTH",
"297 23 LINE"
);
},
{
closed = 1;
nodes = (
"168 729 LINE",
"168 23 LINE",
"27 23 LINE",
"27 0 LINE",
"334 0 LINE",
"334 23 LINE",
"193 23 LINE",
"193 729 LINE",
"334 729 LINE",
"334 752 LINE",
"27 752 LINE",
"27 729 LINE"
);
},
{
closed = 1;
nodes = (
"422 382 LINE",
"470 382 LINE",
"470 390 LINE",
"422 390 LINE"
);
}
);
width = 737;
}
);
leftKerningGroup = H;
leftMetricsKey = H;
rightKerningGroup = B;
unicode = 0042;
},
{
color = 1;
glyphname = C;
layers = (
{
anchors = (
{
name = bottom;
position = "{424, 0}";
},
{
name = top;
position = "{424, 732}";
}
);
layerId = "67AEAADB-8447-4819-9D92-8BB76BD22042";
rightMetricsKey = "=O-12";
paths = (
{
closed = 1;
nodes = (
"608 -7 OFFCURVE",
"747 114 OFFCURVE",
"783 297 CURVE",
"778 298 LINE",
"743 117 OFFCURVE",
"605 -2 OFFCURVE",
"422 -2 CURVE SMOOTH",
"211 -2 OFFCURVE",
"57 154 OFFCURVE",
"57 378 CURVE SMOOTH",
"57 599 OFFCURVE",
"200 754 OFFCURVE",
"425 754 CURVE SMOOTH",
"608 754 OFFCURVE",
"737 654 OFFCURVE",
"772 457 CURVE",
"776 480 LINE",
"771 480 LINE",
"734 657 OFFCURVE",
"611 759 OFFCURVE",
"425 759 CURVE SMOOTH",
"197 759 OFFCURVE",
"52 602 OFFCURVE",
"52 378 CURVE SMOOTH",
"52 151 OFFCURVE",
"208 -7 OFFCURVE",
"422 -7 CURVE SMOOTH"
);
},
{
closed = 1;
nodes = (
"777 457 LINE",
"777 752 LINE",
"772 752 LINE",
"772 457 LINE"
);
}
);
width = 823;
},
{
anchors = (
{
name = bottom;
position = "{426, 0}";
},
{
name = top;
position = "{426, 732}";
}
);
layerId = "2C5E45D0-97E8-45AA-A5B2-946753DF54E1";
rightMetricsKey = "=O-5";
paths = (
{
closed = 1;
nodes = (
"616 -12 OFFCURVE",
"756 102 OFFCURVE",
"793 277 CURVE",
"688 299 LINE",
"661 171 OFFCURVE",
"561 88 OFFCURVE",
"426 88 CURVE SMOOTH",
"266 88 OFFCURVE",
"155 207 OFFCURVE",
"155 378 CURVE SMOOTH",
"155 547 OFFCURVE",
"266 663 OFFCURVE",
"426 663 CURVE SMOOTH",
"562 663 OFFCURVE",
"663 582 OFFCURVE",
"692 457 CURVE",
"719 546 LINE",
"688 546 LINE",
"666 684 OFFCURVE",
"577 763 OFFCURVE",
"423 763 CURVE SMOOTH",
"203 763 OFFCURVE",
"46 604 OFFCURVE",
"46 378 CURVE SMOOTH",
"46 151 OFFCURVE",
"204 -12 OFFCURVE",
"426 -12 CURVE SMOOTH"
);
},
{
closed = 1;
nodes = (
"794 457 LINE",
"794 752 LINE",
"692 752 LINE",
"692 457 LINE"
);
}
);
width = 835;
},
{
associatedMasterId = "2C5E45D0-97E8-45AA-A5B2-946753DF54E1";
layerId = "ABEBCFEB-F4FD-4F73-B8D5-68177E2D0DDB";
rightMetricsKey = "=O+2";
name = "Jan 3 18, 14:47";
paths = (
{
closed = 1;
nodes = (
"788 457 LINE",
"788 752 LINE",
"686 752 LINE",
"686 457 LINE"
);
},
{
closed = 1;
nodes = (
"686 4 LINE",
"788 4 LINE",
"788 285 LINE",
"686 285 LINE"
);
},
{
closed = 1;
nodes = (
"262 93 OFFCURVE",
"150 209 OFFCURVE",
"150 378 CURVE SMOOTH",
"150 547 OFFCURVE",
"261 663 OFFCURVE",
"421 663 CURVE SMOOTH",
"556 663 OFFCURVE",
"657 582 OFFCURVE",
"686 457 CURVE",
"713 546 LINE",
"682 546 LINE",
"660 684 OFFCURVE",
"571 763 OFFCURVE",
"418 763 CURVE SMOOTH",
"198 763 OFFCURVE",
"41 604 OFFCURVE",
"41 378 CURVE SMOOTH",
"41 152 OFFCURVE",
"199 -7 OFFCURVE",
"422 -7 CURVE SMOOTH",
"572 -7 OFFCURVE",
"660 67 OFFCURVE",
"682 196 CURVE",
"713 196 LINE",
"686 285 LINE",
"657 168 OFFCURVE",
"557 93 OFFCURVE",
"425 93 CURVE SMOOTH"
);
}
);
width = 831;
},
{
anchors = (
{
name = bottom;
position = "{421, 0}";
},
{
name = top;
position = "{426, 772}";
}
);
layerId = "BE4E587A-F76C-447B-AA28-A45E40876AAF";
rightMetricsKey = "=O-2";
paths = (
{
closed = 1;
nodes = (
"649 -14 OFFCURVE",
"810 123 OFFCURVE",
"837 327 CURVE",
"573 364 LINE",
"563 283 OFFCURVE",
"505 229 OFFCURVE",
"426 229 CURVE SMOOTH",
"339 229 OFFCURVE",
"278 294 OFFCURVE",
"278 388 CURVE SMOOTH",
"278 480 OFFCURVE",
"339 543 OFFCURVE",
"430 543 CURVE SMOOTH",
"497 543 OFFCURVE",
"552 508 OFFCURVE",
"573 452 CURVE",
"613 549 LINE",
"565 549 LINE",
"555 709 OFFCURVE",
"487 786 OFFCURVE",
"361 786 CURVE SMOOTH",
"181 786 OFFCURVE",
"11 622 OFFCURVE",
"11 388 CURVE SMOOTH",
"11 151 OFFCURVE",
"181 -14 OFFCURVE",
"426 -14 CURVE SMOOTH"
);
},
{
closed = 1;
nodes = (
"831 452 LINE",
"831 772 LINE",
"573 772 LINE",
"573 452 LINE"
);
}
);
width = 846;
},
{
anchors = (
{
name = bottom;
position = "{433, 0}";
},
{
name = top;
position = "{424, 732}";
}
);
associatedMasterId = "67AEAADB-8447-4819-9D92-8BB76BD22042";
layerId = "01D47734-01C8-4EB1-A4C9-66D12580BF4B";
rightMetricsKey = "=O-12";
name = "{18off}";
paths = (
{
closed = 1;
nodes = (
"604 -8 OFFCURVE",
"743 112 OFFCURVE",
"779 294 CURVE",
"760 298 LINE",
"727 125 OFFCURVE",
"594 11 OFFCURVE",
"418 11 CURVE SMOOTH",
"214 11 OFFCURVE",
"66 161 OFFCURVE",
"66 378 CURVE SMOOTH",
"66 592 OFFCURVE",
"204 741 OFFCURVE",
"420 741 CURVE SMOOTH",
"597 741 OFFCURVE",
"722 644 OFFCURVE",
"756 457 CURVE",
"763 523 LINE",
"754 523 LINE",
"717 662 OFFCURVE",
"601 760 OFFCURVE",
"420 760 CURVE SMOOTH",
"193 760 OFFCURVE",
"46 602 OFFCURVE",
"46 378 CURVE SMOOTH",
"46 151 OFFCURVE",
"202 -8 OFFCURVE",
"418 -8 CURVE SMOOTH"
);
},
{
closed = 1;
nodes = (
"774 457 LINE",
"774 752 LINE",
"756 752 LINE",
"756 457 LINE"
);
}
);
width = 813;
},
{
anchors = (
{
name = bottom;
position = "{437, 0}";
},
{
name = top;
position = "{429, 732}";
}
);
layerId = "A59F1195-5331-40FD-8BD6-3900E1073F61";
rightMetricsKey = "=O-11";
paths = (
{
closed = 1;
nodes = (
"610 -8 OFFCURVE",
"749 111 OFFCURVE",
"785 293 CURVE",
"759 298 LINE",
"727 128 OFFCURVE",
"596 17 OFFCURVE",
"423 17 CURVE SMOOTH",
"223 17 OFFCURVE",
"77 164 OFFCURVE",
"77 378 CURVE SMOOTH",
"77 589 OFFCURVE",
"213 735 OFFCURVE",
"425 735 CURVE SMOOTH",
"599 735 OFFCURVE",
"722 639 OFFCURVE",
"756 457 CURVE",
"764 525 LINE",
"754 525 LINE",
"718 664 OFFCURVE",
"604 760 OFFCURVE",
"425 760 CURVE SMOOTH",
"198 760 OFFCURVE",
"51 602 OFFCURVE",
"51 378 CURVE SMOOTH",
"51 151 OFFCURVE",
"207 -8 OFFCURVE",
"423 -8 CURVE SMOOTH"
);
},
{
closed = 1;
nodes = (
"780 457 LINE",
"780 752 LINE",
"756 752 LINE",
"756 457 LINE"
);
}
);
width = 825;
}
);
leftKerningGroup = O;
leftMetricsKey = O;
rightKerningGroup = C;
unicode = 0043;
},
{
glyphname = D;
layers = (
{
anchors = (
{
name = bottom;
position = "{400, 0}";
},
{
name = top;
position = "{400, 732}";
}
);
layerId = "67AEAADB-8447-4819-9D92-8BB76BD22042";
paths = (
{
closed = 1;
nodes = (
"388 0 LINE SMOOTH",
"631 0 OFFCURVE",
"785 155 OFFCURVE",
"785 378 CURVE SMOOTH",
"785 598 OFFCURVE",
"631 752 OFFCURVE",
"388 752 CURVE SMOOTH",
"295 752 LINE",
"295 747 LINE",
"388 747 LINE SMOOTH",
"629 747 OFFCURVE",
"780 595 OFFCURVE",
"780 378 CURVE SMOOTH",
"780 158 OFFCURVE",
"629 5 OFFCURVE",
"388 5 CURVE SMOOTH",
"293 5 LINE",
"293 0 LINE"
);
},
{
closed = 1;
nodes = (
"304 0 LINE",
"304 5 LINE",
"181 5 LINE",
"181 747 LINE",
"304 747 LINE",
"304 752 LINE",
"27 752 LINE",
"27 747 LINE",
"176 747 LINE",
"176 5 LINE",
"27 5 LINE",
"27 0 LINE"
);
}
);
width = 837;
},
{
anchors = (
{
name = bottom;
position = "{398, 0}";
},
{
name = top;
position = "{398, 772}";
}
);
layerId = "BE4E587A-F76C-447B-AA28-A45E40876AAF";
paths = (
{
closed = 1;
nodes = (
"411 0 LINE",
"666 0 OFFCURVE",
"836 159 OFFCURVE",
"836 388 CURVE SMOOTH",
"836 613 OFFCURVE",
"666 771 OFFCURVE",
"411 772 CURVE",
"334 772 LINE",
"334 565 LINE",
"405 565 LINE",
"508 565 OFFCURVE",
"569 493 OFFCURVE",
"569 388 CURVE SMOOTH",
"569 281 OFFCURVE",
"508 206 OFFCURVE",
"405 207 CURVE",
"334 207 LINE",
"334 0 LINE"
);
},
{
closed = 1;
nodes = (
"373 0 LINE",
"373 207 LINE",
"336 207 LINE",
"336 565 LINE",
"373 565 LINE",
"373 772 LINE",
"21 772 LINE",
"21 565 LINE",
"78 565 LINE",
"78 207 LINE",
"21 207 LINE",
"21 0 LINE"
);
}
);
width = 847;
},
{
anchors = (
{
name = bottom;
position = "{394, 0}";
},
{
name = top;
position = "{394, 732}";
}
);
layerId = "2C5E45D0-97E8-45AA-A5B2-946753DF54E1";
paths = (
{
closed = 1;
nodes = (
"396 0 LINE SMOOTH",
"627 0 OFFCURVE",
"786 155 OFFCURVE",
"786 378 CURVE SMOOTH",
"786 598 OFFCURVE",
"627 752 OFFCURVE",
"396 752 CURVE SMOOTH",
"338 752 LINE",
"338 659 LINE",
"396 659 LINE SMOOTH",
"563 659 OFFCURVE",
"678 545 OFFCURVE",
"678 378 CURVE SMOOTH",
"678 210 OFFCURVE",
"563 93 OFFCURVE",
"396 93 CURVE SMOOTH",
"338 93 LINE",
"338 0 LINE"
);
},
{
closed = 1;
nodes = (
"370 0 LINE",
"370 93 LINE",
"240 93 LINE",
"240 659 LINE",
"370 659 LINE",
"370 752 LINE",
"28 752 LINE",
"28 659 LINE",
"138 659 LINE",
"138 93 LINE",
"28 93 LINE",
"28 0 LINE"
);
}
);
width = 832;
},
{
anchors = (
{
name = bottom;
position = "{398, 0}";
},
{
name = top;
position = "{398, 732}";
}
);
layerId = "A59F1195-5331-40FD-8BD6-3900E1073F61";
paths = (
{
closed = 1;
nodes = (
"389 0 LINE SMOOTH",
"630 0 OFFCURVE",
"785 155 OFFCURVE",
"785 378 CURVE SMOOTH",
"785 598 OFFCURVE",
"630 752 OFFCURVE",
"389 752 CURVE SMOOTH",
"303 752 LINE",
"303 729 LINE",
"389 729 LINE SMOOTH",
"615 729 OFFCURVE",
"759 585 OFFCURVE",
"759 378 CURVE SMOOTH",
"759 169 OFFCURVE",
"615 23 OFFCURVE",
"389 23 CURVE SMOOTH",
"302 23 LINE",
"302 0 LINE"
);
},
{
closed = 1;
nodes = (
"317 0 LINE",
"317 23 LINE",
"192 23 LINE",
"192 729 LINE",
"317 729 LINE",
"317 752 LINE",
"27 752 LINE",
"27 729 LINE",
"168 729 LINE",
"168 23 LINE",
"27 23 LINE",
"27 0 LINE"
);
}
);
width = 836;
}
);
leftKerningGroup = H;
leftMetricsKey = H;
rightKerningGroup = O;
rightMetricsKey = O;
unicode = 0044;
},
{
glyphname = Eth;
layers = (
{
components = (
{
name = D;
transform = "{1, 0, 0, 1, 12, 0}";
}
);
layerId = "67AEAADB-8447-4819-9D92-8BB76BD22042";
leftMetricsKey = "=D+12";
paths = (
{
closed = 1;
nodes = (
"75 382 LINE",
"75 377 LINE",
"456 377 LINE",
"456 382 LINE"
);
}
);
width = 849;
},
{
components = (
{
name = D;
transform = "{1, 0, 0, 1, 14, 0}";
}
);
layerId = "2C5E45D0-97E8-45AA-A5B2-946753DF54E1";
leftMetricsKey = "=D+14";
paths = (
{
closed = 1;
nodes = (
"63 424 LINE",
"63 334 LINE",
"458 334 LINE",
"458 424 LINE"
);
}
);
width = 846;
},
{
components = (
{
name = D;
transform = "{1, 0, 0, 1, 5, 0}";
}
);
layerId = "BE4E587A-F76C-447B-AA28-A45E40876AAF";
paths = (
{
closed = 1;
nodes = (
"21 477 LINE",
"21 300 LINE",
"429 300 LINE",
"429 477 LINE"
);
}
);
width = 852;
},
{
components = (
{
alignment = -1;
name = D;
}
);
layerId = "A59F1195-5331-40FD-8BD6-3900E1073F61";
paths = (
{
closed = 1;
nodes = (
"61 391 LINE",
"61 368 LINE",
"444 368 LINE",
"444 391 LINE"
);
}
);
width = 836;
}
);
leftKerningGroup = H;
leftMetricsKey = D;
rightKerningGroup = O;
rightMetricsKey = D;
unicode = 00D0;
},
{
glyphname = E;
layers = (
{
anchors = (
{
name = bottom;
position = "{415, 0}";
},
{
name = ogonek;
position = "{718, 0}";
},
{
name = top;
position = "{415, 732}";
}
);
layerId = "67AEAADB-8447-4819-9D92-8BB76BD22042";
leftMetricsKey = "=H+0";
rightMetricsKey = "=H+32";
paths = (
{
closed = 1;
nodes = (
"178 382 LINE",
"178 377 LINE",
"519 377 LINE",
"519 382 LINE"
);
},
{
closed = 1;
nodes = (
"713 5 LINE",
"181 5 LINE",
"181 747 LINE",
"704 747 LINE",
"704 565 LINE",
"709 565 LINE",
"709 752 LINE",
"27 752 LINE",
"27 747 LINE",
"176 747 LINE",
"176 5 LINE",
"27 5 LINE",
"27 0 LINE",
"718 0 LINE",
"718 187 LINE",
"713 187 LINE"
);
}
);
width = 777;
},
{
anchors = (
{
name = bottom;
position = "{427, 0}";
},
{
name = ogonek;
position = "{814, 0}";
},
{
name = top;
position = "{427, 772}";
}
);
layerId = "BE4E587A-F76C-447B-AA28-A45E40876AAF";
rightMetricsKey = "=H+12";
paths = (
{
closed = 1;
nodes = (
"205 477 LINE",
"205 300 LINE",
"489 300 LINE",
"489 477 LINE"
);
},
{
closed = 1;
nodes = (
"556 207 LINE",
"336 207 LINE",
"336 565 LINE",
"547 565 LINE",
"547 445 LINE",
"805 445 LINE",
"805 772 LINE",
"21 772 LINE",
"21 565 LINE",
"78 565 LINE",
"78 207 LINE",
"21 207 LINE",
"21 0 LINE",
"814 0 LINE",
"814 327 LINE",
"556 327 LINE"
);
}
);
width = 847;
},
{
anchors = (
{
name = bottom;
position = "{400, 0}";
},
{
name = ogonek;
position = "{738, 0}";
},
{
name = top;
position = "{400, 732}";
}
);
layerId = "2C5E45D0-97E8-45AA-A5B2-946753DF54E1";
leftMetricsKey = "=H";
rightMetricsKey = "=H+28";
paths = (
{
closed = 1;
nodes = (
"196 424 LINE",
"196 334 LINE",
"538 334 LINE",
"538 424 LINE"
);
},
{
closed = 1;
nodes = (
"636 93 LINE",
"240 93 LINE",
"240 659 LINE",
"627 659 LINE",
"627 525 LINE",
"729 525 LINE",
"729 752 LINE",
"28 752 LINE",
"28 659 LINE",
"138 659 LINE",
"138 93 LINE",
"28 93 LINE",
"28 0 LINE",
"738 0 LINE",
"738 227 LINE",
"636 227 LINE"
);
}
);
width = 794;
},
{
anchors = (
{
name = bottom;
position = "{411, 0}";
},
{
name = ogonek;
position = "{721, 0}";
},
{
name = top;
position = "{411, 732}";
}
);
layerId = "A59F1195-5331-40FD-8BD6-3900E1073F61";
leftMetricsKey = "=H+0";
rightMetricsKey = "=H+31";
paths = (
{
closed = 1;
nodes = (
"181 391 LINE",
"181 368 LINE",
"522 368 LINE",
"522 391 LINE"
);
},
{
closed = 1;
nodes = (
"697 23 LINE",
"192 23 LINE",
"192 729 LINE",
"688 729 LINE",
"688 557 LINE",
"712 557 LINE",
"712 752 LINE",
"27 752 LINE",
"27 729 LINE",
"168 729 LINE",
"168 23 LINE",
"27 23 LINE",
"27 0 LINE",
"721 0 LINE",
"721 195 LINE",
"697 195 LINE"
);
}
);
width = 779;
},
{
anchors = (
{
name = bottom;
position = "{427, 0}";
},
{
name = ogonek;
position = "{814, 0}";
},
{
name = top;
position = "{427, 772}";
}
);
associatedMasterId = "BE4E587A-F76C-447B-AA28-A45E40876AAF";
layerId = "89D6BF8A-4F66-41D7-A0A1-366A4583CEF3";
rightMetricsKey = "=H+6";
name = "Jun 1 18, 15:12";
paths = (
{
closed = 1;
nodes = (
"205 477 LINE",
"205 300 LINE",
"612 300 LINE",
"612 477 LINE"
);
},
{
closed = 1;
nodes = (
"504 207 LINE",
"336 207 LINE",
"336 565 LINE",
"495 565 LINE",
"495 507 LINE",
"747 507 LINE",
"747 772 LINE",
"21 772 LINE",
"21 565 LINE",
"78 565 LINE",
"78 207 LINE",
"21 207 LINE",
"21 0 LINE",
"756 0 LINE",
"756 265 LINE",
"504 265 LINE"
);
}
);
width = 783;
}
);
leftKerningGroup = H;
leftMetricsKey = H;
rightKerningGroup = E;
unicode = 0045;
},
{
glyphname = E.ss04;
layers = (
{
anchors = (
{
name = bottom;
position = "{387, 0}";
},
{
name = ogonek;
position = "{677, 0}";
},
{
name = top;
position = "{387, 732}";
}
);
layerId = "67AEAADB-8447-4819-9D92-8BB76BD22042";
paths = (
{
closed = 1;
nodes = (
"178 382 LINE",
"178 377 LINE",
"602 377 LINE",
"602 382 LINE"
);
},
{
closed = 1;
nodes = (
"672 5 LINE",
"181 5 LINE",
"181 747 LINE",
"663 747 LINE",
"663 618 LINE",
"668 618 LINE",
"668 752 LINE",
"27 752 LINE",
"27 747 LINE",
"176 747 LINE",
"176 5 LINE",
"27 5 LINE",
"27 0 LINE",
"677 0 LINE",
"677 133 LINE",
"672 133 LINE"
);
}
);
width = 736;
},
{
anchors = (
{
name = bottom;
position = "{382, 0}";
},
{
name = ogonek;
position = "{687, 0}";
},
{
name = top;
position = "{382, 732}";
}
);
layerId = "2C5E45D0-97E8-45AA-A5B2-946753DF54E1";
paths = (
{
closed = 1;
nodes = (
"196 424 LINE",
"196 334 LINE",
"590 334 LINE",
"590 424 LINE"
);
},
{
closed = 1;
nodes = (
"585 93 LINE",
"240 93 LINE",
"240 659 LINE",
"576 659 LINE",
"576 557 LINE",
"678 557 LINE",
"678 752 LINE",
"28 752 LINE",
"28 659 LINE",
"138 659 LINE",
"138 93 LINE",
"28 93 LINE",
"28 0 LINE",
"687 0 LINE",
"687 195 LINE",
"585 195 LINE"
);
}
);
width = 743;
},
{
anchors = (
{
name = bottom;
position = "{386, 0}";
},
{
name = ogonek;
position = "{679, 0}";
},
{
name = top;
position = "{386, 732}";
}
);
layerId = "A59F1195-5331-40FD-8BD6-3900E1073F61";
paths = (
{
closed = 1;
nodes = (
"182 391 LINE",
"182 368 LINE",
"592 368 LINE",
"592 391 LINE"
);
},
{
closed = 1;
nodes = (
"654 23 LINE",
"193 23 LINE",
"193 729 LINE",
"645 729 LINE",
"645 563 LINE",
"670 563 LINE",
"670 752 LINE",
"27 752 LINE",
"27 729 LINE",
"168 729 LINE",
"168 23 LINE",
"27 23 LINE",
"27 0 LINE",
"679 0 LINE",
"679 189 LINE",
"654 189 LINE"
);
}
);
width = 737;
},
{
anchors = (
{
name = bottom;
position = "{399, 0}";
},
{
name = ogonek;
position = "{762, 0}";
},
{
name = top;
position = "{399, 772}";
}
);
layerId = "BE4E587A-F76C-447B-AA28-A45E40876AAF";
paths = (
{
closed = 1;
nodes = (
"205 477 LINE",
"205 300 LINE",
"612 300 LINE",
"612 477 LINE"
);
},
{
closed = 1;
nodes = (
"504 207 LINE",
"336 207 LINE",
"336 565 LINE",
"495 565 LINE",
"495 507 LINE",
"753 507 LINE",
"753 772 LINE",
"21 772 LINE",
"21 565 LINE",
"78 565 LINE",
"78 207 LINE",
"21 207 LINE",
"21 0 LINE",
"762 0 LINE",
"762 265 LINE",
"504 265 LINE"
);
}
);
width = 795;
}
);
leftKerningGroup = H;
leftMetricsKey = H;
rightKerningGroup = E2;
rightMetricsKey = "=E";
},
{
glyphname = F;
layers = (
{
anchors = (
{
name = bottom;
position = "{372, 0}";
},
{
name = top;
position = "{372, 732}";
}
);
layerId = "67AEAADB-8447-4819-9D92-8BB76BD22042";
leftMetricsKey = "=H+0";
rightMetricsKey = "=H-2";
paths = (
{
closed = 1;
nodes = (
"178 382 LINE",
"178 377 LINE",
"502 377 LINE",
"502 382 LINE"
);
},
{
closed = 1;
nodes = (
"27 752 LINE",
"27 747 LINE",
"176 747 LINE",
"176 5 LINE",
"27 5 LINE",
"27 0 LINE",
"344 0 LINE",
"344 5 LINE",
"181 5 LINE",
"181 747 LINE",
"672 747 LINE",
"672 565 LINE",
"677 565 LINE",
"677 752 LINE"
);
}
);
width = 702;
},
{
anchors = (
{
name = bottom;
position = "{371, 0}";
},
{
name = top;
position = "{371, 732}";
}
);
layerId = "A59F1195-5331-40FD-8BD6-3900E1073F61";
leftMetricsKey = "=H+0";
rightMetricsKey = "=H-3";
paths = (
{
closed = 1;
nodes = (
"181 391 LINE",
"181 368 LINE",
"500 368 LINE",
"500 391 LINE"
);
},
{
closed = 1;
nodes = (
"27 752 LINE",
"27 729 LINE",
"168 729 LINE",
"168 23 LINE",
"27 23 LINE",
"27 0 LINE",
"350 0 LINE",
"350 23 LINE",
"192 23 LINE",
"192 729 LINE",
"654 729 LINE",
"654 557 LINE",
"678 557 LINE",
"678 752 LINE"
);
}
);
width = 702;
},
{
anchors = (
{
name = bottom;
position = "{370, 0}";
},
{
name = top;
position = "{370, 732}";
}
);
layerId = "2C5E45D0-97E8-45AA-A5B2-946753DF54E1";
leftMetricsKey = "=H";
rightMetricsKey = "=H-6";
paths = (
{
closed = 1;
nodes = (
"196 424 LINE",
"196 334 LINE",
"493 334 LINE",
"493 424 LINE"
);
},
{
closed = 1;
nodes = (
"28 752 LINE",
"28 659 LINE",
"138 659 LINE",
"138 93 LINE",
"28 93 LINE",
"28 0 LINE",
"378 0 LINE",
"378 93 LINE",
"240 93 LINE",
"240 659 LINE",
"585 659 LINE",
"585 525 LINE",
"687 525 LINE",
"687 752 LINE"
);
}
);
width = 709;
},
{
anchors = (
{
name = bottom;
position = "{420, 0}";
},
{
name = top;
position = "{420, 772}";
}
);
layerId = "BE4E587A-F76C-447B-AA28-A45E40876AAF";
rightMetricsKey = "=H-12";
paths = (
{
closed = 1;
nodes = (
"205 477 LINE",
"205 300 LINE",
"471 300 LINE",
"471 477 LINE"
);
},
{
closed = 1;
nodes = (
"21 772 LINE",
"21 565 LINE",
"78 565 LINE",
"78 207 LINE",
"21 207 LINE",
"21 0 LINE",
"451 0 LINE",
"451 207 LINE",
"336 207 LINE",
"336 565 LINE",
"523 565 LINE",
"523 435 LINE",
"781 435 LINE",
"781 772 LINE"
);
}
);
width = 790;
},
{
anchors = (
{
name = bottom;
position = "{420, 0}";
},
{
name = top;
position = "{420, 772}";
}
);
associatedMasterId = "BE4E587A-F76C-447B-AA28-A45E40876AAF";
layerId = "04CA457B-117A-4505-AFCD-B15F8CE0FCBC";
name = "May 16 18, 15:38";
paths = (
{
closed = 1;
nodes = (
"205 477 LINE",
"205 300 LINE",
"471 300 LINE",
"471 477 LINE"
);
},
{
closed = 1;
nodes = (
"21 772 LINE",
"21 565 LINE",
"78 565 LINE",
"78 207 LINE",
"21 207 LINE",
"21 0 LINE",
"451 0 LINE",
"451 207 LINE",
"336 207 LINE",
"336 565 LINE",
"463 565 LINE",
"532 463 LINE",
"739 605 LINE",
"624 772 LINE"
);
}
);
width = 628;
},
{
anchors = (
{
name = bottom;
position = "{420, 0}";
},
{
name = top;
position = "{420, 772}";
}
);
associatedMasterId = "BE4E587A-F76C-447B-AA28-A45E40876AAF";
layerId = "C401DA66-D1BE-45BF-ADC2-2C9BB662A692";
name = "May 16 18, 15:41";
paths = (
{
closed = 1;
nodes = (
"451 0 LINE",
"451 207 LINE",
"336 207 LINE",
"336 565 LINE",
"542 565 LINE",
"557 531 OFFCURVE",
"588 500 OFFCURVE",
"669 488 CURVE",
"669 428 LINE",
"946 594 LINE",
"814 594 OFFCURVE",
"800 660 OFFCURVE",
"800 772 CURVE",
"21 772 LINE",
"21 565 LINE",
"78 565 LINE",
"78 207 LINE",
"21 207 LINE",
"21 0 LINE"
);
},
{
closed = 1;
nodes = (
"521 300 LINE",
"521 477 LINE",
"205 477 LINE",
"205 300 LINE"
);
}
);
width = 635;
},
{
anchors = (
{
name = bottom;
position = "{386, 0}";
},
{
name = top;
position = "{386, 772}";
}
);
associatedMasterId = "BE4E587A-F76C-447B-AA28-A45E40876AAF";
layerId = "030FB697-EAF6-4BEE-8586-CF64C186B74E";
name = "Jun 1 18, 15:16";
paths = (
{
closed = 1;
nodes = (
"205 477 LINE",
"205 300 LINE",
"471 300 LINE",
"471 477 LINE"
);
},
{
closed = 1;
nodes = (
"21 772 LINE",
"21 565 LINE",
"78 565 LINE",
"78 207 LINE",
"21 207 LINE",
"21 0 LINE",
"451 0 LINE",
"451 207 LINE",
"336 207 LINE",
"336 565 LINE",
"523 565 LINE",
"523 403 LINE",
"724 403 LINE",
"724 772 LINE"
);
},
{
closed = 1;
nodes = (
"697 772 LINE",
"697 565 LINE",
"799 565 LINE",
"799 207 LINE",
"742 207 LINE",
"742 0 LINE",
"1114 0 LINE",
"1114 207 LINE",
"1057 207 LINE",
"1057 565 LINE",
"1109 565 LINE",
"1109 403 LINE",
"1333 403 LINE",
"1333 772 LINE"
);
}
);
width = 1345;
},
{
anchors = (
{
name = bottom;
position = "{420, 0}";
},
{
name = top;
position = "{420, 772}";
}
);
associatedMasterId = "BE4E587A-F76C-447B-AA28-A45E40876AAF";
layerId = "87A51035-5F77-432C-9132-FE0D9E469ED4";
rightMetricsKey = "=H-12";
name = "Jun 1 18, 15:05";
paths = (
{
closed = 1;
nodes = (
"205 477 LINE",
"205 300 LINE",
"587 300 LINE",
"587 477 LINE"
);
},
{
closed = 1;
nodes = (
"21 772 LINE",
"21 565 LINE",
"78 565 LINE",
"78 207 LINE",
"21 207 LINE",
"21 0 LINE",
"451 0 LINE",
"451 207 LINE",
"336 207 LINE",
"336 565 LINE",
"470 565 LINE",
"470 507 LINE",
"722 507 LINE",
"722 772 LINE"
);
}
);
width = 731;
}
);
leftKerningGroup = H;
leftMetricsKey = H;
rightKerningGroup = F;
rightMetricsKey = "=T";
unicode = 0046;
},
{
glyphname = F.ss04;
layers = (
{
anchors = (
{
name = bottom;
position = "{372, 0}";
},
{
name = top;
position = "{372, 732}";
}
);
layerId = "67AEAADB-8447-4819-9D92-8BB76BD22042";
rightMetricsKey = "=F+2";
paths = (
{
closed = 1;
nodes = (
"178 382 LINE",
"178 377 LINE",
"533 377 LINE",
"533 382 LINE"
);
},
{
closed = 1;
nodes = (
"27 752 LINE",
"27 747 LINE",
"176 747 LINE",
"176 5 LINE",
"27 5 LINE",
"27 0 LINE",
"344 0 LINE",
"344 5 LINE",
"181 5 LINE",
"181 747 LINE",
"621 747 LINE",
"621 618 LINE",
"626 618 LINE",
"626 752 LINE"
);
}
);
width = 653;
},
{
anchors = (
{
name = bottom;
position = "{370, 0}";
},
{
name = top;
position = "{370, 732}";
}
);
layerId = "2C5E45D0-97E8-45AA-A5B2-946753DF54E1";
rightMetricsKey = "=F+6";
paths = (
{
closed = 1;
nodes = (
"196 424 LINE",
"196 334 LINE",
"542 334 LINE",
"542 424 LINE"
);
},
{
closed = 1;
nodes = (
"28 752 LINE",
"28 659 LINE",
"138 659 LINE",
"138 93 LINE",
"28 93 LINE",
"28 0 LINE",
"378 0 LINE",
"378 93 LINE",
"240 93 LINE",
"240 659 LINE",
"535 659 LINE",
"535 557 LINE",
"637 557 LINE",
"637 752 LINE"
);
}
);
width = 665;
},
{
anchors = (
{
name = bottom;
position = "{420, 0}";
},
{
name = top;
position = "{420, 772}";
}
);
layerId = "BE4E587A-F76C-447B-AA28-A45E40876AAF";
rightMetricsKey = "=F+3";
paths = (
{
closed = 1;
nodes = (
"205 477 LINE",
"205 300 LINE",
"616 300 LINE",
"616 477 LINE"
);
},
{
closed = 1;
nodes = (
"21 772 LINE",
"21 565 LINE",
"78 565 LINE",
"78 207 LINE",
"21 207 LINE",
"21 0 LINE",
"454 0 LINE",
"454 207 LINE",
"336 207 LINE",
"336 565 LINE",
"481 565 LINE",
"481 507 LINE",
"739 507 LINE",
"739 772 LINE"
);
}
);
width = 751;
},
{
anchors = (
{
name = bottom;
position = "{372, 0}";
},
{
name = top;
position = "{372, 732}";
}
);
layerId = "A59F1195-5331-40FD-8BD6-3900E1073F61";
rightMetricsKey = "=F+3";
paths = (
{
closed = 1;
nodes = (
"182 391 LINE",
"182 368 LINE",
"535 368 LINE",
"535 391 LINE"
);
},
{
closed = 1;
nodes = (
"27 752 LINE",
"27 729 LINE",
"168 729 LINE",
"168 23 LINE",
"27 23 LINE",
"27 0 LINE",
"351 0 LINE",
"351 23 LINE",
"193 23 LINE",
"193 729 LINE",
"603 729 LINE",
"603 606 LINE",
"628 606 LINE",
"628 752 LINE"
);
}
);
width = 655;
},
{
anchors = (
{
name = bottom;
position = "{370, 0}";
},
{
name = top;
position = "{370, 732}";
}
);
associatedMasterId = "2C5E45D0-97E8-45AA-A5B2-946753DF54E1";
layerId = "A977E851-475B-47F9-9613-8B595A940949";
rightMetricsKey = "=F+2";
name = "Jun 28 18, 11:52";
paths = (
{
closed = 1;
nodes = (
"196 424 LINE",
"196 334 LINE",
"558 334 LINE",
"558 424 LINE"
);
},
{
closed = 1;
nodes = (
"28 752 LINE",
"28 659 LINE",
"138 659 LINE",
"138 93 LINE",
"28 93 LINE",
"28 0 LINE",
"378 0 LINE",
"378 93 LINE",
"240 93 LINE",
"240 659 LINE",
"535 659 LINE",
"535 557 LINE",
"637 557 LINE",
"637 752 LINE"
);
}
);
width = 661;
}
);
leftKerningGroup = H;
leftMetricsKey = H;
rightKerningGroup = F2;
rightMetricsKey = F;
},
{
color = 0;
glyphname = G;
layers = (
{
anchors = (
{
name = bottom;
position = "{420, 0}";
},
{
name = top;
position = "{420, 732}";
}
);
layerId = "67AEAADB-8447-4819-9D92-8BB76BD22042";
rightMetricsKey = "=H-8";
paths = (
{
closed = 1;
nodes = (
"615 -7 OFFCURVE",
"761 132 OFFCURVE",
"782 340 CURVE",
"778 341 LINE",
"756 134 OFFCURVE",
"612 -2 OFFCURVE",
"422 -2 CURVE SMOOTH",
"211 -2 OFFCURVE",
"57 154 OFFCURVE",
"57 378 CURVE SMOOTH",
"57 599 OFFCURVE",
"202 754 OFFCURVE",
"430 754 CURVE SMOOTH",
"613 754 OFFCURVE",
"737 654 OFFCURVE",
"772 457 CURVE",
"776 480 LINE",
"771 480 LINE",
"735 655 OFFCURVE",
"617 759 OFFCURVE",
"430 759 CURVE SMOOTH",
"199 759 OFFCURVE",
"52 602 OFFCURVE",
"52 378 CURVE SMOOTH",
"52 151 OFFCURVE",
"208 -7 OFFCURVE",
"422 -7 CURVE SMOOTH"
);
},
{
closed = 1;
nodes = (
"783 0 LINE",
"783 343 LINE",
"778 343 LINE",
"778 324 LINE",
"778 0 LINE"
);
},
{
closed = 1;
nodes = (
"877 340 LINE",
"877 345 LINE",
"483 345 LINE",
"483 340 LINE"
);
},
{
closed = 1;
nodes = (
"777 457 LINE",
"777 752 LINE",
"772 752 LINE",
"772 457 LINE"
);
}
);
width = 896;
},
{
anchors = (
{
name = bottom;
position = "{453, 0}";
},
{
name = top;
position = "{453, 772}";
}
);
layerId = "BE4E587A-F76C-447B-AA28-A45E40876AAF";
paths = (
{
closed = 1;
nodes = (
"605 -14 OFFCURVE",
"713 91 OFFCURVE",
"737 327 CURVE",
"625 334 LINE",
"594 267 OFFCURVE",
"520 223 OFFCURVE",
"439 223 CURVE SMOOTH",
"337 223 OFFCURVE",
"278 290 OFFCURVE",
"278 388 CURVE SMOOTH",
"278 480 OFFCURVE",
"341 543 OFFCURVE",
"434 543 CURVE SMOOTH",
"500 543 OFFCURVE",
"553 512 OFFCURVE",
"573 462 CURVE",
"613 559 LINE",
"565 559 LINE",
"555 712 OFFCURVE",
"487 786 OFFCURVE",
"363 786 CURVE SMOOTH",
"181 786 OFFCURVE",
"11 622 OFFCURVE",
"11 388 CURVE SMOOTH",
"11 151 OFFCURVE",
"181 -14 OFFCURVE",
"418 -14 CURVE SMOOTH"
);
},
{
closed = 1;
nodes = (
"837 0 LINE",
"837 368 LINE",
"579 368 LINE",
"579 226 LINE",
"693 0 LINE"
);
},
{
closed = 1;
nodes = (
"892 277 LINE",
"892 436 LINE",
"404 436 LINE",
"404 277 LINE"
);
},
{
closed = 1;
nodes = (
"831 462 LINE",
"831 772 LINE",
"573 772 LINE",
"573 462 LINE"
);
}
);
width = 905;
},
{
anchors = (
{
name = bottom;
position = "{425, 0}";
},
{
name = top;
position = "{433, 732}";
}
);
layerId = "2C5E45D0-97E8-45AA-A5B2-946753DF54E1";
rightMetricsKey = "=H-19";
paths = (
{
closed = 1;
nodes = (
"603 -11 OFFCURVE",
"738 103 OFFCURVE",
"775 277 CURVE",
"697 299 LINE",
"667 172 OFFCURVE",
"565 89 OFFCURVE",
"426 89 CURVE SMOOTH",
"266 89 OFFCURVE",
"155 208 OFFCURVE",
"155 378 CURVE SMOOTH",
"155 547 OFFCURVE",
"266 663 OFFCURVE",
"426 663 CURVE SMOOTH",
"561 663 OFFCURVE",
"662 582 OFFCURVE",
"691 457 CURVE",
"718 546 LINE",
"687 546 LINE",
"665 684 OFFCURVE",
"576 763 OFFCURVE",
"423 763 CURVE SMOOTH",
"203 763 OFFCURVE",
"46 604 OFFCURVE",
"46 378 CURVE SMOOTH",
"46 153 OFFCURVE",
"203 -11 OFFCURVE",
"421 -11 CURVE SMOOTH"
);
},
{
closed = 1;
nodes = (
"797 0 LINE",
"797 368 LINE",
"695 368 LINE",
"695 116 LINE",
"732 0 LINE"
);
},
{
closed = 1;
nodes = (
"906 278 LINE",
"906 371 LINE",
"499 371 LINE",
"499 278 LINE"
);
},
{
closed = 1;
nodes = (
"793 457 LINE",
"793 752 LINE",
"691 752 LINE",
"691 457 LINE"
);
}
);
width = 915;
},
{
associatedMasterId = "2C5E45D0-97E8-45AA-A5B2-946753DF54E1";
layerId = "5EAA0A0D-DF81-4506-9706-629629C5BCC5";
rightMetricsKey = "=H-20";
name = "Dec 25 17, 01:58";
paths = (
{
closed = 1;
nodes = (
"789 0 LINE",
"789 368 LINE",
"687 368 LINE",
"687 0 LINE"
);
},
{
closed = 1;
nodes = (
"902 278 LINE",
"902 371 LINE",
"495 371 LINE",
"495 278 LINE"
);
},
{
closed = 1;
nodes = (
"789 457 LINE",
"789 752 LINE",
"687 752 LINE",
"687 457 LINE"
);
},
{
closed = 1;
nodes = (
"263 89 OFFCURVE",
"152 206 OFFCURVE",
"151 376 CURVE SMOOTH",
"151 546 OFFCURVE",
"262 663 OFFCURVE",
"422 663 CURVE SMOOTH",
"557 663 OFFCURVE",
"658 582 OFFCURVE",
"687 457 CURVE",
"714 546 LINE",
"683 546 LINE",
"661 684 OFFCURVE",
"572 763 OFFCURVE",
"419 763 CURVE SMOOTH",
"199 763 OFFCURVE",
"42 603 OFFCURVE",
"42 376 CURVE SMOOTH",
"42 149 OFFCURVE",
"199 -11 OFFCURVE",
"419 -11 CURVE SMOOTH",
"572 -11 OFFCURVE",
"661 68 OFFCURVE",
"683 206 CURVE",
"714 206 LINE",
"687 295 LINE",
"658 170 OFFCURVE",
"557 89 OFFCURVE",
"422 89 CURVE SMOOTH"
);
}
);
width = 912;
},
{
anchors = (
{
name = bottom;
position = "{363, 0}";
},
{
name = top;
position = "{418, 732}";
}
);
associatedMasterId = "67AEAADB-8447-4819-9D92-8BB76BD22042";
layerId = "6F48D09F-76B3-4A76-9440-FF62DA06DCD1";
rightMetricsKey = "=H-8";
name = "Light [9off]";
paths = (
{
closed = 1;
nodes = (
"612 -7 OFFCURVE",
"756 130 OFFCURVE",
"777 340 CURVE",
"773 341 LINE",
"751 134 OFFCURVE",
"607 -2 OFFCURVE",
"417 -2 CURVE SMOOTH",
"206 -2 OFFCURVE",
"52 154 OFFCURVE",
"52 378 CURVE SMOOTH",
"52 599 OFFCURVE",
"197 754 OFFCURVE",
"425 754 CURVE SMOOTH",
"606 754 OFFCURVE",
"732 654 OFFCURVE",
"767 457 CURVE",
"771 507 LINE",
"766 507 LINE",
"732 657 OFFCURVE",
"612 759 OFFCURVE",
"425 759 CURVE SMOOTH",
"194 759 OFFCURVE",
"47 602 OFFCURVE",
"47 378 CURVE SMOOTH",
"47 151 OFFCURVE",
"203 -7 OFFCURVE",
"417 -7 CURVE SMOOTH"
);
},
{
closed = 1;
nodes = (
"778 0 LINE",
"778 343 LINE",
"773 343 LINE",
"773 324 LINE",
"773 0 LINE"
);
},
{
closed = 1;
nodes = (
"872 340 LINE",
"872 345 LINE",
"478 345 LINE",
"478 340 LINE"
);
},
{
closed = 1;
nodes = (
"772 457 LINE",
"772 752 LINE",
"767 752 LINE",
"767 457 LINE"
);
}
);
width = 884;
},
{
anchors = (
{
name = bottom;
position = "{427, 0}";
},
{
name = top;
position = "{425, 732}";
}
);
layerId = "A59F1195-5331-40FD-8BD6-3900E1073F61";
rightMetricsKey = "=H-10";
paths = (
{
closed = 1;
nodes = (
"612 -8 OFFCURVE",
"757 126 OFFCURVE",
"781 327 CURVE",
"762 332 LINE",
"738 141 OFFCURVE",
"602 17 OFFCURVE",
"423 17 CURVE SMOOTH",
"223 17 OFFCURVE",
"77 165 OFFCURVE",
"77 378 CURVE SMOOTH",
"77 589 OFFCURVE",
"215 735 OFFCURVE",
"429 735 CURVE SMOOTH",
"603 735 OFFCURVE",
"722 639 OFFCURVE",
"756 457 CURVE",
"764 525 LINE",
"754 525 LINE",
"718 663 OFFCURVE",
"608 760 OFFCURVE",
"429 760 CURVE SMOOTH",
"200 760 OFFCURVE",
"51 602 OFFCURVE",
"51 378 CURVE SMOOTH",
"51 151 OFFCURVE",
"207 -8 OFFCURVE",
"422 -8 CURVE SMOOTH"
);
},
{
closed = 1;
nodes = (
"786 0 LINE",
"786 348 LINE",
"761 348 LINE",
"761 282 LINE",
"769 0 LINE"
);
},
{
closed = 1;
nodes = (
"883 327 LINE",
"883 351 LINE",
"486 351 LINE",
"486 327 LINE"
);
},
{
closed = 1;
nodes = (
"780 457 LINE",
"780 752 LINE",
"756 752 LINE",
"756 457 LINE"
);
}
);
width = 900;
}
);
leftKerningGroup = O;
leftMetricsKey = O;
rightKerningGroup = G;
rightMetricsKey = "=H-8";
unicode = 0047;
},
{
glyphname = Gcommaaccent;
layers = (
{
anchors = (
{
name = _bottom;
position = "{420, 0}";
}
);
components = (
{
name = G;
}
);
layerId = "67AEAADB-8447-4819-9D92-8BB76BD22042";
paths = (
{
closed = 1;
nodes = (
"437 -154 LINE SMOOTH",
"437 -193 OFFCURVE",
"418 -212 OFFCURVE",
"390 -212 CURVE",
"390 -217 LINE",
"421 -217 OFFCURVE",
"442 -196 OFFCURVE",
"442 -154 CURVE SMOOTH",
"442 -83 LINE",
"437 -83 LINE"
);
}
);
width = 896;
},
{
anchors = (
{
name = _bottom;
position = "{425, 0}";
}
);
components = (
{
name = G;
}
);
layerId = "2C5E45D0-97E8-45AA-A5B2-946753DF54E1";
paths = (
{
closed = 1;
nodes = (
"352 -138 LINE",
"459 -138 LINE",
"495 -117 LINE",
"495 -49 LINE",
"352 -49 LINE"
);
},
{
closed = 1;
nodes = (
"452 -122 LINE SMOOTH",
"452 -166 OFFCURVE",
"433 -186 OFFCURVE",
"385 -186 CURVE SMOOTH",
"352 -186 LINE",
"352 -224 LINE",
"385 -224 LINE SMOOTH",
"459 -224 OFFCURVE",
"495 -185 OFFCURVE",
"495 -120 CURVE SMOOTH",
"495 -65 LINE",
"452 -65 LINE"
);
}
);
width = 915;
},
{
anchors = (
{
name = _bottom;
position = "{453, 0}";
}
);
components = (
{
name = G;
}
);
layerId = "BE4E587A-F76C-447B-AA28-A45E40876AAF";
paths = (
{
closed = 1;
nodes = (
"329 -154 LINE",
"506 -154 LINE",
"577 -119 LINE",
"577 -24 LINE",
"329 -24 LINE"
);
},
{
closed = 1;
nodes = (
"474 -152 LINE SMOOTH",
"474 -174 OFFCURVE",
"451 -186 OFFCURVE",
"410 -186 CURVE SMOOTH",
"329 -186 LINE",
"329 -245 LINE",
"410 -245 LINE SMOOTH",
"531 -245 OFFCURVE",
"577 -211 OFFCURVE",
"577 -133 CURVE SMOOTH",
"577 -107 LINE",
"474 -120 LINE"
);
}
);
width = 905;
},
{
anchors = (
{
name = _bottom;
position = "{427, 0}";
}
);
components = (
{
name = G;
}
);
layerId = "A59F1195-5331-40FD-8BD6-3900E1073F61";
paths = (
{
closed = 1;
nodes = (
"425 -144 LINE SMOOTH",
"425 -180 OFFCURVE",
"408 -196 OFFCURVE",
"380 -196 CURVE",
"380 -218 LINE",
"422 -218 OFFCURVE",
"449 -193 OFFCURVE",
"449 -144 CURVE SMOOTH",
"449 -80 LINE",
"425 -80 LINE"
);
}
);
width = 900;
},
{
anchors = (
{
name = _bottom;
position = "{420, 0}";
}
);
associatedMasterId = "67AEAADB-8447-4819-9D92-8BB76BD22042";
components = (
{
name = G;
}
);
layerId = "D33C39AC-9FDD-4680-93B7-EFB8E96FC1FF";
name = "[24]";
paths = (
{
closed = 1;
nodes = (
"413 -121 LINE",
"429 -121 LINE",
"432 -110 LINE",
"432 -102 LINE",
"413 -102 LINE"
);
},
{
closed = 1;
nodes = (
"427 -137 LINE SMOOTH",
"427 -147 OFFCURVE",
"421 -152 OFFCURVE",
"414 -152 CURVE SMOOTH",
"413 -152 LINE",
"413 -157 LINE",
"414 -157 LINE SMOOTH",
"424 -157 OFFCURVE",
"432 -150 OFFCURVE",
"432 -137 CURVE SMOOTH",
"432 -104 LINE",
"427 -104 LINE"
);
}
);
width = 896;
},
{
anchors = (
{
name = _bottom;
position = "{427, 0}";
}
);
associatedMasterId = "A59F1195-5331-40FD-8BD6-3900E1073F61";
components = (
{
name = G;
}
);
layerId = "6058FA61-02EF-4FD2-8B86-A529B545F536";
name = "Light [24]";
paths = (
{
closed = 1;
nodes = (
"394 -146 LINE",
"423 -146 LINE",
"436 -125 LINE",
"436 -94 LINE",
"394 -94 LINE"
);
},
{
closed = 1;
nodes = (
"422 -176 LINE SMOOTH",
"422 -195 OFFCURVE",
"411 -204 OFFCURVE",
"394 -204 CURVE SMOOTH",
"393 -204 LINE",
"393 -217 LINE",
"394 -217 LINE SMOOTH",
"419 -217 OFFCURVE",
"436 -204 OFFCURVE",
"436 -176 CURVE SMOOTH",
"436 -94 LINE",
"422 -94 LINE"
);
}
);
width = 900;
},
{
anchors = (
{
name = _bottom;
position = "{425, 0}";
}
);
associatedMasterId = "2C5E45D0-97E8-45AA-A5B2-946753DF54E1";
components = (
{
name = G;
}
);
layerId = "13FD7A92-E265-4F4E-9E22-40DAA4AA7A9F";
name = "Regular ]24]";
paths = (
{
closed = 1;
nodes = (
"404 -105 LINE SMOOTH",
"404 -128 OFFCURVE",
"393 -136 OFFCURVE",
"368 -136 CURVE",
"368 -220 LINE",
"449 -220 OFFCURVE",
"502 -181 OFFCURVE",
"502 -105 CURVE SMOOTH",
"502 -69 LINE",
"404 -69 LINE"
);
}
);
width = 915;
},
{
anchors = (
{
name = _bottom;
position = "{453, 0}";
}
);
associatedMasterId = "BE4E587A-F76C-447B-AA28-A45E40876AAF";
components = (
{
name = G;
}
);
layerId = "C3EA1E99-E39E-4105-8BA2-FCCC5C8A092A";
name = "]24]";
paths = (
{
closed = 1;
nodes = (
"401 -112 LINE SMOOTH",
"401 -128 OFFCURVE",
"392 -137 OFFCURVE",
"377 -137 CURVE",
"377 -245 LINE",
"523 -245 OFFCURVE",
"578 -205 OFFCURVE",
"578 -112 CURVE SMOOTH",
"578 -56 LINE",
"401 -56 LINE"
);
}
);
width = 905;
}
);
leftKerningGroup = O;
rightKerningGroup = G;
unicode = 0122;
},
{
glyphname = H;
layers = (
{
anchors = (
{
name = bottom;
position = "{464, 0}";
},
{
name = top;
position = "{463, 732}";
}
);
layerId = "67AEAADB-8447-4819-9D92-8BB76BD22042";
leftMetricsKey = "=l-14";
paths = (
{
closed = 1;
nodes = (
"178 382 LINE",
"178 377 LINE",
"748 377 LINE",
"748 382 LINE"
);
},
{
closed = 1;
nodes = (
"176 747 LINE",
"176 5 LINE",
"27 5 LINE",
"27 0 LINE",
"329 0 LINE",
"329 5 LINE",
"181 5 LINE",
"181 747 LINE",
"329 747 LINE",
"329 752 LINE",
"27 752 LINE",
"27 747 LINE"
);
},
{
closed = 1;
nodes = (
"747 747 LINE",
"747 5 LINE",
"598 5 LINE",
"598 0 LINE",
"900 0 LINE",
"900 5 LINE",
"752 5 LINE",
"752 747 LINE",
"900 747 LINE",
"900 752 LINE",
"598 752 LINE",
"598 747 LINE"
);
}
);
width = 927;
},
{
anchors = (
{
name = bottom;
position = "{438, 0}";
},
{
name = top;
position = "{438, 772}";
}
);
layerId = "BE4E587A-F76C-447B-AA28-A45E40876AAF";
leftMetricsKey = "=l+4";
paths = (
{
closed = 1;
nodes = (
"205 477 LINE",
"205 300 LINE",
"661 300 LINE",
"661 477 LINE"
);
},
{
closed = 1;
nodes = (
"78 565 LINE",
"78 207 LINE",
"21 207 LINE",
"21 0 LINE",
"393 0 LINE",
"393 207 LINE",
"336 207 LINE",
"336 565 LINE",
"393 565 LINE",
"393 772 LINE",
"21 772 LINE",
"21 565 LINE"
);
},
{
closed = 1;
nodes = (
"540 565 LINE",
"540 207 LINE",
"483 207 LINE",
"483 0 LINE",
"855 0 LINE",
"855 207 LINE",
"798 207 LINE",
"798 565 LINE",
"855 565 LINE",
"855 772 LINE",
"483 772 LINE",
"483 565 LINE"
);
}
);
width = 876;
},
{
anchors = (
{
name = bottom;
position = "{444, 0}";
},
{
name = top;
position = "{444, 732}";
}
);
layerId = "2C5E45D0-97E8-45AA-A5B2-946753DF54E1";
leftMetricsKey = "=l-6";
paths = (
{
closed = 1;
nodes = (
"196 424 LINE",
"196 334 LINE",
"682 334 LINE",
"682 424 LINE"
);
},
{
closed = 1;
nodes = (
"138 659 LINE",
"138 93 LINE",
"28 93 LINE",
"28 0 LINE",
"350 0 LINE",
"350 93 LINE",
"240 93 LINE",
"240 659 LINE",
"350 659 LINE",
"350 752 LINE",
"28 752 LINE",
"28 659 LINE"
);
},
{
closed = 1;
nodes = (
"648 659 LINE",
"648 93 LINE",
"538 93 LINE",
"538 0 LINE",
"860 0 LINE",
"860 93 LINE",
"750 93 LINE",
"750 659 LINE",
"860 659 LINE",
"860 752 LINE",
"538 752 LINE",
"538 659 LINE"
);
}
);
width = 888;
},
{
anchors = (
{
name = bottom;
position = "{459, 0}";
},
{
name = top;
position = "{459, 732}";
}
);
layerId = "A59F1195-5331-40FD-8BD6-3900E1073F61";
leftMetricsKey = "=l-13";
paths = (
{
closed = 1;
nodes = (
"181 391 LINE",
"181 368 LINE",
"734 368 LINE",
"734 391 LINE"
);
},
{
closed = 1;
nodes = (
"168 729 LINE",
"168 23 LINE",
"27 23 LINE",
"27 0 LINE",
"333 0 LINE",
"333 23 LINE",
"192 23 LINE",
"192 729 LINE",
"333 729 LINE",
"333 752 LINE",
"27 752 LINE",
"27 729 LINE"
);
},
{
closed = 1;
nodes = (
"726 729 LINE",
"726 23 LINE",
"585 23 LINE",
"585 0 LINE",
"890 0 LINE",
"890 23 LINE",
"750 23 LINE",
"750 729 LINE",
"890 729 LINE",
"890 752 LINE",
"585 752 LINE",
"585 729 LINE"
);
}
);
width = 917;
}
);
leftKerningGroup = H;
leftMetricsKey = l;
rightKerningGroup = H;
rightMetricsKey = "=|";
unicode = 0048;
},
{
color = 9;
glyphname = Hbar;
layers = (
{
components = (
{
name = H;
transform = "{1, 0, 0, 1, 7, 0}";
}
);
layerId = "67AEAADB-8447-4819-9D92-8BB76BD22042";
paths = (
{
closed = 1;
nodes = (
"27 570 LINE",
"27 565 LINE",
"900 565 LINE",
"900 570 LINE"
);
}
);
width = 934;
},
{
components = (
{
name = H;
transform = "{1, 0, 0, 1, 6, 0}";
}
);
layerId = "A59F1195-5331-40FD-8BD6-3900E1073F61";
paths = (
{
closed = 1;
nodes = (
"27 575 LINE",
"27 552 LINE",
"890 552 LINE",
"890 575 LINE"
);
}
);
width = 923;
},
{
components = (
{
name = H;
}
);
layerId = "2C5E45D0-97E8-45AA-A5B2-946753DF54E1";
paths = (
{
closed = 1;
nodes = (
"35 584 LINE",
"35 506 LINE",
"843 506 LINE",
"843 584 LINE"
);
}
);
width = 888;
},
{
anchors = (
{
name = bottom;
position = "{439, 0}";
},
{
name = top;
position = "{439, 732}";
}
);
associatedMasterId = "2C5E45D0-97E8-45AA-A5B2-946753DF54E1";
layerId = "70BEE393-D30B-4B8A-9647-98AA959851E7";
name = "[119off]";
paths = (
{
closed = 1;
nodes = (
"35 665 LINE",
"35 575 LINE",
"843 575 LINE",
"843 665 LINE"
);
},
{
closed = 1;
nodes = (
"191 424 LINE",
"191 334 LINE",
"677 334 LINE",
"677 424 LINE"
);
},
{
closed = 1;
nodes = (
"133 752 LINE",
"133 93 LINE",
"23 93 LINE",
"23 0 LINE",
"345 0 LINE",
"345 93 LINE",
"235 93 LINE",
"235 752 LINE"
);
},
{
closed = 1;
nodes = (
"643 752 LINE",
"643 93 LINE",
"533 93 LINE",
"533 0 LINE",
"855 0 LINE",
"855 93 LINE",
"745 93 LINE",
"745 752 LINE"
);
}
);
width = 878;
},
{
anchors = (
{
name = bottom;
position = "{444, 0}";
},
{
name = top;
position = "{444, 732}";
}
);
associatedMasterId = "2C5E45D0-97E8-45AA-A5B2-946753DF54E1";
layerId = "BF2BF44C-F7D7-461D-9497-80A6D4506886";
name = "[98]";
paths = (
{
closed = 1;
nodes = (
"196 424 LINE",
"196 334 LINE",
"682 334 LINE",
"682 424 LINE"
);
},
{
closed = 1;
nodes = (
"138 659 LINE",
"138 93 LINE",
"28 93 LINE",
"28 0 LINE",
"350 0 LINE",
"350 93 LINE",
"240 93 LINE",
"240 659 LINE",
"350 659 LINE",
"350 752 LINE",
"28 752 LINE",
"28 659 LINE"
);
},
{
closed = 1;
nodes = (
"648 659 LINE",
"648 93 LINE",
"538 93 LINE",
"538 0 LINE",
"860 0 LINE",
"860 93 LINE",
"750 93 LINE",
"750 659 LINE",
"860 659 LINE",
"860 752 LINE",
"538 752 LINE",
"538 659 LINE"
);
},
{
closed = 1;
nodes = (
"200 581 LINE",
"28 581 LINE",
"28 491 LINE",
"200 491 LINE"
);
},
{
closed = 1;
nodes = (
"700 491 LINE",
"860 491 LINE",
"860 581 LINE",
"700 581 LINE"
);
}
);
width = 888;
},
{
associatedMasterId = "BE4E587A-F76C-447B-AA28-A45E40876AAF";
components = (
{
name = H;
}
);
layerId = "72445A26-9631-4F42-ACC4-6356C4616E5A";
name = "Feb 18 18, 21:24";
paths = (
{
closed = 1;
nodes = (
"16 479 LINE",
"16 302 LINE",
"850 302 LINE",
"850 479 LINE"
);
}
);
width = 866;
},
{
associatedMasterId = "BE4E587A-F76C-447B-AA28-A45E40876AAF";
components = (
{
name = H;
},
{
name = strokelongcomb;
transform = "{1, 0, 0, 1, -11, 0}";
}
);
layerId = "8FF3BFE3-584D-4E09-979B-9DB0D03D5F3A";
name = "May 8 18, 14:06";
width = 876;
},
{
associatedMasterId = "BE4E587A-F76C-447B-AA28-A45E40876AAF";
components = (
{
name = H;
},
{
name = strokelongcomb;
transform = "{1, 0, 0, 1, -11, 0}";
}
);
layerId = "EE920400-D481-4FEF-92F8-B9921147286D";
name = "]120off]";
width = 876;
},
{
anchors = (
{
name = bottom;
position = "{438, 0}";
},
{
name = top;
position = "{438, 772}";
}
);
associatedMasterId = "BE4E587A-F76C-447B-AA28-A45E40876AAF";
layerId = "190A2821-1F98-4169-8698-A93EEC990B75";
name = "]120off] May 15 18, 13:30";
paths = (
{
closed = 1;
nodes = (
"205 379 LINE",
"205 246 LINE",
"661 246 LINE",
"661 379 LINE"
);
},
{
closed = 1;
nodes = (
"78 582 LINE",
"78 207 LINE",
"21 207 LINE",
"21 0 LINE",
"393 0 LINE",
"393 207 LINE",
"336 207 LINE",
"336 582 LINE",
"393 582 LINE",
"393 772 LINE",
"21 772 LINE",
"21 582 LINE"
);
},
{
closed = 1;
nodes = (
"540 582 LINE",
"540 207 LINE",
"483 207 LINE",
"483 0 LINE",
"855 0 LINE",
"855 207 LINE",
"798 207 LINE",
"798 582 LINE",
"855 582 LINE",
"855 772 LINE",
"483 772 LINE",
"483 582 LINE"
);
},
{
closed = 1;
nodes = (
"633 555 LINE",
"603 542 LINE",
"267 542 LINE",
"237 555 LINE",
"21 555 LINE",
"21 365 LINE",
"197 365 LINE",
"267 409 LINE",
"603 409 LINE",
"653 365 LINE",
"855 365 LINE",
"855 555 LINE"
);
}
);
width = 876;
},
{
anchors = (
{
name = bottom;
position = "{438, 0}";
},
{
name = top;
position = "{438, 772}";
}
);
associatedMasterId = "BE4E587A-F76C-447B-AA28-A45E40876AAF";
layerId = "A6CF7FF5-25E5-4E69-A76A-93A0C92AC544";
name = "May 17 18, 15:49";
paths = (
{
closed = 1;
nodes = (
"21 707 LINE",
"21 530 LINE",
"855 530 LINE",
"855 707 LINE"
);
},
{
closed = 1;
nodes = (
"205 482 LINE",
"205 305 LINE",
"661 305 LINE",
"661 482 LINE"
);
},
{
closed = 1;
nodes = (
"78 772 LINE",
"78 207 LINE",
"21 207 LINE",
"21 0 LINE",
"393 0 LINE",
"393 207 LINE",
"336 207 LINE",
"336 772 LINE"
);
},
{
closed = 1;
nodes = (
"540 772 LINE",
"540 207 LINE",
"483 207 LINE",
"483 0 LINE",
"855 0 LINE",
"855 207 LINE",
"798 207 LINE",
"798 772 LINE"
);
}
);
width = 876;
},
{
anchors = (
{
name = bottom;
position = "{438, 0}";
},
{
name = top;
position = "{438, 772}";
}
);
associatedMasterId = "BE4E587A-F76C-447B-AA28-A45E40876AAF";
layerId = "9B131272-9A88-4CDE-B9D6-68C30C6BC0DC";
name = "Jun 10 18, 19:43";
paths = (
{
closed = 1;
nodes = (
"205 477 LINE",
"205 300 LINE",
"661 300 LINE",
"661 477 LINE"
);
},
{
closed = 1;
nodes = (
"78 582 LINE",
"78 207 LINE",
"21 207 LINE",
"21 0 LINE",
"393 0 LINE",
"393 207 LINE",
"336 207 LINE",
"336 582 LINE",
"393 582 LINE",
"393 772 LINE",
"21 772 LINE",
"21 582 LINE"
);
},
{
closed = 1;
nodes = (
"540 582 LINE",
"540 207 LINE",
"483 207 LINE",
"483 0 LINE",
"855 0 LINE",
"855 207 LINE",
"798 207 LINE",
"798 582 LINE",
"855 582 LINE",
"855 772 LINE",
"483 772 LINE",
"483 582 LINE"
);
},
{
closed = 1;
nodes = (
"175 548 LINE",
"21 548 LINE",
"21 364 LINE",
"175 364 LINE"
);
},
{
closed = 1;
nodes = (
"715 364 LINE",
"855 364 LINE",
"855 548 LINE",
"715 548 LINE"
);
}
);
width = 876;
},
{
associatedMasterId = "BE4E587A-F76C-447B-AA28-A45E40876AAF";
components = (
{
name = H;
}
);
layerId = "2EADE2A4-2003-464B-9A8D-03D18BD6AF6F";
name = "]98]";
paths = (
{
closed = 1;
nodes = (
"21 538 LINE",
"21 502 LINE",
"855 502 LINE",
"855 538 LINE"
);
}
);
width = 876;
},
{
anchors = (
{
name = bottom;
position = "{438, 0}";
},
{
name = top;
position = "{438, 772}";
}
);
layerId = "BE4E587A-F76C-447B-AA28-A45E40876AAF";
paths = (
{
closed = 1;
nodes = (
"205 477 LINE",
"205 300 LINE",
"661 300 LINE",
"661 477 LINE"
);
},
{
closed = 1;
nodes = (
"78 582 LINE",
"78 207 LINE",
"21 207 LINE",
"21 0 LINE",
"393 0 LINE",
"393 207 LINE",
"336 207 LINE",
"336 582 LINE",
"393 582 LINE",
"393 772 LINE",
"21 772 LINE",
"21 582 LINE"
);
},
{
closed = 1;
nodes = (
"540 582 LINE",
"540 207 LINE",
"483 207 LINE",
"483 0 LINE",
"855 0 LINE",
"855 207 LINE",
"798 207 LINE",
"798 582 LINE",
"855 582 LINE",
"855 772 LINE",
"483 772 LINE",
"483 582 LINE"
);
},
{
closed = 1;
nodes = (
"175 548 LINE",
"21 548 LINE",
"21 364 LINE",
"175 364 LINE"
);
},
{
closed = 1;
nodes = (
"715 364 LINE",
"855 364 LINE",
"855 548 LINE",
"715 548 LINE"
);
}
);
width = 876;
},
{
anchors = (
{
name = bottom;
position = "{461, 0}";
},
{
name = top;
position = "{461, 732}";
}
);
associatedMasterId = "A59F1195-5331-40FD-8BD6-3900E1073F61";
layerId = "8D284C77-267F-4575-A07B-9388D98EF797";
name = "[98]";
paths = (
{
closed = 1;
nodes = (
"183 391 LINE",
"183 368 LINE",
"736 368 LINE",
"736 391 LINE"
);
},
{
closed = 1;
nodes = (
"170 729 LINE",
"170 23 LINE",
"29 23 LINE",
"29 0 LINE",
"335 0 LINE",
"335 23 LINE",
"194 23 LINE",
"194 729 LINE",
"335 729 LINE",
"335 752 LINE",
"29 752 LINE",
"29 729 LINE"
);
},
{
closed = 1;
nodes = (
"728 729 LINE",
"728 23 LINE",
"587 23 LINE",
"587 0 LINE",
"892 0 LINE",
"892 23 LINE",
"752 23 LINE",
"752 729 LINE",
"892 729 LINE",
"892 752 LINE",
"587 752 LINE",
"587 729 LINE"
);
},
{
closed = 1;
nodes = (
"183 575 LINE",
"27 575 LINE",
"27 552 LINE",
"183 552 LINE"
);
},
{
closed = 1;
nodes = (
"743 552 LINE",
"890 552 LINE",
"890 575 LINE",
"743 575 LINE"
);
}
);
width = 919;
},
{
anchors = (
{
name = bottom;
position = "{471, 0}";
},
{
name = top;
position = "{470, 732}";
}
);
associatedMasterId = "67AEAADB-8447-4819-9D92-8BB76BD22042";
layerId = "79B48571-8764-4E14-BA92-FD5B4C8E22F0";
name = "[98]";
paths = (
{
closed = 1;
nodes = (
"185 382 LINE",
"185 377 LINE",
"755 377 LINE",
"755 382 LINE"
);
},
{
closed = 1;
nodes = (
"183 747 LINE",
"183 5 LINE",
"34 5 LINE",
"34 0 LINE",
"336 0 LINE",
"336 5 LINE",
"188 5 LINE",
"188 747 LINE",
"336 747 LINE",
"336 752 LINE",
"34 752 LINE",
"34 747 LINE"
);
},
{
closed = 1;
nodes = (
"754 747 LINE",
"754 5 LINE",
"605 5 LINE",
"605 0 LINE",
"907 0 LINE",
"907 5 LINE",
"759 5 LINE",
"759 747 LINE",
"907 747 LINE",
"907 752 LINE",
"605 752 LINE",
"605 747 LINE"
);
},
{
closed = 1;
nodes = (
"184 570 LINE",
"27 570 LINE",
"27 565 LINE",
"184 565 LINE"
);
},
{
closed = 1;
nodes = (
"757 565 LINE",
"900 565 LINE",
"900 570 LINE",
"757 570 LINE"
);
}
);
width = 934;
},
{
associatedMasterId = "2C5E45D0-97E8-45AA-A5B2-946753DF54E1";
components = (
{
name = H;
}
);
layerId = "96A43251-B558-456F-B785-8734A6DA6F88";
name = "Jun 22 18, 10:41";
paths = (
{
closed = 1;
nodes = (
"35 571 LINE",
"35 517 LINE",
"843 517 LINE",
"843 571 LINE"
);
}
);
width = 888;
}
);
leftKerningGroup = H;
leftMetricsKey = H;
rightKerningGroup = H;
rightMetricsKey = H;
unicode = 0126;
},
{
glyphname = I;
layers = (
{
anchors = (
{
name = bottom;
position = "{179, 0}";
},
{
name = ogonek;
position = "{330, 0}";
},
{
name = top;
position = "{180, 732}";
}
);
layerId = "67AEAADB-8447-4819-9D92-8BB76BD22042";
paths = (
{
closed = 1;
nodes = (
"176 747 LINE",
"176 5 LINE",
"27 5 LINE",
"27 0 LINE",
"330 0 LINE",
"330 5 LINE",
"181 5 LINE",
"181 747 LINE",
"330 747 LINE",
"330 752 LINE",
"27 752 LINE",
"27 747 LINE"
);
}
);
width = 357;
},
{
anchors = (
{
name = bottom;
position = "{213, 0}";
},
{
name = ogonek;
position = "{393, 0}";
},
{
name = top;
position = "{213, 772}";
}
);
layerId = "BE4E587A-F76C-447B-AA28-A45E40876AAF";
paths = (
{
closed = 1;
nodes = (
"78 565 LINE",
"78 207 LINE",
"21 207 LINE",
"21 0 LINE",
"393 0 LINE",
"393 207 LINE",
"336 207 LINE",
"336 565 LINE",
"393 565 LINE",
"393 772 LINE",
"21 772 LINE",
"21 565 LINE"
);
}
);
width = 414;
},
{
anchors = (
{
name = bottom;
position = "{189, 0}";
},
{
name = ogonek;
position = "{350, 0}";
},
{
name = top;
position = "{189, 732}";
}
);
layerId = "2C5E45D0-97E8-45AA-A5B2-946753DF54E1";
paths = (
{
closed = 1;
nodes = (
"138 659 LINE",
"138 93 LINE",
"28 93 LINE",
"28 0 LINE",
"350 0 LINE",
"350 93 LINE",
"240 93 LINE",
"240 659 LINE",
"350 659 LINE",
"350 752 LINE",
"28 752 LINE",
"28 659 LINE"
);
}
);
width = 378;
},
{
anchors = (
{
name = bottom;
position = "{180, 0}";
},
{
name = ogonek;
position = "{333, 0}";
},
{
name = top;
position = "{181, 732}";
}
);
layerId = "A59F1195-5331-40FD-8BD6-3900E1073F61";
paths = (
{
closed = 1;
nodes = (
"168 729 LINE",
"168 23 LINE",
"27 23 LINE",
"27 0 LINE",
"333 0 LINE",
"333 23 LINE",
"192 23 LINE",
"192 729 LINE",
"333 729 LINE",
"333 752 LINE",
"27 752 LINE",
"27 729 LINE"
);
}
);
width = 360;
}
);
leftKerningGroup = H;
leftMetricsKey = H;
rightKerningGroup = H;
rightMetricsKey = H;
unicode = 0049;
},
{
glyphname = J;
layers = (
{
anchors = (
{
name = bottom;
position = "{234, 0}";
},
{
name = top;
position = "{426, 724}";
}
);
layerId = "67AEAADB-8447-4819-9D92-8BB76BD22042";
leftMetricsKey = "=|F+0";
rightMetricsKey = "=H-18";
paths = (
{
closed = 1;
nodes = (
"364 -7 OFFCURVE",
"437 79 OFFCURVE",
"437 237 CURVE SMOOTH",
"437 747 LINE",
"586 747 LINE",
"586 752 LINE",
"254 752 LINE",
"254 747 LINE",
"432 747 LINE",
"432 237 LINE SMOOTH",
"432 81 OFFCURVE",
"361 -2 OFFCURVE",
"228 -2 CURVE SMOOTH",
"96 -2 OFFCURVE",
"30 82 OFFCURVE",
"30 237 CURVE SMOOTH",
"30 280 LINE",
"25 280 LINE",
"25 237 LINE SMOOTH",
"25 79 OFFCURVE",
"93 -7 OFFCURVE",
"228 -7 CURVE SMOOTH"
);
}
);
width = 595;
},
{
anchors = (
{
name = bottom;
position = "{311, 0}";
},
{
name = top;
position = "{460, 772}";
}
);
layerId = "BE4E587A-F76C-447B-AA28-A45E40876AAF";
leftMetricsKey = "=|F";
rightMetricsKey = "=H-6";
paths = (
{
closed = 1;
nodes = (
"506 -10 OFFCURVE",
"595 106 OFFCURVE",
"595 280 CURVE SMOOTH",
"595 565 LINE",
"652 565 LINE",
"652 772 LINE",
"248 772 LINE",
"248 565 LINE",
"336 565 LINE",
"336 281 LINE SMOOTH",
"336 252 OFFCURVE",
"326 233 OFFCURVE",
"302 233 CURVE SMOOTH",
"278 233 OFFCURVE",
"267 252 OFFCURVE",
"267 281 CURVE SMOOTH",
"267 314 LINE",
"9 314 LINE",
"9 281 LINE SMOOTH",
"9 99 OFFCURVE",
"95 -10 OFFCURVE",
"302 -10 CURVE SMOOTH"
);
}
);
width = 667;
},
{
anchors = (
{
name = bottom;
position = "{304, 0}";
},
{
name = top;
position = "{432, 732}";
}
);
layerId = "2C5E45D0-97E8-45AA-A5B2-946753DF54E1";
leftMetricsKey = "=|F";
rightMetricsKey = "=H-13";
paths = (
{
closed = 1;
nodes = (
"412 -10 OFFCURVE",
"485 85 OFFCURVE",
"485 238 CURVE SMOOTH",
"485 659 LINE",
"595 659 LINE",
"595 752 LINE",
"253 752 LINE",
"253 659 LINE",
"383 659 LINE",
"383 239 LINE SMOOTH",
"383 138 OFFCURVE",
"338 90 OFFCURVE",
"253 90 CURVE SMOOTH",
"168 90 OFFCURVE",
"124 140 OFFCURVE",
"124 239 CURVE SMOOTH",
"124 295 LINE",
"22 295 LINE",
"22 239 LINE SMOOTH",
"22 80 OFFCURVE",
"91 -10 OFFCURVE",
"254 -10 CURVE SMOOTH"
);
}
);
width = 610;
},
{
anchors = (
{
name = bottom;
position = "{247, 0}";
},
{
name = top;
position = "{426, 726}";
}
);
layerId = "A59F1195-5331-40FD-8BD6-3900E1073F61";
leftMetricsKey = "=|F+0";
rightMetricsKey = "=H-17";
paths = (
{
closed = 1;
nodes = (
"372 -8 OFFCURVE",
"445 80 OFFCURVE",
"445 237 CURVE SMOOTH",
"445 729 LINE",
"587 729 LINE",
"587 752 LINE",
"253 752 LINE",
"253 729 LINE",
"421 729 LINE",
"421 237 LINE SMOOTH",
"421 93 OFFCURVE",
"355 17 OFFCURVE",
"232 17 CURVE SMOOTH",
"110 17 OFFCURVE",
"48 94 OFFCURVE",
"48 237 CURVE SMOOTH",
"48 283 LINE",
"24 283 LINE",
"24 237 LINE SMOOTH",
"24 79 OFFCURVE",
"93 -8 OFFCURVE",
"232 -8 CURVE SMOOTH"
);
}
);
width = 597;
},
{
anchors = (
{
name = bottom;
position = "{281, 0}";
},
{
name = top;
position = "{391, 732}";
}
);
associatedMasterId = "2C5E45D0-97E8-45AA-A5B2-946753DF54E1";
layerId = "5B6F99B9-E5A5-4882-98DE-8503DE41C8F3";
leftMetricsKey = "=|F";
rightMetricsKey = "=H-16";
name = "May 24 18, 14:12";
paths = (
{
closed = 1;
nodes = (
"378 -10 OFFCURVE",
"444 81 OFFCURVE",
"444 226 CURVE SMOOTH",
"444 659 LINE",
"554 659 LINE",
"554 752 LINE",
"210 752 LINE",
"210 659 LINE",
"342 659 LINE",
"342 227 LINE SMOOTH",
"342 134 OFFCURVE",
"304 90 OFFCURVE",
"231 90 CURVE SMOOTH",
"158 90 OFFCURVE",
"120 136 OFFCURVE",
"120 227 CURVE SMOOTH",
"120 280 LINE",
"18 280 LINE",
"18 227 LINE SMOOTH",
"18 75 OFFCURVE",
"81 -10 OFFCURVE",
"232 -10 CURVE SMOOTH"
);
}
);
width = 562;
}
);
leftKerningGroup = J;
rightKerningGroup = J;
unicode = 004A;
},
{
glyphname = K;
layers = (
{
anchors = (
{
name = bottom;
position = "{442, 0}";
},
{
name = top;
position = "{442, 732}";
}
);
layerId = "67AEAADB-8447-4819-9D92-8BB76BD22042";
paths = (
{
closed = 1;
nodes = (
"176 747 LINE",
"176 5 LINE",
"27 5 LINE",
"27 0 LINE",
"330 0 LINE",
"330 5 LINE",
"181 5 LINE",
"181 747 LINE",
"330 747 LINE",
"330 752 LINE",
"27 752 LINE",
"27 747 LINE"
);
},
{
closed = 1;
nodes = (
"421 448 LINE",
"798 5 LINE",
"557 5 LINE",
"557 0 LINE",
"871 0 LINE",
"871 5 LINE",
"804 5 LINE",
"426 450 LINE"
);
},
{
closed = 1;
nodes = (
"179 219 LINE",
"749 747 LINE",
"839 747 LINE",
"839 752 LINE",
"506 752 LINE",
"506 747 LINE",
"742 747 LINE",
"177 224 LINE"
);
}
);
width = 890;
},
{
anchors = (
{
name = bottom;
position = "{462, 0}";
},
{
name = top;
position = "{462, 772}";
}
);
layerId = "BE4E587A-F76C-447B-AA28-A45E40876AAF";
paths = (
{
closed = 1;
nodes = (
"76 565 LINE",
"76 207 LINE",
"21 207 LINE",
"21 0 LINE",
"389 0 LINE",
"389 207 LINE",
"334 207 LINE",
"334 565 LINE",
"389 565 LINE",
"389 772 LINE",
"21 772 LINE",
"21 565 LINE"
);
},
{
closed = 1;
nodes = (
"422 385 LINE",
"559 207 LINE",
"471 207 LINE",
"471 0 LINE",
"929 0 LINE",
"929 207 LINE",
"876 207 LINE",
"638 483 LINE"
);
},
{
closed = 1;
nodes = (
"315 211 LINE",
"844 565 LINE",
"904 565 LINE",
"904 772 LINE",
"445 772 LINE",
"445 565 LINE",
"519 565 LINE",
"219 354 LINE"
);
}
);
width = 942;
},
{
anchors = (
{
name = bottom;
position = "{427, 0}";
},
{
name = top;
position = "{427, 732}";
}
);
layerId = "2C5E45D0-97E8-45AA-A5B2-946753DF54E1";
paths = (
{
closed = 1;
nodes = (
"138 659 LINE",
"138 93 LINE",
"28 93 LINE",
"28 0 LINE",
"350 0 LINE",
"350 93 LINE",
"240 93 LINE",
"240 659 LINE",
"350 659 LINE",
"350 752 LINE",
"28 752 LINE",
"28 659 LINE"
);
},
{
closed = 1;
nodes = (
"369 385 LINE",
"624 93 LINE",
"428 93 LINE",
"428 0 LINE",
"863 0 LINE",
"863 93 LINE",
"753 93 LINE",
"427 463 LINE"
);
},
{
closed = 1;
nodes = (
"217 211 LINE",
"716 659 LINE",
"816 659 LINE",
"816 752 LINE",
"428 752 LINE",
"428 659 LINE",
"586 659 LINE",
"185 295 LINE"
);
}
);
width = 875;
},
{
anchors = (
{
name = bottom;
position = "{438, 0}";
},
{
name = top;
position = "{438, 732}";
}
);
layerId = "A59F1195-5331-40FD-8BD6-3900E1073F61";
paths = (
{
closed = 1;
nodes = (
"168 729 LINE",
"168 23 LINE",
"27 23 LINE",
"27 0 LINE",
"333 0 LINE",
"333 23 LINE",
"192 23 LINE",
"192 729 LINE",
"333 729 LINE",
"333 752 LINE",
"27 752 LINE",
"27 729 LINE"
);
},
{
closed = 1;
nodes = (
"410 435 LINE",
"762 23 LINE",
"517 23 LINE",
"517 0 LINE",
"881 0 LINE",
"881 23 LINE",
"793 23 LINE",
"426 453 LINE"
);
},
{
closed = 1;
nodes = (
"187 217 LINE",
"742 729 LINE",
"846 729 LINE",
"846 752 LINE",
"478 752 LINE",
"478 729 LINE",
"709 729 LINE",
"178 239 LINE"
);
}
);
width = 899;
}
);
leftKerningGroup = H;
leftMetricsKey = H;
rightKerningGroup = K;
rightMetricsKey = A;
unicode = 004B;
},
{
glyphname = Kcommaaccent;
layers = (
{
anchors = (
{
name = _bottom;
position = "{442, 0}";
}
);
components = (
{
name = K;
}
);
layerId = "67AEAADB-8447-4819-9D92-8BB76BD22042";
paths = (
{
closed = 1;
nodes = (
"459 -154 LINE SMOOTH",
"459 -193 OFFCURVE",
"440 -212 OFFCURVE",
"412 -212 CURVE",
"412 -217 LINE",
"443 -217 OFFCURVE",
"464 -196 OFFCURVE",
"464 -154 CURVE SMOOTH",
"464 -83 LINE",
"459 -83 LINE"
);
}
);
width = 890;
},
{
anchors = (
{
name = _bottom;
position = "{427, 0}";
}
);
components = (
{
name = K;
}
);
layerId = "2C5E45D0-97E8-45AA-A5B2-946753DF54E1";
paths = (
{
closed = 1;
nodes = (
"354 -138 LINE",
"461 -138 LINE",
"497 -117 LINE",
"497 -49 LINE",
"354 -49 LINE"
);
},
{
closed = 1;
nodes = (
"454 -122 LINE SMOOTH",
"454 -166 OFFCURVE",
"435 -186 OFFCURVE",
"387 -186 CURVE SMOOTH",
"354 -186 LINE",
"354 -224 LINE",
"387 -224 LINE SMOOTH",
"461 -224 OFFCURVE",
"497 -185 OFFCURVE",
"497 -120 CURVE SMOOTH",
"497 -65 LINE",
"454 -65 LINE"
);
}
);
width = 875;
},
{
anchors = (
{
name = _bottom;
position = "{462, 0}";
}
);
components = (
{
name = K;
}
);
layerId = "BE4E587A-F76C-447B-AA28-A45E40876AAF";
paths = (
{
closed = 1;
nodes = (
"338 -154 LINE",
"515 -154 LINE",
"586 -119 LINE",
"586 -24 LINE",
"338 -24 LINE"
);
},
{
closed = 1;
nodes = (
"483 -152 LINE SMOOTH",
"483 -174 OFFCURVE",
"460 -186 OFFCURVE",
"419 -186 CURVE SMOOTH",
"338 -186 LINE",
"338 -245 LINE",
"419 -245 LINE SMOOTH",
"540 -245 OFFCURVE",
"586 -211 OFFCURVE",
"586 -133 CURVE SMOOTH",
"586 -107 LINE",
"483 -120 LINE"
);
}
);
width = 942;
},
{
anchors = (
{
name = _bottom;
position = "{438, 0}";
}
);
components = (
{
name = K;
}
);
layerId = "A59F1195-5331-40FD-8BD6-3900E1073F61";
paths = (
{
closed = 1;
nodes = (
"436 -144 LINE SMOOTH",
"436 -180 OFFCURVE",
"419 -196 OFFCURVE",
"391 -196 CURVE",
"391 -218 LINE",
"433 -218 OFFCURVE",
"460 -193 OFFCURVE",
"460 -144 CURVE SMOOTH",
"460 -80 LINE",
"436 -80 LINE"
);
}
);
width = 899;
},
{
anchors = (
{
name = _bottom;
position = "{442, 0}";
}
);
associatedMasterId = "67AEAADB-8447-4819-9D92-8BB76BD22042";
components = (
{
name = K;
}
);
layerId = "37FEC411-A28D-4F4F-B1FE-490785849526";
name = "[24]";
paths = (
{
closed = 1;
nodes = (
"435 -121 LINE",
"451 -121 LINE",
"454 -110 LINE",
"454 -102 LINE",
"435 -102 LINE"
);
},
{
closed = 1;
nodes = (
"449 -137 LINE SMOOTH",
"449 -147 OFFCURVE",
"443 -152 OFFCURVE",
"436 -152 CURVE SMOOTH",
"435 -152 LINE",
"435 -157 LINE",
"436 -157 LINE SMOOTH",
"446 -157 OFFCURVE",
"454 -150 OFFCURVE",
"454 -137 CURVE SMOOTH",
"454 -104 LINE",
"449 -104 LINE"
);
}
);
width = 890;
},
{
anchors = (
{
name = _bottom;
position = "{438, 0}";
}
);
associatedMasterId = "A59F1195-5331-40FD-8BD6-3900E1073F61";
components = (
{
name = K;
}
);
layerId = "AA64752F-93EE-432D-BCDF-34D0229EE784";
name = "Light [24]";
paths = (
{
closed = 1;
nodes = (
"405 -146 LINE",
"434 -146 LINE",
"447 -125 LINE",
"447 -94 LINE",
"405 -94 LINE"
);
},
{
closed = 1;
nodes = (
"433 -176 LINE SMOOTH",
"433 -195 OFFCURVE",
"422 -204 OFFCURVE",
"405 -204 CURVE SMOOTH",
"404 -204 LINE",
"404 -217 LINE",
"405 -217 LINE SMOOTH",
"430 -217 OFFCURVE",
"447 -204 OFFCURVE",
"447 -176 CURVE SMOOTH",
"447 -94 LINE",
"433 -94 LINE"
);
}
);
width = 899;
},
{
anchors = (
{
name = _bottom;
position = "{427, 0}";
}
);
associatedMasterId = "2C5E45D0-97E8-45AA-A5B2-946753DF54E1";
components = (
{
name = K;
}
);
layerId = "24910A21-E3C3-4C91-8A1E-53FB77A0DAB2";
name = "Regular ]24]";
paths = (
{
closed = 1;
nodes = (
"406 -105 LINE SMOOTH",
"406 -128 OFFCURVE",
"395 -136 OFFCURVE",
"370 -136 CURVE",
"370 -220 LINE",
"451 -220 OFFCURVE",
"504 -181 OFFCURVE",
"504 -105 CURVE SMOOTH",
"504 -69 LINE",
"406 -69 LINE"
);
}
);
width = 875;
},
{
anchors = (
{
name = _bottom;
position = "{462, 0}";
}
);
associatedMasterId = "BE4E587A-F76C-447B-AA28-A45E40876AAF";
components = (
{
name = K;
}
);
layerId = "D8CDC71B-A2E2-4520-9AD4-579AA5AE8B4A";
name = "]24]";
paths = (
{
closed = 1;
nodes = (
"410 -112 LINE SMOOTH",
"410 -128 OFFCURVE",
"401 -137 OFFCURVE",
"386 -137 CURVE",
"386 -245 LINE",
"532 -245 OFFCURVE",
"587 -205 OFFCURVE",
"587 -112 CURVE SMOOTH",
"587 -56 LINE",
"410 -56 LINE"
);
}
);
width = 942;
}
);
leftKerningGroup = H;
rightKerningGroup = K;
unicode = 0136;
},
{
glyphname = L;
layers = (
{
anchors = (
{
name = bottom;
position = "{356, 0}";
},
{
name = right;
position = "{368, 369}";
},
{
name = top;
position = "{182, 732}";
}
);
layerId = "67AEAADB-8447-4819-9D92-8BB76BD22042";
paths = (
{
closed = 1;
nodes = (
"176 747 LINE",
"176 5 LINE",
"27 5 LINE",
"27 0 LINE",
"633 0 LINE",
"633 5 LINE",
"181 5 LINE",
"181 747 LINE",
"330 747 LINE",
"330 752 LINE",
"27 752 LINE",
"27 747 LINE"
);
},
{
closed = 1;
nodes = (
"630 230 LINE",
"630 0 LINE",
"635 0 LINE",
"635 230 LINE"
);
}
);
width = 660;
},
{
anchors = (
{
name = bottom;
position = "{393, 0}";
},
{
name = right;
position = "{539, 561}";
},
{
name = top;
position = "{221, 772}";
}
);
layerId = "BE4E587A-F76C-447B-AA28-A45E40876AAF";
paths = (
{
closed = 1;
nodes = (
"78 565 LINE",
"78 207 LINE",
"21 207 LINE",
"21 0 LINE",
"578 0 LINE",
"578 207 LINE",
"336 207 LINE",
"336 565 LINE",
"393 565 LINE",
"393 772 LINE",
"21 772 LINE",
"21 565 LINE"
);
},
{
closed = 1;
nodes = (
"490 360 LINE",
"490 0 LINE",
"748 0 LINE",
"748 360 LINE"
);
}
);
width = 757;
},
{
anchors = (
{
name = bottom;
position = "{345, 0}";
},
{
name = right;
position = "{355, 498}";
},
{
name = top;
position = "{200, 732}";
}
);
layerId = "2C5E45D0-97E8-45AA-A5B2-946753DF54E1";
paths = (
{
closed = 1;
nodes = (
"138 659 LINE",
"138 93 LINE",
"28 93 LINE",
"28 0 LINE",
"585 0 LINE",
"585 93 LINE",
"240 93 LINE",
"240 659 LINE",
"355 659 LINE",
"355 752 LINE",
"28 752 LINE",
"28 659 LINE"
);
},
{
closed = 1;
nodes = (
"545 253 LINE",
"545 0 LINE",
"647 0 LINE",
"647 253 LINE"
);
}
);
width = 669;
},
{
anchors = (
{
name = bottom;
position = "{353, 0}";
},
{
name = right;
position = "{365, 395}";
},
{
name = top;
position = "{185, 732}";
}
);
layerId = "A59F1195-5331-40FD-8BD6-3900E1073F61";
paths = (
{
closed = 1;
nodes = (
"168 729 LINE",
"168 23 LINE",
"27 23 LINE",
"27 0 LINE",
"623 0 LINE",
"623 23 LINE",
"192 23 LINE",
"192 729 LINE",
"335 729 LINE",
"335 752 LINE",
"27 752 LINE",
"27 729 LINE"
);
},
{
closed = 1;
nodes = (
"612 247 LINE",
"612 0 LINE",
"637 0 LINE",
"637 247 LINE"
);
}
);
width = 661;
},
{
anchors = (
{
name = bottom;
position = "{393, 0}";
},
{
name = right;
position = "{539, 561}";
},
{
name = top;
position = "{221, 772}";
}
);
associatedMasterId = "BE4E587A-F76C-447B-AA28-A45E40876AAF";
layerId = "61D133C1-9D36-4CB1-9E72-14AC179B27D5";
name = "Jun 5 18, 11:06";
paths = (
{
closed = 1;
nodes = (
"78 565 LINE",
"78 207 LINE",
"21 207 LINE",
"21 0 LINE",
"533 0 LINE",
"533 207 LINE",
"336 207 LINE",
"336 565 LINE",
"393 565 LINE",
"393 772 LINE",
"21 772 LINE",
"21 565 LINE"
);
},
{
closed = 1;
nodes = (
"445 280 LINE",
"445 0 LINE",
"703 0 LINE",
"703 280 LINE"
);
}
);
width = 712;
}
);
leftKerningGroup = H;
leftMetricsKey = H;
rightKerningGroup = L;
rightMetricsKey = F;
unicode = 004C;
},
{
glyphname = Lcommaaccent;
layers = (
{
anchors = (
{
name = _bottom;
position = "{356, 0}";
}
);
components = (
{
name = L;
}
);
layerId = "67AEAADB-8447-4819-9D92-8BB76BD22042";
paths = (
{
closed = 1;
nodes = (
"373 -154 LINE SMOOTH",
"373 -193 OFFCURVE",
"354 -212 OFFCURVE",
"326 -212 CURVE",
"326 -217 LINE",
"357 -217 OFFCURVE",
"378 -196 OFFCURVE",
"378 -154 CURVE SMOOTH",
"378 -83 LINE",
"373 -83 LINE"
);
}
);
width = 660;
},
{
anchors = (
{
name = _bottom;
position = "{345, 0}";
}
);
components = (
{
name = L;
}
);
layerId = "2C5E45D0-97E8-45AA-A5B2-946753DF54E1";
paths = (
{
closed = 1;
nodes = (
"272 -138 LINE",
"379 -138 LINE",
"415 -117 LINE",
"415 -49 LINE",
"272 -49 LINE"
);
},
{
closed = 1;
nodes = (
"372 -122 LINE SMOOTH",
"372 -166 OFFCURVE",
"353 -186 OFFCURVE",
"305 -186 CURVE SMOOTH",
"272 -186 LINE",
"272 -224 LINE",
"305 -224 LINE SMOOTH",
"379 -224 OFFCURVE",
"415 -185 OFFCURVE",
"415 -120 CURVE SMOOTH",
"415 -65 LINE",
"372 -65 LINE"
);
}
);
width = 669;
},
{
anchors = (
{
name = _bottom;
position = "{393, 0}";
}
);
components = (
{
name = L;
}
);
layerId = "BE4E587A-F76C-447B-AA28-A45E40876AAF";
paths = (
{
closed = 1;
nodes = (
"269 -154 LINE",
"446 -154 LINE",
"517 -119 LINE",
"517 -24 LINE",
"269 -24 LINE"
);
},
{
closed = 1;
nodes = (
"414 -152 LINE SMOOTH",
"414 -174 OFFCURVE",
"391 -186 OFFCURVE",
"350 -186 CURVE SMOOTH",
"269 -186 LINE",
"269 -245 LINE",
"350 -245 LINE SMOOTH",
"471 -245 OFFCURVE",
"517 -211 OFFCURVE",
"517 -133 CURVE SMOOTH",
"517 -107 LINE",
"414 -120 LINE"
);
}
);
width = 757;
},
{
anchors = (
{
name = _bottom;
position = "{353, 0}";
}
);
components = (
{
name = L;
}
);
layerId = "A59F1195-5331-40FD-8BD6-3900E1073F61";
paths = (
{
closed = 1;
nodes = (
"351 -144 LINE SMOOTH",
"351 -180 OFFCURVE",
"334 -196 OFFCURVE",
"306 -196 CURVE",
"306 -218 LINE",
"348 -218 OFFCURVE",
"375 -193 OFFCURVE",
"375 -144 CURVE SMOOTH",
"375 -80 LINE",
"351 -80 LINE"
);
}
);
width = 661;
},
{
anchors = (
{
name = _bottom;
position = "{356, 0}";
}
);
associatedMasterId = "67AEAADB-8447-4819-9D92-8BB76BD22042";
components = (
{
name = L;
}
);
layerId = "7F242B66-ACF6-4224-9792-03B35128DDC1";
name = "[24]";
paths = (
{
closed = 1;
nodes = (
"349 -121 LINE",
"365 -121 LINE",
"368 -110 LINE",
"368 -102 LINE",
"349 -102 LINE"
);
},
{
closed = 1;
nodes = (
"363 -137 LINE SMOOTH",
"363 -147 OFFCURVE",
"357 -152 OFFCURVE",
"350 -152 CURVE SMOOTH",
"349 -152 LINE",
"349 -157 LINE",
"350 -157 LINE SMOOTH",
"360 -157 OFFCURVE",
"368 -150 OFFCURVE",
"368 -137 CURVE SMOOTH",
"368 -104 LINE",
"363 -104 LINE"
);
}
);
width = 660;
},
{
anchors = (
{
name = _bottom;
position = "{353, 0}";
}
);
associatedMasterId = "A59F1195-5331-40FD-8BD6-3900E1073F61";
components = (
{
name = L;
}
);
layerId = "58764557-B0B2-487A-9ED4-DDB5FE33BE80";
name = "Light [24]";
paths = (
{
closed = 1;
nodes = (
"320 -146 LINE",
"349 -146 LINE",
"362 -125 LINE",
"362 -94 LINE",
"320 -94 LINE"
);
},
{
closed = 1;
nodes = (
"348 -176 LINE SMOOTH",
"348 -195 OFFCURVE",
"337 -204 OFFCURVE",
"320 -204 CURVE SMOOTH",
"319 -204 LINE",
"319 -217 LINE",
"320 -217 LINE SMOOTH",
"345 -217 OFFCURVE",
"362 -204 OFFCURVE",
"362 -176 CURVE SMOOTH",
"362 -94 LINE",
"348 -94 LINE"
);
}
);
width = 661;
},
{
anchors = (
{
name = _bottom;
position = "{345, 0}";
}
);
associatedMasterId = "2C5E45D0-97E8-45AA-A5B2-946753DF54E1";
components = (
{
name = L;
}
);
layerId = "5D1EC457-C684-4133-92C3-B0A5D5C29730";
name = "Regular ]24]";
paths = (
{
closed = 1;
nodes = (
"324 -105 LINE SMOOTH",
"324 -128 OFFCURVE",
"313 -136 OFFCURVE",
"288 -136 CURVE",
"288 -220 LINE",
"369 -220 OFFCURVE",
"422 -181 OFFCURVE",
"422 -105 CURVE SMOOTH",
"422 -69 LINE",
"324 -69 LINE"
);
}
);
width = 669;
},
{
anchors = (
{
name = _bottom;
position = "{393, 0}";
}
);
associatedMasterId = "BE4E587A-F76C-447B-AA28-A45E40876AAF";
components = (
{
name = L;
}
);
layerId = "4F4A28D1-0400-4B3D-86E9-5C5F350F4EA6";
name = "]24]";
paths = (
{
closed = 1;
nodes = (
"341 -112 LINE SMOOTH",
"341 -128 OFFCURVE",
"332 -137 OFFCURVE",
"317 -137 CURVE",
"317 -245 LINE",
"463 -245 OFFCURVE",
"518 -205 OFFCURVE",
"518 -112 CURVE SMOOTH",
"518 -56 LINE",
"341 -56 LINE"
);
}
);
width = 757;
}
);
leftKerningGroup = H;
rightKerningGroup = L;
unicode = 013B;
},
{
glyphname = Lslash;
layers = (
{
components = (
{
name = L;
}
);
layerId = "67AEAADB-8447-4819-9D92-8BB76BD22042";
paths = (
{
closed = 1;
nodes = (
"399 452 LINE",
"397 456 LINE",
"31 266 LINE",
"33 262 LINE"
);
}
);
width = 660;
},
{
associatedMasterId = "2C5E45D0-97E8-45AA-A5B2-946753DF54E1";
components = (
{
name = L;
},
{
name = strokelongcomb;
transform = "{0.45255, 0.45255, -0.70711, 0.70711, 393, -212}";
}
);
layerId = "A2538A51-25BE-4E98-A8E2-2273BA3536FF";
name = "Jan 4 18, 18:02";
width = 669;
},
{
components = (
{
name = L;
transform = "{1, 0, 0, 1, 20, 0}";
}
);
layerId = "2C5E45D0-97E8-45AA-A5B2-946753DF54E1";
paths = (
{
closed = 1;
nodes = (
"442 423 LINE",
"404 503 LINE",
"28 317 LINE",
"66 236 LINE"
);
}
);
width = 689;
},
{
anchors = (
{
name = bottom;
position = "{393, 0}";
},
{
name = right;
position = "{539, 561}";
},
{
name = top;
position = "{221, 772}";
}
);
associatedMasterId = "BE4E587A-F76C-447B-AA28-A45E40876AAF";
layerId = "500B5071-8530-492A-B473-5BF429AB32BE";
name = "May 4 18, 19:22";
paths = (
{
closed = 1;
nodes = (
"578 603 LINE",
"485 764 LINE",
"-81 430 LINE",
"12 269 LINE"
);
},
{
closed = 1;
nodes = (
"78 772 LINE",
"78 207 LINE",
"21 207 LINE",
"21 0 LINE",
"578 0 LINE",
"578 207 LINE",
"336 207 LINE",
"336 772 LINE"
);
},
{
closed = 1;
nodes = (
"490 368 LINE",
"490 0 LINE",
"748 0 LINE",
"748 368 LINE"
);
}
);
width = 757;
},
{
anchors = (
{
name = bottom;
position = "{393, 0}";
},
{
name = right;
position = "{539, 561}";
},
{
name = top;
position = "{221, 772}";
}
);
associatedMasterId = "BE4E587A-F76C-447B-AA28-A45E40876AAF";
layerId = "DCAE03A2-1763-4ADF-9DF8-BC674AEF549D";
name = "May 6 18, 23:21";
paths = (
{
closed = 1;
nodes = (
"447 374 LINE",
"447 560 LINE",
"21 419 LINE",
"21 233 LINE"
);
},
{
closed = 1;
nodes = (
"78 565 LINE",
"78 207 LINE",
"21 207 LINE",
"21 0 LINE",
"578 0 LINE",
"578 207 LINE",
"336 207 LINE",
"336 565 LINE",
"393 565 LINE",
"393 772 LINE",
"21 772 LINE",
"21 565 LINE"
);
},
{
closed = 1;
nodes = (
"490 368 LINE",
"490 0 LINE",
"748 0 LINE",
"748 368 LINE"
);
}
);
width = 757;
},
{
associatedMasterId = "BE4E587A-F76C-447B-AA28-A45E40876AAF";
components = (
{
name = L;
},
{
name = slashshortcomb;
transform = "{1, 0, 0, 1, -19, 75}";
}
);
layerId = "3E94BC03-96FC-4E32-88CC-1AE844E43626";
name = "May 8 18, 14:00";
width = 757;
},
{
components = (
{
name = L;
transform = "{1, 0, 0, 1, 36, 0}";
}
);
layerId = "BE4E587A-F76C-447B-AA28-A45E40876AAF";
paths = (
{
closed = 1;
nodes = (
"509 376 LINE",
"457 540 LINE",
"21 407 LINE",
"73 243 LINE"
);
}
);
width = 793;
},
{
components = (
{
alignment = -1;
name = L;
transform = "{1, 0, 0, 1, 1, 0}";
}
);
layerId = "A59F1195-5331-40FD-8BD6-3900E1073F61";
paths = (
{
closed = 1;
nodes = (
"405 446 LINE",
"395 466 LINE",
"27 276 LINE",
"37 257 LINE"
);
}
);
width = 662;
}
);
leftKerningGroup = H;
leftMetricsKey = L;
rightKerningGroup = L;
rightMetricsKey = L;
unicode = 0141;
},
{
color = 9;
glyphname = M;
layers = (
{
anchors = (
{
name = bottom;
position = "{545, 0}";
},
{
name = top;
position = "{545, 732}";
}
);
layerId = "67AEAADB-8447-4819-9D92-8BB76BD22042";
paths = (
{
closed = 1;
nodes = (
"549 0 LINE",
"909 752 LINE",
"903 752 LINE",
"543 0 LINE",
"547 0 LINE",
"187 752 LINE",
"181 752 LINE",
"541 0 LINE"
);
},
{
closed = 1;
nodes = (
"330 0 LINE",
"330 5 LINE",
"181 5 LINE",
"181 747 LINE",
"186 747 LINE",
"186 752 LINE",
"27 752 LINE",
"27 747 LINE",
"176 747 LINE",
"176 5 LINE",
"27 5 LINE",
"27 0 LINE"
);
},
{
closed = 1;
nodes = (
"1063 0 LINE",
"1063 5 LINE",
"914 5 LINE",
"914 747 LINE",
"1063 747 LINE",
"1063 752 LINE",
"904 752 LINE",
"904 747 LINE",
"909 747 LINE",
"909 5 LINE",
"760 5 LINE",
"760 0 LINE"
);
}
);
width = 1090;
},
{
anchors = (
{
name = bottom;
position = "{550, 0}";
},
{
name = top;
position = "{550, 772}";
}
);
layerId = "BE4E587A-F76C-447B-AA28-A45E40876AAF";
paths = (
{
closed = 1;
nodes = (
"625 0 LINE",
"808 772 LINE",
"643 772 LINE",
"551 304 LINE",
"620 296 LINE",
"510 772 LINE",
"242 772 LINE",
"439 0 LINE"
);
},
{
closed = 1;
nodes = (
"334 0 LINE",
"334 207 LINE",
"284 207 LINE",
"284 565 LINE",
"315 565 LINE",
"490 772 LINE",
"21 772 LINE",
"21 565 LINE",
"76 565 LINE",
"76 207 LINE",
"21 207 LINE",
"21 0 LINE"
);
},
{
closed = 1;
nodes = (
"1079 0 LINE",
"1079 207 LINE",
"1024 207 LINE",
"1024 565 LINE",
"1079 565 LINE",
"1079 772 LINE",
"643 772 LINE",
"735 565 LINE",
"766 565 LINE",
"766 207 LINE",
"716 207 LINE",
"716 0 LINE"
);
}
);
width = 1100;
},
{
anchors = (
{
name = bottom;
position = "{525, 0}";
},
{
name = top;
position = "{525, 732}";
}
);
layerId = "2C5E45D0-97E8-45AA-A5B2-946753DF54E1";
paths = (
{
closed = 1;
nodes = (
"572 0 LINE",
"809 665 LINE",
"743 752 LINE",
"513 100 LINE",
"539 100 LINE",
"310 752 LINE",
"236 665 LINE",
"472 0 LINE"
);
},
{
closed = 1;
nodes = (
"350 0 LINE",
"350 93 LINE",
"234 93 LINE",
"234 659 LINE",
"297 659 LINE",
"310 752 LINE",
"28 752 LINE",
"28 659 LINE",
"138 659 LINE",
"138 93 LINE",
"28 93 LINE",
"28 0 LINE"
);
},
{
closed = 1;
nodes = (
"1023 0 LINE",
"1023 93 LINE",
"913 93 LINE",
"913 659 LINE",
"1023 659 LINE",
"1023 752 LINE",
"743 752 LINE",
"740 659 LINE",
"811 659 LINE",
"811 93 LINE",
"691 93 LINE",
"691 0 LINE"
);
}
);
width = 1051;
},
{
associatedMasterId = "2C5E45D0-97E8-45AA-A5B2-946753DF54E1";
layerId = "22FEF5ED-B20E-46B2-9016-5B6A811F902C";
name = "Feb 23 18, 15:39";
paths = (
{
closed = 1;
nodes = (
"603 0 LINE",
"840 665 LINE",
"761 752 LINE",
"544 100 LINE",
"603 143 LINE",
"509 143 LINE",
"569 100 LINE",
"345 752 LINE",
"266 665 LINE",
"503 0 LINE"
);
},
{
closed = 1;
nodes = (
"374 0 LINE",
"374 93 LINE",
"264 93 LINE",
"264 659 LINE",
"333 659 LINE",
"345 752 LINE",
"52 752 LINE",
"52 659 LINE",
"162 659 LINE",
"162 93 LINE",
"52 93 LINE",
"52 0 LINE"
);
},
{
closed = 1;
nodes = (
"1054 0 LINE",
"1054 93 LINE",
"944 93 LINE",
"944 659 LINE",
"1054 659 LINE",
"1054 752 LINE",
"761 752 LINE",
"773 659 LINE",
"842 659 LINE",
"842 93 LINE",
"732 93 LINE",
"732 0 LINE"
);
}
);
width = 1106;
},
{
anchors = (
{
name = bottom;
position = "{541, 0}";
},
{
name = top;
position = "{541, 732}";
}
);
layerId = "A59F1195-5331-40FD-8BD6-3900E1073F61";
paths = (
{
closed = 1;
nodes = (
"550 0 LINE",
"884 734 LINE",
"867 752 LINE",
"534 20 LINE",
"543 20 LINE",
"210 752 LINE",
"192 734 LINE",
"526 0 LINE"
);
},
{
closed = 1;
nodes = (
"334 0 LINE",
"334 23 LINE",
"191 23 LINE",
"191 729 LINE",
"209 729 LINE",
"209 752 LINE",
"27 752 LINE",
"27 729 LINE",
"168 729 LINE",
"168 23 LINE",
"27 23 LINE",
"27 0 LINE"
);
},
{
closed = 1;
nodes = (
"1050 0 LINE",
"1050 23 LINE",
"909 23 LINE",
"909 729 LINE",
"1050 729 LINE",
"1050 752 LINE",
"866 752 LINE",
"866 729 LINE",
"885 729 LINE",
"885 23 LINE",
"742 23 LINE",
"742 0 LINE"
);
}
);
width = 1077;
},
{
anchors = (
{
name = bottom;
position = "{527, 0}";
},
{
name = top;
position = "{527, 732}";
}
);
associatedMasterId = "2C5E45D0-97E8-45AA-A5B2-946753DF54E1";
layerId = "AA452F08-ADEC-4C13-AB32-409FBC2A3EA2";
name = "May 29 18, 15:21";
paths = (
{
closed = 1;
nodes = (
"577 0 LINE",
"814 665 LINE",
"742 752 LINE",
"513 100 LINE",
"541 100 LINE",
"314 752 LINE",
"235 665 LINE",
"469 0 LINE"
);
},
{
closed = 1;
nodes = (
"349 0 LINE",
"349 93 LINE",
"233 93 LINE",
"233 659 LINE",
"299 659 LINE",
"314 752 LINE",
"26 752 LINE",
"26 659 LINE",
"136 659 LINE",
"136 93 LINE",
"26 93 LINE",
"26 0 LINE"
);
},
{
closed = 1;
nodes = (
"1028 0 LINE",
"1028 93 LINE",
"918 93 LINE",
"918 659 LINE",
"1028 659 LINE",
"1028 752 LINE",
"742 752 LINE",
"741 659 LINE",
"816 659 LINE",
"816 93 LINE",
"696 93 LINE",
"696 0 LINE"
);
}
);
width = 1054;
},
{
anchors = (
{
name = bottom;
position = "{550, 0}";
},
{
name = top;
position = "{550, 772}";
}
);
associatedMasterId = "BE4E587A-F76C-447B-AA28-A45E40876AAF";
layerId = "1889AD06-5D17-4626-A0D7-A9CA67B5F97D";
name = "Jun 1 18, 14:55";
paths = (
{
closed = 1;
nodes = (
"635 0 LINE",
"808 772 LINE",
"633 772 LINE",
"551 304 LINE",
"620 296 LINE",
"530 772 LINE",
"242 772 LINE",
"415 0 LINE"
);
},
{
closed = 1;
nodes = (
"334 0 LINE",
"334 207 LINE",
"284 207 LINE",
"284 565 LINE",
"315 565 LINE",
"500 772 LINE",
"21 772 LINE",
"21 565 LINE",
"76 565 LINE",
"76 207 LINE",
"21 207 LINE",
"21 0 LINE"
);
},
{
closed = 1;
nodes = (
"1079 0 LINE",
"1079 207 LINE",
"1024 207 LINE",
"1024 565 LINE",
"1079 565 LINE",
"1079 772 LINE",
"633 772 LINE",
"735 565 LINE",
"766 565 LINE",
"766 207 LINE",
"716 207 LINE",
"716 0 LINE"
);
}
);
width = 1100;
},
{
anchors = (
{
name = bottom;
position = "{551, 0}";
},
{
name = top;
position = "{551, 758}";
}
);
associatedMasterId = "BE4E587A-F76C-447B-AA28-A45E40876AAF";
layerId = "2CD4897C-82AF-472F-9CE4-B51EE4AF7BFB";
name = "{200}";
paths = (
{
closed = 1;
nodes = (
"633 0 LINE",
"828 735 LINE",
"671 765 LINE",
"538 233 LINE",
"592 228 LINE",
"473 765 LINE",
"260 735 LINE",
"454 0 LINE"
);
},
{
closed = 1;
nodes = (
"359 0 LINE",
"359 168 LINE",
"286 168 LINE",
"286 598 LINE",
"328 598 LINE",
"454 765 LINE",
"23 765 LINE",
"23 598 LINE",
"97 598 LINE",
"97 168 LINE",
"23 168 LINE",
"23 0 LINE"
);
},
{
closed = 1;
nodes = (
"1079 0 LINE",
"1079 168 LINE",
"1005 168 LINE",
"1005 598 LINE",
"1079 598 LINE",
"1079 765 LINE",
"671 765 LINE",
"756 598 LINE",
"801 598 LINE",
"801 168 LINE",
"727 168 LINE",
"727 0 LINE"
);
}
);
width = 1102;
},
{
anchors = (
{
name = bottom;
position = "{565, 0}";
},
{
name = top;
position = "{565, 772}";
}
);
associatedMasterId = "BE4E587A-F76C-447B-AA28-A45E40876AAF";
layerId = "660F5FE8-C05B-4930-8F85-9BB411D6AECF";
name = "Bold ]250off]";
paths = (
{
closed = 1;
nodes = (
"665 0 LINE",
"838 772 LINE",
"633 772 LINE",
"551 304 LINE",
"620 296 LINE",
"560 772 LINE",
"272 772 LINE",
"445 0 LINE"
);
},
{
closed = 1;
nodes = (
"364 0 LINE",
"364 207 LINE",
"314 207 LINE",
"314 565 LINE",
"345 565 LINE",
"530 772 LINE",
"21 772 LINE",
"21 565 LINE",
"76 565 LINE",
"76 207 LINE",
"21 207 LINE",
"21 0 LINE"
);
},
{
closed = 1;
nodes = (
"1109 0 LINE",
"1109 207 LINE",
"1054 207 LINE",
"1054 565 LINE",
"1109 565 LINE",
"1109 772 LINE",
"633 772 LINE",
"765 565 LINE",
"796 565 LINE",
"796 207 LINE",
"746 207 LINE",
"746 0 LINE"
);
}
);
width = 1130;
}
);
leftKerningGroup = H;
leftMetricsKey = H;
rightKerningGroup = H;
rightMetricsKey = "=|";
unicode = 004D;
},
{
glyphname = N;
layers = (
{
anchors = (
{
name = bottom;
position = "{455, 0}";
},
{
name = top;
position = "{455, 732}";
}
);
layerId = "67AEAADB-8447-4819-9D92-8BB76BD22042";
rightMetricsKey = "=H-10";
paths = (
{
closed = 1;
nodes = (
"754 0 LINE",
"185 752 LINE",
"179 752 LINE",
"748 0 LINE"
);
},
{
closed = 1;
nodes = (
"176 748 LINE",
"176 5 LINE",
"27 5 LINE",
"27 0 LINE",
"329 0 LINE",
"329 5 LINE",
"181 5 LINE",
"181 747 LINE",
"185 747 LINE",
"185 752 LINE",
"27 752 LINE",
"27 748 LINE"
);
},
{
closed = 1;
nodes = (
"751 747 LINE",
"751 5 LINE",
"748 5 LINE",
"751 0 LINE",
"756 0 LINE",
"756 747 LINE",
"904 747 LINE",
"904 752 LINE",
"587 752 LINE",
"587 747 LINE"
);
}
);
width = 921;
},
{
anchors = (
{
name = bottom;
position = "{444, 0}";
},
{
name = top;
position = "{444, 772}";
}
);
layerId = "BE4E587A-F76C-447B-AA28-A45E40876AAF";
paths = (
{
closed = 1;
nodes = (
"769 0 LINE",
"407 772 LINE",
"133 772 LINE",
"495 0 LINE"
);
},
{
closed = 1;
nodes = (
"76 565 LINE",
"76 207 LINE",
"21 207 LINE",
"21 0 LINE",
"337 0 LINE",
"337 207 LINE",
"282 207 LINE",
"282 440 LINE",
"330 440 LINE",
"407 772 LINE",
"21 772 LINE",
"21 565 LINE"
);
},
{
closed = 1;
nodes = (
"620 565 LINE",
"620 336 LINE",
"578 336 LINE",
"657 0 LINE",
"826 0 LINE",
"826 565 LINE",
"881 565 LINE",
"881 772 LINE",
"565 772 LINE",
"565 565 LINE"
);
}
);
width = 888;
},
{
anchors = (
{
name = bottom;
position = "{453, 0}";
},
{
name = top;
position = "{453, 732}";
}
);
layerId = "2C5E45D0-97E8-45AA-A5B2-946753DF54E1";
rightMetricsKey = "=H-12";
paths = (
{
closed = 1;
nodes = (
"757 0 LINE",
"285 752 LINE",
"167 752 LINE",
"639 0 LINE"
);
},
{
closed = 1;
nodes = (
"138 659 LINE",
"138 93 LINE",
"28 93 LINE",
"28 0 LINE",
"343 0 LINE",
"343 93 LINE",
"233 93 LINE",
"233 641 LINE",
"283 641 LINE",
"284 752 LINE",
"28 752 LINE",
"28 659 LINE"
);
},
{
closed = 1;
nodes = (
"673 659 LINE",
"673 140 LINE",
"603 140 LINE",
"639 0 LINE",
"768 0 LINE",
"768 659 LINE",
"878 659 LINE",
"878 752 LINE",
"563 752 LINE",
"563 659 LINE"
);
}
);
width = 894;
},
{
anchors = (
{
name = bottom;
position = "{482, 0}";
},
{
name = top;
position = "{482, 732}";
}
);
associatedMasterId = "2C5E45D0-97E8-45AA-A5B2-946753DF54E1";
layerId = "047D3E99-1A20-4FF1-B7C9-46C9AE164200";
rightMetricsKey = "=H-20";
name = "Feb 23 18, 15:40";
paths = (
{
closed = 1;
nodes = (
"780 0 LINE",
"318 752 LINE",
"198 752 LINE",
"660 0 LINE"
);
},
{
closed = 1;
nodes = (
"162 659 LINE",
"162 93 LINE",
"52 93 LINE",
"52 0 LINE",
"374 0 LINE",
"374 93 LINE",
"264 93 LINE",
"264 641 LINE",
"317 641 LINE",
"317 752 LINE",
"52 752 LINE",
"52 659 LINE"
);
},
{
closed = 1;
nodes = (
"699 659 LINE",
"699 140 LINE",
"629 140 LINE",
"660 0 LINE",
"801 0 LINE",
"801 659 LINE",
"911 659 LINE",
"911 752 LINE",
"589 752 LINE",
"589 659 LINE"
);
}
);
width = 943;
},
{
anchors = (
{
name = bottom;
position = "{454, 0}";
},
{
name = top;
position = "{454, 732}";
}
);
layerId = "A59F1195-5331-40FD-8BD6-3900E1073F61";
rightMetricsKey = "=H-10";
paths = (
{
closed = 1;
nodes = (
"754 0 LINE",
"206 752 LINE",
"176 752 LINE",
"724 0 LINE"
);
},
{
closed = 1;
nodes = (
"168 730 LINE",
"168 23 LINE",
"27 23 LINE",
"27 0 LINE",
"331 0 LINE",
"331 23 LINE",
"191 23 LINE",
"191 725 LINE",
"205 725 LINE",
"206 752 LINE",
"27 752 LINE",
"27 730 LINE"
);
},
{
closed = 1;
nodes = (
"735 729 LINE",
"735 33 LINE",
"718 33 LINE",
"727 0 LINE",
"758 0 LINE",
"758 729 LINE",
"899 729 LINE",
"899 752 LINE",
"582 752 LINE",
"582 729 LINE"
);
}
);
width = 916;
},
{
anchors = (
{
name = bottom;
position = "{451, 0}";
},
{
name = top;
position = "{451, 732}";
}
);
associatedMasterId = "2C5E45D0-97E8-45AA-A5B2-946753DF54E1";
layerId = "12114F2B-2606-41A7-B8C8-895E3F1C7E21";
rightMetricsKey = "=H-12";
name = "May 29 18, 15:19";
paths = (
{
closed = 1;
nodes = (
"755 0 LINE",
"288 752 LINE",
"165 752 LINE",
"632 0 LINE"
);
},
{
closed = 1;
nodes = (
"136 659 LINE",
"136 93 LINE",
"26 93 LINE",
"26 0 LINE",
"341 0 LINE",
"341 93 LINE",
"231 93 LINE",
"231 641 LINE",
"284 641 LINE",
"287 752 LINE",
"26 752 LINE",
"26 659 LINE"
);
},
{
closed = 1;
nodes = (
"674 659 LINE",
"674 140 LINE",
"604 140 LINE",
"632 0 LINE",
"769 0 LINE",
"769 659 LINE",
"879 659 LINE",
"879 752 LINE",
"564 752 LINE",
"564 659 LINE"
);
}
);
width = 893;
},
{
anchors = (
{
name = bottom;
position = "{444, 0}";
},
{
name = top;
position = "{444, 772}";
}
);
associatedMasterId = "BE4E587A-F76C-447B-AA28-A45E40876AAF";
layerId = "D52D04D7-CE11-46A3-BD48-0F49B28DD047";
name = "Jun 1 18, 14:57";
paths = (
{
closed = 1;
nodes = (
"745 0 LINE",
"441 772 LINE",
"158 772 LINE",
"462 0 LINE"
);
},
{
closed = 1;
nodes = (
"76 565 LINE",
"76 207 LINE",
"21 207 LINE",
"21 0 LINE",
"339 0 LINE",
"339 207 LINE",
"284 207 LINE",
"284 440 LINE",
"332 440 LINE",
"441 772 LINE",
"21 772 LINE",
"21 565 LINE"
);
},
{
closed = 1;
nodes = (
"618 565 LINE",
"618 336 LINE",
"576 336 LINE",
"655 0 LINE",
"826 0 LINE",
"826 565 LINE",
"881 565 LINE",
"881 772 LINE",
"563 772 LINE",
"563 565 LINE"
);
}
);
width = 888;
}
);
leftKerningGroup = H;
leftMetricsKey = H;
rightKerningGroup = N;
rightMetricsKey = "=|-14";
unicode = 004E;
},
{
glyphname = Ncommaaccent;
layers = (
{
anchors = (
{
name = _bottom;
position = "{455, 0}";
}
);
components = (
{
name = N;
}
);
layerId = "67AEAADB-8447-4819-9D92-8BB76BD22042";
paths = (
{
closed = 1;
nodes = (
"472 -154 LINE SMOOTH",
"472 -193 OFFCURVE",
"453 -212 OFFCURVE",
"425 -212 CURVE",
"425 -217 LINE",
"456 -217 OFFCURVE",
"477 -196 OFFCURVE",
"477 -154 CURVE SMOOTH",
"477 -83 LINE",
"472 -83 LINE"
);
}
);
width = 921;
},
{
anchors = (
{
name = _bottom;
position = "{453, 0}";
}
);
components = (
{
name = N;
}
);
layerId = "2C5E45D0-97E8-45AA-A5B2-946753DF54E1";
paths = (
{
closed = 1;
nodes = (
"380 -138 LINE",
"487 -138 LINE",
"523 -117 LINE",
"523 -49 LINE",
"380 -49 LINE"
);
},
{
closed = 1;
nodes = (
"480 -122 LINE SMOOTH",
"480 -166 OFFCURVE",
"461 -186 OFFCURVE",
"413 -186 CURVE SMOOTH",
"380 -186 LINE",
"380 -224 LINE",
"413 -224 LINE SMOOTH",
"487 -224 OFFCURVE",
"523 -185 OFFCURVE",
"523 -120 CURVE SMOOTH",
"523 -65 LINE",
"480 -65 LINE"
);
}
);
width = 894;
},
{
anchors = (
{
name = _bottom;
position = "{444, 0}";
}
);
components = (
{
name = N;
}
);
layerId = "BE4E587A-F76C-447B-AA28-A45E40876AAF";
paths = (
{
closed = 1;
nodes = (
"320 -154 LINE",
"497 -154 LINE",
"568 -119 LINE",
"568 -24 LINE",
"320 -24 LINE"
);
},
{
closed = 1;
nodes = (
"465 -152 LINE SMOOTH",
"465 -174 OFFCURVE",
"442 -186 OFFCURVE",
"401 -186 CURVE SMOOTH",
"320 -186 LINE",
"320 -245 LINE",
"401 -245 LINE SMOOTH",
"522 -245 OFFCURVE",
"568 -211 OFFCURVE",
"568 -133 CURVE SMOOTH",
"568 -107 LINE",
"465 -120 LINE"
);
}
);
width = 888;
},
{
anchors = (
{
name = _bottom;
position = "{454, 0}";
}
);
components = (
{
name = N;
}
);
layerId = "A59F1195-5331-40FD-8BD6-3900E1073F61";
paths = (
{
closed = 1;
nodes = (
"452 -144 LINE SMOOTH",
"452 -180 OFFCURVE",
"435 -196 OFFCURVE",
"407 -196 CURVE",
"407 -218 LINE",
"449 -218 OFFCURVE",
"476 -193 OFFCURVE",
"476 -144 CURVE SMOOTH",
"476 -80 LINE",
"452 -80 LINE"
);
}
);
width = 916;
},
{
anchors = (
{
name = _bottom;
position = "{455, 0}";
}
);
associatedMasterId = "67AEAADB-8447-4819-9D92-8BB76BD22042";
components = (
{
name = N;
}
);
layerId = "255AFD2D-F5EF-4E0D-A8D7-ACA5B034A2DB";
name = "[24]";
paths = (
{
closed = 1;
nodes = (
"448 -121 LINE",
"464 -121 LINE",
"467 -110 LINE",
"467 -102 LINE",
"448 -102 LINE"
);
},
{
closed = 1;
nodes = (
"462 -137 LINE SMOOTH",
"462 -147 OFFCURVE",
"456 -152 OFFCURVE",
"449 -152 CURVE SMOOTH",
"448 -152 LINE",
"448 -157 LINE",
"449 -157 LINE SMOOTH",
"459 -157 OFFCURVE",
"467 -150 OFFCURVE",
"467 -137 CURVE SMOOTH",
"467 -104 LINE",
"462 -104 LINE"
);
}
);
width = 921;
},
{
anchors = (
{
name = _bottom;
position = "{454, 0}";
}
);
associatedMasterId = "A59F1195-5331-40FD-8BD6-3900E1073F61";
components = (
{
name = N;
}
);
layerId = "047323AA-07BD-43E6-99CF-2DFF706459E1";
name = "Light [24]";
paths = (
{
closed = 1;
nodes = (
"421 -146 LINE",
"450 -146 LINE",
"463 -125 LINE",
"463 -94 LINE",
"421 -94 LINE"
);
},
{
closed = 1;
nodes = (
"449 -176 LINE SMOOTH",
"449 -195 OFFCURVE",
"438 -204 OFFCURVE",
"421 -204 CURVE SMOOTH",
"420 -204 LINE",
"420 -217 LINE",
"421 -217 LINE SMOOTH",
"446 -217 OFFCURVE",
"463 -204 OFFCURVE",
"463 -176 CURVE SMOOTH",
"463 -94 LINE",
"449 -94 LINE"
);
}
);
width = 916;
},
{
anchors = (
{
name = _bottom;
position = "{453, 0}";
}
);
associatedMasterId = "2C5E45D0-97E8-45AA-A5B2-946753DF54E1";
components = (
{
name = N;
}
);
layerId = "7E0E43EB-30B6-4B28-9C55-BDF5D2D25E4B";
name = "Regular ]24]";
paths = (
{
closed = 1;
nodes = (
"432 -105 LINE SMOOTH",
"432 -128 OFFCURVE",
"421 -136 OFFCURVE",
"396 -136 CURVE",
"396 -220 LINE",
"477 -220 OFFCURVE",
"530 -181 OFFCURVE",
"530 -105 CURVE SMOOTH",
"530 -69 LINE",
"432 -69 LINE"
);
}
);
width = 894;
},
{
anchors = (
{
name = _bottom;
position = "{444, 0}";
}
);
associatedMasterId = "BE4E587A-F76C-447B-AA28-A45E40876AAF";
components = (
{
name = N;
}
);
layerId = "F3305100-B9C7-4630-A9E0-410037E9E150";
name = "]24]";
paths = (
{
closed = 1;
nodes = (
"392 -112 LINE SMOOTH",
"392 -128 OFFCURVE",
"383 -137 OFFCURVE",
"368 -137 CURVE",
"368 -245 LINE",
"514 -245 OFFCURVE",
"569 -205 OFFCURVE",
"569 -112 CURVE SMOOTH",
"569 -56 LINE",
"392 -56 LINE"
);
}
);
width = 888;
}
);
leftKerningGroup = H;
rightKerningGroup = N;
unicode = 0145;
},
{
color = 3;
glyphname = Eng;
layers = (
{
layerId = "67AEAADB-8447-4819-9D92-8BB76BD22042";
paths = (
{
closed = 1;
nodes = (
"176 748 LINE",
"176 5 LINE",
"27 5 LINE",
"27 0 LINE",
"329 0 LINE",
"329 5 LINE",
"181 5 LINE",
"181 747 LINE",
"185 747 LINE",
"185 752 LINE",
"27 752 LINE",
"27 748 LINE"
);
},
{
closed = 1;
nodes = (
"587 747 LINE",
"751 747 LINE",
"751 -84 LINE SMOOTH",
"751 -172 OFFCURVE",
"703 -212 OFFCURVE",
"631 -212 CURVE SMOOTH",
"616 -212 OFFCURVE",
"603 -210 OFFCURVE",
"592 -207 CURVE",
"590 -212 LINE",
"602 -215 OFFCURVE",
"616 -217 OFFCURVE",
"631 -217 CURVE SMOOTH",
"706 -217 OFFCURVE",
"756 -175 OFFCURVE",
"756 -84 CURVE SMOOTH",
"756 747 LINE",
"904 747 LINE",
"904 752 LINE",
"587 752 LINE"
);
},
{
closed = 1;
nodes = (
"756 0 LINE",
"185 752 LINE",
"179 752 LINE",
"754 -5 LINE"
);
}
);
width = 921;
},
{
layerId = "2C5E45D0-97E8-45AA-A5B2-946753DF54E1";
paths = (
{
closed = 1;
nodes = (
"138 659 LINE",
"138 93 LINE",
"28 93 LINE",
"28 0 LINE",
"343 0 LINE",
"343 93 LINE",
"233 93 LINE",
"233 641 LINE",
"286 641 LINE",
"284 752 LINE",
"28 752 LINE",
"28 659 LINE"
);
},
{
closed = 1;
nodes = (
"566 659 LINE",
"676 659 LINE",
"676 -39 LINE SMOOTH",
"676 -100 OFFCURVE",
"648 -128 OFFCURVE",
"591 -128 CURVE SMOOTH",
"576 -128 OFFCURVE",
"560 -126 OFFCURVE",
"544 -121 CURVE",
"516 -206 LINE",
"546 -215 OFFCURVE",
"573 -220 OFFCURVE",
"605 -220 CURVE SMOOTH",
"719 -220 OFFCURVE",
"771 -152 OFFCURVE",
"771 -42 CURVE SMOOTH",
"771 659 LINE",
"881 659 LINE",
"881 752 LINE",
"566 752 LINE"
);
},
{
closed = 1;
nodes = (
"748 65 LINE",
"284 752 LINE",
"163 752 LINE",
"685 -8 LINE"
);
}
);
width = 897;
},
{
layerId = "BE4E587A-F76C-447B-AA28-A45E40876AAF";
paths = (
{
closed = 1;
nodes = (
"76 565 LINE",
"76 207 LINE",
"21 207 LINE",
"21 0 LINE",
"339 0 LINE",
"339 207 LINE",
"284 207 LINE",
"284 440 LINE",
"332 440 LINE",
"347 772 LINE",
"21 772 LINE",
"21 565 LINE"
);
},
{
closed = 1;
nodes = (
"563 565 LINE",
"618 565 LINE",
"618 -3 LINE SMOOTH",
"618 -26 OFFCURVE",
"606 -37 OFFCURVE",
"577 -37 CURVE SMOOTH",
"568 -37 OFFCURVE",
"558 -36 OFFCURVE",
"550 -34 CURVE",
"509 -214 LINE",
"538 -221 OFFCURVE",
"570 -224 OFFCURVE",
"601 -224 CURVE SMOOTH",
"764 -224 OFFCURVE",
"826 -140 OFFCURVE",
"826 -3 CURVE SMOOTH",
"826 565 LINE",
"881 565 LINE",
"881 772 LINE",
"563 772 LINE"
);
},
{
closed = 1;
nodes = (
"788 209 LINE",
"347 772 LINE",
"75 682 LINE",
"632 -19 LINE"
);
}
);
width = 888;
},
{
associatedMasterId = "2C5E45D0-97E8-45AA-A5B2-946753DF54E1";
layerId = "FB1A8F30-5F79-470A-A46F-EF9FE121BE0F";
name = "Feb 6 18, 15:46";
paths = (
{
closed = 1;
nodes = (
"776 66 LINE",
"318 752 LINE",
"232 697 LINE",
"718 -22 LINE"
);
},
{
closed = 1;
nodes = (
"162 659 LINE",
"162 93 LINE",
"52 93 LINE",
"52 0 LINE",
"374 0 LINE",
"374 93 LINE",
"264 93 LINE",
"264 641 LINE",
"317 641 LINE",
"317 752 LINE",
"52 752 LINE",
"52 659 LINE"
);
},
{
closed = 1;
nodes = (
"589 659 LINE",
"699 659 LINE",
"699 -31 LINE SMOOTH",
"699 -92 OFFCURVE",
"670 -120 OFFCURVE",
"614 -120 CURVE SMOOTH",
"590 -120 OFFCURVE",
"568 -115 OFFCURVE",
"546 -109 CURVE",
"546 -207 LINE",
"574 -215 OFFCURVE",
"600 -220 OFFCURVE",
"630 -220 CURVE SMOOTH",
"747 -220 OFFCURVE",
"801 -149 OFFCURVE",
"801 -34 CURVE SMOOTH",
"801 659 LINE",
"911 659 LINE",
"911 752 LINE",
"589 752 LINE"
);
}
);
width = 943;
},
{
associatedMasterId = "BE4E587A-F76C-447B-AA28-A45E40876AAF";
layerId = "FCC288A5-2804-4E89-8E5E-00E508EEB537";
name = "Mar 13 18, 16:06";
paths = (
{
closed = 1;
nodes = (
"748 0 LINE",
"407 772 LINE",
"211 772 LINE",
"592 0 LINE"
);
},
{
closed = 1;
nodes = (
"71 565 LINE",
"71 207 LINE",
"16 207 LINE",
"16 0 LINE",
"394 0 LINE",
"394 207 LINE",
"329 207 LINE",
"329 541 LINE",
"377 541 LINE",
"387 772 LINE",
"16 772 LINE",
"16 565 LINE"
);
},
{
closed = 1;
nodes = (
"532 565 LINE",
"587 565 LINE",
"587 -3 LINE SMOOTH",
"587 -26 OFFCURVE",
"575 -37 OFFCURVE",
"546 -37 CURVE SMOOTH",
"537 -37 OFFCURVE",
"527 -36 OFFCURVE",
"519 -34 CURVE",
"478 -214 LINE",
"507 -221 OFFCURVE",
"539 -224 OFFCURVE",
"575 -224 CURVE SMOOTH",
"769 -224 OFFCURVE",
"845 -140 OFFCURVE",
"845 -3 CURVE SMOOTH",
"845 565 LINE",
"900 565 LINE",
"900 772 LINE",
"532 772 LINE"
);
}
);
width = 902;
},
{
layerId = "A59F1195-5331-40FD-8BD6-3900E1073F61";
paths = (
{
closed = 1;
nodes = (
"168 730 LINE",
"168 23 LINE",
"27 23 LINE",
"27 0 LINE",
"331 0 LINE",
"331 23 LINE",
"191 23 LINE",
"191 725 LINE",
"205 725 LINE",
"206 752 LINE",
"27 752 LINE",
"27 730 LINE"
);
},
{
closed = 1;
nodes = (
"582 729 LINE",
"735 729 LINE",
"735 -75 LINE SMOOTH",
"735 -157 OFFCURVE",
"691 -195 OFFCURVE",
"622 -195 CURVE SMOOTH",
"607 -195 OFFCURVE",
"594 -193 OFFCURVE",
"582 -189 CURVE",
"574 -211 LINE",
"590 -215 OFFCURVE",
"607 -218 OFFCURVE",
"625 -218 CURVE SMOOTH",
"708 -218 OFFCURVE",
"758 -170 OFFCURVE",
"758 -75 CURVE SMOOTH",
"758 729 LINE",
"899 729 LINE",
"899 752 LINE",
"582 752 LINE"
);
},
{
closed = 1;
nodes = (
"755 14 LINE",
"206 752 LINE",
"175 752 LINE",
"739 -6 LINE"
);
}
);
width = 916;
},
{
associatedMasterId = "2C5E45D0-97E8-45AA-A5B2-946753DF54E1";
layerId = "107BFF17-E548-46BE-88AD-6329FDDB8028";
name = "May 29 18, 15:26";
paths = (
{
closed = 1;
nodes = (
"136 659 LINE",
"136 93 LINE",
"26 93 LINE",
"26 0 LINE",
"341 0 LINE",
"341 93 LINE",
"231 93 LINE",
"231 641 LINE",
"284 641 LINE",
"288 752 LINE",
"26 752 LINE",
"26 659 LINE"
);
},
{
closed = 1;
nodes = (
"564 659 LINE",
"674 659 LINE",
"674 -39 LINE SMOOTH",
"674 -100 OFFCURVE",
"646 -128 OFFCURVE",
"589 -128 CURVE SMOOTH",
"574 -128 OFFCURVE",
"558 -126 OFFCURVE",
"542 -121 CURVE",
"514 -206 LINE",
"544 -215 OFFCURVE",
"571 -220 OFFCURVE",
"603 -220 CURVE SMOOTH",
"717 -220 OFFCURVE",
"769 -152 OFFCURVE",
"769 -42 CURVE SMOOTH",
"769 659 LINE",
"879 659 LINE",
"879 752 LINE",
"564 752 LINE"
);
},
{
closed = 1;
nodes = (
"752 67 LINE",
"288 752 LINE",
"161 752 LINE",
"680 -8 LINE"
);
}
);
width = 893;
}
);
leftKerningGroup = H;
leftMetricsKey = N;
rightKerningGroup = N;
rightMetricsKey = N;
unicode = 014A;
},
{
glyphname = O;
layers = (
{
anchors = (
{
name = bottom;
position = "{431, 0}";
},
{
name = horn;
position = "{510, 752}";
},
{
name = ogonek;
position = "{555, 11}";
},
{
name = top;
position = "{431, 732}";
}
);
layerId = "67AEAADB-8447-4819-9D92-8BB76BD22042";
leftMetricsKey = "=o-5";
paths = (
{
closed = 1;
nodes = (
"655 -7 OFFCURVE",
"810 151 OFFCURVE",
"810 378 CURVE SMOOTH",
"810 602 OFFCURVE",
"655 759 OFFCURVE",
"431 759 CURVE SMOOTH",
"207 759 OFFCURVE",
"52 602 OFFCURVE",
"52 378 CURVE SMOOTH",
"52 151 OFFCURVE",
"207 -7 OFFCURVE",
"431 -7 CURVE SMOOTH"
);
},
{
closed = 1;
nodes = (
"209 -2 OFFCURVE",
"57 154 OFFCURVE",
"57 378 CURVE SMOOTH",
"57 599 OFFCURVE",
"209 754 OFFCURVE",
"431 754 CURVE SMOOTH",
"653 754 OFFCURVE",
"805 599 OFFCURVE",
"805 378 CURVE SMOOTH",
"805 154 OFFCURVE",
"653 -2 OFFCURVE",
"431 -2 CURVE SMOOTH"
);
}
);
width = 862;
},
{
anchors = (
{
name = bottom;
position = "{436, 0}";
},
{
name = horn;
position = "{541, 752}";
},
{
name = ogonek;
position = "{600, 19}";
},
{
name = top;
position = "{436, 732}";
}
);
layerId = "2C5E45D0-97E8-45AA-A5B2-946753DF54E1";
leftMetricsKey = "=o-8";
paths = (
{
closed = 1;
nodes = (
"667 -12 OFFCURVE",
"826 148 OFFCURVE",
"826 378 CURVE SMOOTH",
"826 605 OFFCURVE",
"667 764 OFFCURVE",
"436 764 CURVE SMOOTH",
"205 764 OFFCURVE",
"46 605 OFFCURVE",
"46 378 CURVE SMOOTH",
"46 148 OFFCURVE",
"205 -12 OFFCURVE",
"436 -12 CURVE SMOOTH"
);
},
{
closed = 1;
nodes = (
"269 88 OFFCURVE",
"154 207 OFFCURVE",
"154 378 CURVE SMOOTH",
"154 548 OFFCURVE",
"269 664 OFFCURVE",
"436 664 CURVE SMOOTH",
"603 664 OFFCURVE",
"718 548 OFFCURVE",
"718 378 CURVE SMOOTH",
"718 207 OFFCURVE",
"603 88 OFFCURVE",
"436 88 CURVE SMOOTH"
);
}
);
width = 872;
},
{
anchors = (
{
name = bottom;
position = "{432, 0}";
},
{
name = horn;
position = "{516, 752}";
},
{
name = ogonek;
position = "{570, 13}";
},
{
name = top;
position = "{432, 732}";
}
);
layerId = "A59F1195-5331-40FD-8BD6-3900E1073F61";
leftMetricsKey = "=o-5";
paths = (
{
closed = 1;
nodes = (
"657 -8 OFFCURVE",
"813 150 OFFCURVE",
"813 378 CURVE SMOOTH",
"813 603 OFFCURVE",
"657 760 OFFCURVE",
"432 760 CURVE SMOOTH",
"207 760 OFFCURVE",
"51 603 OFFCURVE",
"51 378 CURVE SMOOTH",
"51 150 OFFCURVE",
"207 -8 OFFCURVE",
"432 -8 CURVE SMOOTH"
);
},
{
closed = 1;
nodes = (
"221 16 OFFCURVE",
"77 165 OFFCURVE",
"77 378 CURVE SMOOTH",
"77 589 OFFCURVE",
"221 736 OFFCURVE",
"432 736 CURVE SMOOTH",
"643 736 OFFCURVE",
"787 589 OFFCURVE",
"787 378 CURVE SMOOTH",
"787 165 OFFCURVE",
"643 16 OFFCURVE",
"432 16 CURVE SMOOTH"
);
}
);
width = 864;
},
{
anchors = (
{
name = bottom;
position = "{434, 0}";
},
{
name = horn;
position = "{555, 772}";
},
{
name = ogonek;
position = "{628, 25}";
},
{
name = top;
position = "{434, 772}";
}
);
layerId = "BE4E587A-F76C-447B-AA28-A45E40876AAF";
leftMetricsKey = "=o-3";
paths = (
{
closed = 1;
nodes = (
"684 -14 OFFCURVE",
"857 151 OFFCURVE",
"857 388 CURVE SMOOTH",
"857 622 OFFCURVE",
"684 786 OFFCURVE",
"434 786 CURVE SMOOTH",
"184 786 OFFCURVE",
"11 622 OFFCURVE",
"11 388 CURVE SMOOTH",
"11 151 OFFCURVE",
"184 -14 OFFCURVE",
"434 -14 CURVE SMOOTH"
);
},
{
closed = 1;
nodes = (
"342 230 OFFCURVE",
"278 295 OFFCURVE",
"278 388 CURVE SMOOTH",
"278 479 OFFCURVE",
"342 542 OFFCURVE",
"434 542 CURVE SMOOTH",
"526 542 OFFCURVE",
"590 479 OFFCURVE",
"590 388 CURVE SMOOTH",
"590 295 OFFCURVE",
"526 230 OFFCURVE",
"434 230 CURVE SMOOTH"
);
}
);
width = 868;
}
);
leftKerningGroup = O;
rightKerningGroup = O;
rightMetricsKey = "=|";
unicode = 004F;
},
{
glyphname = Ohorn;
layers = (
{
components = (
{
name = O;
},
{
name = horncomb.case;
transform = "{1, 0, 0, 1, 470, 0}";
}
);
layerId = "67AEAADB-8447-4819-9D92-8BB76BD22042";
width = 862;
},
{
components = (
{
name = O;
},
{
name = horncomb.case;
transform = "{1, 0, 0, 1, 501, 0}";
}
);
layerId = "2C5E45D0-97E8-45AA-A5B2-946753DF54E1";
width = 872;
},
{
components = (
{
name = O;
},
{
name = horncomb.case;
transform = "{1, 0, 0, 1, 515, 0}";
}
);
layerId = "BE4E587A-F76C-447B-AA28-A45E40876AAF";
rightMetricsKey = "=O+6";
width = 868;
},
{
anchors = (
{
name = _horn;
position = "{527, 754}";
}
);
associatedMasterId = "2C5E45D0-97E8-45AA-A5B2-946753DF54E1";
components = (
{
name = O;
}
);
layerId = "9679794A-02BB-4919-A1CE-3AAAE12FF15B";
name = "May 7 18, 14:37";
paths = (
{
closed = 1;
nodes = (
"701 880 LINE",
"701 837 LINE SMOOTH",
"701 763 OFFCURVE",
"661 742 OFFCURVE",
"599 742 CURVE SMOOTH",
"580 742 OFFCURVE",
"566 744 OFFCURVE",
"527 754 CURVE",
"634 635 LINE",
"675 691 LINE",
"757 691 OFFCURVE",
"799 743 OFFCURVE",
"799 827 CURVE SMOOTH",
"799 880 LINE"
);
}
);
width = 862;
},
{
components = (
{
name = O;
},
{
name = horncomb.case;
transform = "{1, 0, 0, 1, 476, 0}";
}
);
layerId = "A59F1195-5331-40FD-8BD6-3900E1073F61";
width = 864;
}
);
leftKerningGroup = O;
leftMetricsKey = O;
rightKerningGroup = Ohorn;
unicode = 01A0;
},
{
color = 9;
glyphname = Oslash;
layers = (
{
components = (
{
name = O;
}
);
layerId = "67AEAADB-8447-4819-9D92-8BB76BD22042";
paths = (
{
closed = 1;
nodes = (
"60 8 LINE",
"63 4 LINE",
"803 744 LINE",
"800 748 LINE"
);
}
);
width = 862;
},
{
associatedMasterId = "2C5E45D0-97E8-45AA-A5B2-946753DF54E1";
components = (
{
name = O;
}
);
layerId = "6CEF171D-687B-4F8D-ACAF-400EC1BA9329";
name = "[98]";
paths = (
{
closed = 1;
nodes = (
"165 179 LINE",
"49 63 LINE",
"118 -6 LINE",
"238 113 LINE"
);
},
{
closed = 1;
nodes = (
"686 561 LINE",
"813 689 LINE",
"744 758 LINE",
"619 633 LINE"
);
}
);
width = 872;
},
{
associatedMasterId = "2C5E45D0-97E8-45AA-A5B2-946753DF54E1";
components = (
{
name = O;
},
{
name = slashlongcomb;
transform = "{1, 0, 0, 1, 17, 0}";
}
);
layerId = "6EADB275-6630-4101-822D-F9080CBAB25E";
name = "May 8 18, 13:57";
width = 872;
},
{
components = (
{
name = O;
}
);
layerId = "2C5E45D0-97E8-45AA-A5B2-946753DF54E1";
paths = (
{
closed = 1;
nodes = (
"49 63 LINE",
"118 -6 LINE",
"813 689 LINE",
"744 758 LINE"
);
}
);
width = 872;
},
{
associatedMasterId = "BE4E587A-F76C-447B-AA28-A45E40876AAF";
components = (
{
name = O;
},
{
name = slashlongcomb;
transform = "{1, 0, 0, 1, 28, 28}";
}
);
layerId = "B65038C9-3B75-46CA-AA3B-96D40CFA0361";
name = Orig;
width = 868;
},
{
components = (
{
alignment = -1;
name = O;
}
);
layerId = "A59F1195-5331-40FD-8BD6-3900E1073F61";
paths = (
{
closed = 1;
nodes = (
"61 19 LINE",
"75 4 LINE",
"804 733 LINE",
"789 748 LINE"
);
}
);
width = 864;
},
{
associatedMasterId = "BE4E587A-F76C-447B-AA28-A45E40876AAF";
components = (
{
name = O;
}
);
layerId = "20C0F25D-9F6C-4998-9C27-057DC4A88671";
name = "]98]";
paths = (
{
closed = 1;
nodes = (
"68 45 LINE",
"93 20 LINE",
"801 728 LINE",
"775 753 LINE"
);
}
);
width = 868;
},
{
components = (
{
name = O;
transform = "{1, 0, 0, 1, 7, 0}";
}
);
layerId = "BE4E587A-F76C-447B-AA28-A45E40876AAF";
paths = (
{
closed = 1;
nodes = (
"235 331 LINE",
"11 105 LINE",
"170 -54 LINE",
"392 168 LINE"
);
},
{
closed = 1;
nodes = (
"688 484 LINE",
"874 669 LINE",
"711 826 LINE",
"511 626 LINE"
);
}
);
width = 885;
},
{
associatedMasterId = "A59F1195-5331-40FD-8BD6-3900E1073F61";
components = (
{
alignment = -1;
name = O;
}
);
layerId = "198570E5-97A9-42B8-8B55-1AAA2444EC39";
name = "[98]";
paths = (
{
closed = 1;
nodes = (
"157 115 LINE",
"61 19 LINE",
"75 4 LINE",
"172 101 LINE"
);
},
{
closed = 1;
nodes = (
"707 636 LINE",
"804 733 LINE",
"789 748 LINE",
"692 650 LINE"
);
}
);
width = 864;
},
{
associatedMasterId = "67AEAADB-8447-4819-9D92-8BB76BD22042";
components = (
{
name = O;
}
);
layerId = "C69538CB-189B-43B5-B6BC-8914B647232D";
name = "[98]";
paths = (
{
closed = 1;
nodes = (
"158 106 LINE",
"60 8 LINE",
"63 4 LINE",
"161 102 LINE"
);
},
{
closed = 1;
nodes = (
"706 647 LINE",
"803 744 LINE",
"800 748 LINE",
"703 651 LINE"
);
}
);
width = 862;
}
);
leftKerningGroup = O;
leftMetricsKey = O;
rightKerningGroup = O;
rightMetricsKey = O;
unicode = 00D8;
},
{
glyphname = Oslashacute;
layers = (
{
components = (
{
name = Oslash;
},
{
name = acutecomb;
transform = "{1, 0, 0, 1, 320, 208}";
}
);
layerId = "67AEAADB-8447-4819-9D92-8BB76BD22042";
width = 862;
},
{
components = (
{
name = Oslash;
},
{
name = acutecomb;
transform = "{1, 0, 0, 1, 295, 196}";
}
);
layerId = "2C5E45D0-97E8-45AA-A5B2-946753DF54E1";
width = 872;
},
{
components = (
{
name = O;
transform = "{1, 0, 0, 1, 7, 0}";
},
{
name = acutecomb;
transform = "{1, 0, 0, 1, 264, 192}";
}
);
layerId = "BE4E587A-F76C-447B-AA28-A45E40876AAF";
paths = (
{
closed = 1;
nodes = (
"235 331 LINE",
"11 105 LINE",
"170 -54 LINE",
"392 168 LINE"
);
},
{
closed = 1;
nodes = (
"688 484 LINE",
"874 669 LINE",
"711 826 LINE",
"511 626 LINE"
);
}
);
width = 885;
},
{
associatedMasterId = "BE4E587A-F76C-447B-AA28-A45E40876AAF";
components = (
{
name = O;
},
{
name = acutecomb;
transform = "{1, 0, 0, 1, 231, 192}";
}
);
layerId = "55508343-4652-4635-92A8-08DE24B0C04F";
name = "May 4 18, 19:25";
paths = (
{
closed = 1;
nodes = (
"228 331 LINE",
"4 105 LINE",
"163 -54 LINE",
"385 168 LINE"
);
},
{
closed = 1;
nodes = (
"681 484 LINE",
"867 669 LINE",
"704 826 LINE",
"504 626 LINE"
);
}
);
width = 868;
},
{
components = (
{
name = Oslash;
},
{
name = acutecomb;
transform = "{1, 0, 0, 1, 315, 206}";
}
);
layerId = "A59F1195-5331-40FD-8BD6-3900E1073F61";
width = 864;
},
{
associatedMasterId = "67AEAADB-8447-4819-9D92-8BB76BD22042";
components = (
{
name = O;
},
{
name = acutecomb;
transform = "{1, 0, 0, 1, 320, 208}";
}
);
layerId = "DC42AB75-1C30-46E5-BEC3-848D86F02878";
name = "[98]";
paths = (
{
closed = 1;
nodes = (
"158 106 LINE",
"60 8 LINE",
"63 4 LINE",
"161 102 LINE"
);
},
{
closed = 1;
nodes = (
"706 647 LINE",
"803 744 LINE",
"800 748 LINE",
"703 651 LINE"
);
}
);
width = 862;
},
{
associatedMasterId = "A59F1195-5331-40FD-8BD6-3900E1073F61";
components = (
{
name = O;
},
{
name = acutecomb;
transform = "{1, 0, 0, 1, 315, 206}";
}
);
layerId = "F4C05986-C688-4710-AA9F-D473472280AC";
name = "[98]";
paths = (
{
closed = 1;
nodes = (
"157 115 LINE",
"61 19 LINE",
"75 4 LINE",
"172 101 LINE"
);
},
{
closed = 1;
nodes = (
"707 636 LINE",
"804 733 LINE",
"789 748 LINE",
"692 650 LINE"
);
}
);
width = 864;
},
{
associatedMasterId = "2C5E45D0-97E8-45AA-A5B2-946753DF54E1";
components = (
{
name = O;
},
{
name = acutecomb;
transform = "{1, 0, 0, 1, 295, 196}";
}
);
layerId = "AAC68F1D-7125-4F6B-92CC-6437E258BA27";
name = "[98]";
paths = (
{
closed = 1;
nodes = (
"165 179 LINE",
"49 63 LINE",
"118 -6 LINE",
"238 113 LINE"
);
},
{
closed = 1;
nodes = (
"686 561 LINE",
"813 689 LINE",
"744 758 LINE",
"619 633 LINE"
);
}
);
width = 872;
},
{
associatedMasterId = "BE4E587A-F76C-447B-AA28-A45E40876AAF";
components = (
{
name = Oslash;
},
{
name = acutecomb;
transform = "{1, 0, 0, 1, 257, 192}";
}
);
layerId = "3A5D6E72-247C-4B10-9C77-9A7399F5DB4A";
name = "]98]";
width = 868;
}
);
leftKerningGroup = O;
rightKerningGroup = O;
unicode = 01FE;
},
{
glyphname = OE;
layers = (
{
anchors = (
{
name = bottom;
position = "{609, 0}";
},
{
name = top;
position = "{609, 732}";
}
);
layerId = "67AEAADB-8447-4819-9D92-8BB76BD22042";
paths = (
{
closed = 1;
nodes = (
"525 -7 OFFCURVE",
"606 0 OFFCURVE",
"633 0 CURVE",
"621 5 LINE",
"562 1 OFFCURVE",
"496 -2 OFFCURVE",
"464 -2 CURVE SMOOTH",
"209 -2 OFFCURVE",
"57 153 OFFCURVE",
"57 376 CURVE SMOOTH",
"57 599 OFFCURVE",
"209 754 OFFCURVE",
"464 754 CURVE SMOOTH",
"496 754 OFFCURVE",
"562 751 OFFCURVE",
"621 747 CURVE",
"633 752 LINE",
"606 752 OFFCURVE",
"525 759 OFFCURVE",
"464 759 CURVE SMOOTH",
"207 759 OFFCURVE",
"52 602 OFFCURVE",
"52 376 CURVE SMOOTH",
"52 150 OFFCURVE",
"207 -7 OFFCURVE",
"464 -7 CURVE SMOOTH"
);
},
{
closed = 1;
nodes = (
"963 377 LINE",
"963 382 LINE",
"622 382 LINE",
"622 377 LINE"
);
},
{
closed = 1;
nodes = (
"1162 0 LINE",
"1162 187 LINE",
"1157 187 LINE",
"1157 5 LINE",
"625 5 LINE",
"625 747 LINE",
"1148 747 LINE",
"1148 565 LINE",
"1153 565 LINE",
"1153 752 LINE",
"620 752 LINE",
"620 0 LINE"
);
}
);
width = 1221;
},
{
anchors = (
{
name = bottom;
position = "{636, 0}";
},
{
name = top;
position = "{642, 752}";
}
);
layerId = "2C5E45D0-97E8-45AA-A5B2-946753DF54E1";
paths = (
{
closed = 1;
nodes = (
"530 -12 OFFCURVE",
"585 0 OFFCURVE",
"644 0 CURVE",
"648 115 LINE",
"586 96 OFFCURVE",
"512 88 OFFCURVE",
"463 88 CURVE SMOOTH",
"269 88 OFFCURVE",
"154 207 OFFCURVE",
"154 378 CURVE SMOOTH",
"154 548 OFFCURVE",
"269 664 OFFCURVE",
"463 664 CURVE SMOOTH",
"518 664 OFFCURVE",
"586 654 OFFCURVE",
"648 637 CURVE",
"644 752 LINE",
"581 752 OFFCURVE",
"530 764 OFFCURVE",
"462 764 CURVE SMOOTH",
"205 764 OFFCURVE",
"46 605 OFFCURVE",
"46 378 CURVE SMOOTH",
"46 148 OFFCURVE",
"205 -12 OFFCURVE",
"462 -12 CURVE SMOOTH"
);
},
{
closed = 1;
nodes = (
"1017 334 LINE",
"1017 424 LINE",
"675 424 LINE",
"675 334 LINE"
);
},
{
closed = 1;
nodes = (
"1217 0 LINE",
"1217 227 LINE",
"1115 227 LINE",
"1115 93 LINE",
"719 93 LINE",
"719 659 LINE",
"1106 659 LINE",
"1106 525 LINE",
"1208 525 LINE",
"1208 752 LINE",
"617 752 LINE",
"617 0 LINE"
);
}
);
width = 1273;
},
{
associatedMasterId = "2C5E45D0-97E8-45AA-A5B2-946753DF54E1";
layerId = "B4E20D7F-CD3C-4546-9F14-F33F99BDB661";
name = "Jan 3 18, 01:05";
paths = (
{
closed = 1;
nodes = (
"627 424 LINE",
"627 334 LINE",
"969 334 LINE",
"969 424 LINE"
);
},
{
closed = 1;
nodes = (
"569 659 LINE",
"569 93 LINE",
"547 93 LINE",
"459 0 LINE",
"1107 0 LINE",
"1107 93 LINE",
"671 93 LINE",
"671 659 LINE",
"1098 659 LINE",
"1098 752 LINE",
"459 752 LINE",
"547 659 LINE"
);
},
{
closed = 1;
nodes = (
"1058 752 LINE",
"1058 525 LINE",
"1160 525 LINE",
"1160 752 LINE"
);
},
{
closed = 1;
nodes = (
"1067 227 LINE",
"1067 0 LINE",
"1169 0 LINE",
"1169 227 LINE"
);
},
{
closed = 1;
nodes = (
"464 -12 OFFCURVE",
"507 0 OFFCURVE",
"615 0 CURVE",
"682 30 LINE",
"383 66 LINE",
"401 -12 LINE"
);
},
{
closed = 1;
nodes = (
"372 686 LINE",
"682 722 LINE",
"615 752 LINE",
"507 752 OFFCURVE",
"464 764 OFFCURVE",
"401 764 CURVE"
);
},
{
closed = 1;
nodes = (
"401 88 LINE",
"235 88 OFFCURVE",
"120 207 OFFCURVE",
"120 378 CURVE SMOOTH",
"120 548 OFFCURVE",
"235 664 OFFCURVE",
"401 664 CURVE",
"401 764 LINE",
"170 764 OFFCURVE",
"11 605 OFFCURVE",
"11 378 CURVE SMOOTH",
"11 148 OFFCURVE",
"170 -12 OFFCURVE",
"401 -12 CURVE"
);
},
{
closed = 1;
nodes = (
"436 664 OFFCURVE",
"457 659 OFFCURVE",
"547 659 CURVE",
"682 706 LINE",
"389 742 LINE",
"401 664 LINE"
);
},
{
closed = 1;
nodes = (
"389 10 LINE",
"682 46 LINE",
"547 93 LINE",
"457 93 OFFCURVE",
"436 88 OFFCURVE",
"401 88 CURVE"
);
}
);
width = 1330;
},
{
associatedMasterId = "BE4E587A-F76C-447B-AA28-A45E40876AAF";
layerId = "F3B76260-9BAB-4A31-9F7E-D69395F920B8";
name = "Feb 21 18, 16:44";
paths = (
{
closed = 1;
nodes = (
"650 83 LINE",
"623 120 LINE",
"783 212 OFFCURVE",
"857 284 OFFCURVE",
"857 388 CURVE SMOOTH",
"857 489 OFFCURVE",
"783 560 OFFCURVE",
"623 652 CURVE",
"650 696 LINE",
"434 786 LINE",
"183 786 OFFCURVE",
"11 622 OFFCURVE",
"11 388 CURVE SMOOTH",
"11 151 OFFCURVE",
"183 -14 OFFCURVE",
"434 -14 CURVE"
);
},
{
closed = 1;
nodes = (
"342 229 OFFCURVE",
"278 294 OFFCURVE",
"278 388 CURVE SMOOTH",
"278 480 OFFCURVE",
"342 543 OFFCURVE",
"434 543 CURVE SMOOTH",
"526 543 OFFCURVE",
"590 480 OFFCURVE",
"590 388 CURVE SMOOTH",
"590 294 OFFCURVE",
"526 229 OFFCURVE",
"434 229 CURVE SMOOTH"
);
},
{
closed = 1;
nodes = (
"497 -14 OFFCURVE",
"540 0 OFFCURVE",
"648 0 CURVE SMOOTH",
"1342 0 LINE",
"1342 327 LINE",
"1084 327 LINE",
"1084 207 LINE",
"916 207 LINE",
"796 207 OFFCURVE",
"697 156 OFFCURVE",
"577 71 CURVE",
"446 46 LINE",
"434 -14 LINE"
);
},
{
closed = 1;
nodes = (
"1017 300 LINE",
"1017 477 LINE",
"781 477 LINE",
"781 300 LINE"
);
},
{
closed = 1;
nodes = (
"1333 465 LINE",
"1333 772 LINE",
"648 772 LINE SMOOTH",
"540 772 OFFCURVE",
"497 786 OFFCURVE",
"434 786 CURVE",
"441 726 LINE",
"577 701 LINE",
"697 616 OFFCURVE",
"795 565 OFFCURVE",
"916 565 CURVE",
"1075 565 LINE",
"1075 465 LINE"
);
}
);
width = 1366;
},
{
anchors = (
{
name = bottom;
position = "{663, 0}";
},
{
name = top;
position = "{663, 772}";
}
);
layerId = "BE4E587A-F76C-447B-AA28-A45E40876AAF";
paths = (
{
closed = 1;
nodes = (
"524 -14 OFFCURVE",
"561 0 OFFCURVE",
"621 0 CURVE",
"571 228 LINE",
"533 217 OFFCURVE",
"495 210 OFFCURVE",
"461 210 CURVE SMOOTH",
"352 210 OFFCURVE",
"278 283 OFFCURVE",
"278 388 CURVE SMOOTH",
"278 493 OFFCURVE",
"352 562 OFFCURVE",
"461 562 CURVE SMOOTH",
"495 562 OFFCURVE",
"533 555 OFFCURVE",
"571 544 CURVE",
"621 772 LINE",
"561 772 OFFCURVE",
"524 786 OFFCURVE",
"449 786 CURVE SMOOTH",
"190 786 OFFCURVE",
"11 622 OFFCURVE",
"11 388 CURVE SMOOTH",
"11 151 OFFCURVE",
"190 -14 OFFCURVE",
"449 -14 CURVE SMOOTH"
);
},
{
closed = 1;
nodes = (
"968 300 LINE",
"968 477 LINE",
"684 477 LINE",
"684 300 LINE"
);
},
{
closed = 1;
nodes = (
"1293 0 LINE",
"1293 327 LINE",
"1035 327 LINE",
"1035 207 LINE",
"815 207 LINE",
"815 565 LINE",
"1026 565 LINE",
"1026 445 LINE",
"1284 445 LINE",
"1284 772 LINE",
"557 772 LINE",
"557 0 LINE"
);
}
);
width = 1326;
},
{
associatedMasterId = "2C5E45D0-97E8-45AA-A5B2-946753DF54E1";
components = (
{
alignment = -1;
name = E;
transform = "{1, 0, 0, 1, 454, 0}";
},
{
alignment = -1;
name = D;
transform = "{-1, 0, 0, 1, 832, 0}";
}
);
layerId = "858785A6-E3A3-44FE-8D8B-6ED84D74DC74";
name = "Mar 14 18, 14:26";
width = 1248;
},
{
anchors = (
{
name = bottom;
position = "{615, 0}";
},
{
name = top;
position = "{616, 736}";
}
);
layerId = "A59F1195-5331-40FD-8BD6-3900E1073F61";
paths = (
{
closed = 1;
nodes = (
"526 -8 OFFCURVE",
"602 0 OFFCURVE",
"635 0 CURVE",
"627 27 LINE",
"567 20 OFFCURVE",
"499 16 OFFCURVE",
"464 16 CURVE SMOOTH",
"221 16 OFFCURVE",
"77 164 OFFCURVE",
"77 376 CURVE SMOOTH",
"77 589 OFFCURVE",
"221 736 OFFCURVE",
"464 736 CURVE SMOOTH",
"500 736 OFFCURVE",
"567 731 OFFCURVE",
"627 725 CURVE",
"635 752 LINE",
"601 752 OFFCURVE",
"526 760 OFFCURVE",
"464 760 CURVE SMOOTH",
"207 760 OFFCURVE",
"51 603 OFFCURVE",
"51 376 CURVE SMOOTH",
"51 150 OFFCURVE",
"207 -8 OFFCURVE",
"464 -8 CURVE SMOOTH"
);
},
{
closed = 1;
nodes = (
"974 368 LINE",
"974 391 LINE",
"633 391 LINE",
"633 368 LINE"
);
},
{
closed = 1;
nodes = (
"1173 0 LINE",
"1173 195 LINE",
"1148 195 LINE",
"1148 23 LINE",
"644 23 LINE",
"644 729 LINE",
"1139 729 LINE",
"1139 557 LINE",
"1164 557 LINE",
"1164 752 LINE",
"619 752 LINE",
"619 0 LINE"
);
}
);
width = 1231;
},
{
anchors = (
{
name = bottom;
position = "{685, 0}";
},
{
name = top;
position = "{685, 732}";
}
);
associatedMasterId = "2C5E45D0-97E8-45AA-A5B2-946753DF54E1";
layerId = "55ED4503-68A3-4FCF-A30C-5343E82E22AB";
name = "Jun 20 18, 11:42";
paths = (
{
closed = 1;
nodes = (
"602 55 LINE",
"602 97 LINE",
"735 108 OFFCURVE",
"826 222 OFFCURVE",
"826 378 CURVE SMOOTH",
"826 531 OFFCURVE",
"735 644 OFFCURVE",
"602 655 CURVE",
"602 704 LINE",
"436 764 LINE",
"205 764 OFFCURVE",
"46 605 OFFCURVE",
"46 378 CURVE SMOOTH",
"46 148 OFFCURVE",
"205 -12 OFFCURVE",
"436 -12 CURVE"
);
},
{
closed = 1;
nodes = (
"270 88 OFFCURVE",
"155 207 OFFCURVE",
"155 378 CURVE SMOOTH",
"155 548 OFFCURVE",
"270 664 OFFCURVE",
"436 664 CURVE SMOOTH",
"601 664 OFFCURVE",
"717 548 OFFCURVE",
"717 378 CURVE SMOOTH",
"717 207 OFFCURVE",
"602 88 OFFCURVE",
"436 88 CURVE SMOOTH"
);
},
{
closed = 1;
nodes = (
"499 -12 OFFCURVE",
"542 0 OFFCURVE",
"650 0 CURVE SMOOTH",
"1259 0 LINE",
"1259 227 LINE",
"1157 227 LINE",
"1157 93 LINE",
"557 93 LINE",
"448 46 LINE",
"436 -12 LINE"
);
},
{
closed = 1;
nodes = (
"1059 334 LINE",
"1059 424 LINE",
"784 424 LINE",
"784 334 LINE"
);
},
{
closed = 1;
nodes = (
"1250 525 LINE",
"1250 752 LINE",
"650 752 LINE SMOOTH",
"542 752 OFFCURVE",
"499 764 OFFCURVE",
"436 764 CURVE",
"443 706 LINE",
"567 659 LINE",
"1148 659 LINE",
"1148 525 LINE"
);
}
);
width = 1315;
},
{
anchors = (
{
name = bottom;
position = "{426, 0}";
},
{
name = horn;
position = "{282, 752}";
},
{
name = ogonek;
position = "{1318, 0}";
},
{
name = top;
position = "{426, 732}";
}
);
associatedMasterId = "2C5E45D0-97E8-45AA-A5B2-946753DF54E1";
layerId = "14983B8F-25DB-4851-B902-4D1EDCC4ECFB";
name = "Jun 20 18, 11:47";
paths = (
{
closed = 1;
nodes = (
"776 424 LINE",
"776 334 LINE",
"1094 334 LINE",
"1094 424 LINE"
);
},
{
closed = 1;
nodes = (
"1192 93 LINE",
"820 93 LINE",
"820 659 LINE",
"1183 659 LINE",
"1183 525 LINE",
"1285 525 LINE",
"1285 752 LINE",
"718 752 LINE",
"718 0 LINE",
"1294 0 LINE",
"1294 227 LINE",
"1192 227 LINE"
);
},
{
closed = 1;
nodes = (
"584 -12 OFFCURVE",
"694 84 OFFCURVE",
"714 224 CURVE",
"739 224 LINE",
"739 532 LINE",
"714 532 LINE",
"694 668 OFFCURVE",
"585 764 OFFCURVE",
"419 764 CURVE SMOOTH",
"205 764 OFFCURVE",
"46 605 OFFCURVE",
"46 378 CURVE SMOOTH",
"46 148 OFFCURVE",
"205 -12 OFFCURVE",
"419 -12 CURVE SMOOTH"
);
},
{
closed = 1;
nodes = (
"269 88 OFFCURVE",
"154 207 OFFCURVE",
"154 378 CURVE SMOOTH",
"154 548 OFFCURVE",
"269 664 OFFCURVE",
"436 664 CURVE SMOOTH",
"603 664 OFFCURVE",
"718 548 OFFCURVE",
"718 378 CURVE SMOOTH",
"718 207 OFFCURVE",
"603 88 OFFCURVE",
"436 88 CURVE SMOOTH"
);
}
);
width = 1350;
},
{
anchors = (
{
name = bottom;
position = "{426, 0}";
},
{
name = top;
position = "{426, 732}";
}
);
associatedMasterId = "2C5E45D0-97E8-45AA-A5B2-946753DF54E1";
components = (
{
name = E;
transform = "{1, 0, 0, 1, 839, 0}";
}
);
layerId = "6B78C044-3653-40A5-B49D-3E9EC5692803";
name = "Jun 20 18, 11:48";
paths = (
{
closed = 1;
nodes = (
"834 323 LINE",
"812 182 OFFCURVE",
"705 88 OFFCURVE",
"556 88 CURVE SMOOTH",
"389 88 OFFCURVE",
"274 207 OFFCURVE",
"274 378 CURVE SMOOTH",
"274 548 OFFCURVE",
"389 664 OFFCURVE",
"556 664 CURVE SMOOTH",
"699 664 OFFCURVE",
"804 579 OFFCURVE",
"831 447 CURVE",
"941 447 LINE",
"912 637 OFFCURVE",
"763 764 OFFCURVE",
"556 764 CURVE SMOOTH",
"325 764 OFFCURVE",
"166 605 OFFCURVE",
"166 378 CURVE SMOOTH",
"166 148 OFFCURVE",
"325 -12 OFFCURVE",
"556 -12 CURVE SMOOTH",
"768 -12 OFFCURVE",
"920 123 OFFCURVE",
"943 323 CURVE"
);
}
);
width = 1633;
},
{
anchors = (
{
name = bottom;
position = "{706, 0}";
},
{
name = top;
position = "{706, 772}";
}
);
associatedMasterId = "BE4E587A-F76C-447B-AA28-A45E40876AAF";
layerId = "A68C9430-E67F-4079-A86D-94317AC3A705";
name = "Jun 20 18, 14:35";
paths = (
{
closed = 1;
nodes = (
"681 173 LINE",
"681 215 LINE",
"785 222 OFFCURVE",
"857 292 OFFCURVE",
"857 388 CURVE SMOOTH",
"857 483 OFFCURVE",
"785 552 OFFCURVE",
"681 557 CURVE",
"681 606 LINE",
"434 786 LINE",
"183 786 OFFCURVE",
"11 622 OFFCURVE",
"11 388 CURVE SMOOTH",
"11 151 OFFCURVE",
"183 -14 OFFCURVE",
"434 -14 CURVE"
);
},
{
closed = 1;
nodes = (
"342 229 OFFCURVE",
"278 294 OFFCURVE",
"278 388 CURVE SMOOTH",
"278 480 OFFCURVE",
"342 543 OFFCURVE",
"434 543 CURVE SMOOTH",
"526 543 OFFCURVE",
"590 480 OFFCURVE",
"590 388 CURVE SMOOTH",
"590 294 OFFCURVE",
"526 229 OFFCURVE",
"434 229 CURVE SMOOTH"
);
},
{
closed = 1;
nodes = (
"497 -14 OFFCURVE",
"540 0 OFFCURVE",
"648 0 CURVE SMOOTH",
"1280 0 LINE",
"1280 327 LINE",
"1022 327 LINE",
"1022 207 LINE",
"527 207 LINE",
"446 46 LINE",
"434 -14 LINE"
);
},
{
closed = 1;
nodes = (
"961 300 LINE",
"961 477 LINE",
"781 477 LINE",
"781 300 LINE"
);
},
{
closed = 1;
nodes = (
"1271 465 LINE",
"1271 772 LINE",
"648 772 LINE SMOOTH",
"540 772 OFFCURVE",
"497 786 OFFCURVE",
"434 786 CURVE",
"441 726 LINE",
"527 565 LINE",
"1013 565 LINE",
"1013 465 LINE"
);
}
);
width = 1313;
},
{
anchors = (
{
name = bottom;
position = "{645, 0}";
},
{
name = top;
position = "{645, 732}";
}
);
associatedMasterId = "67AEAADB-8447-4819-9D92-8BB76BD22042";
layerId = "812C185E-5140-4A9A-85D2-242B0AC6B3FF";
name = "Jun 20 18, 14:47";
paths = (
{
closed = 1;
nodes = (
"540 3 LINE",
"540 6 LINE",
"711 48 OFFCURVE",
"820 189 OFFCURVE",
"820 378 CURVE SMOOTH",
"820 564 OFFCURVE",
"710 704 OFFCURVE",
"540 746 CURVE",
"540 750 LINE",
"436 759 LINE",
"209 759 OFFCURVE",
"52 602 OFFCURVE",
"52 378 CURVE SMOOTH",
"52 151 OFFCURVE",
"209 -7 OFFCURVE",
"436 -7 CURVE"
);
},
{
closed = 1;
nodes = (
"211 -2 OFFCURVE",
"57 154 OFFCURVE",
"57 378 CURVE SMOOTH",
"57 599 OFFCURVE",
"211 754 OFFCURVE",
"436 754 CURVE SMOOTH",
"661 754 OFFCURVE",
"815 599 OFFCURVE",
"815 378 CURVE SMOOTH",
"815 154 OFFCURVE",
"661 -2 OFFCURVE",
"436 -2 CURVE SMOOTH"
);
},
{
closed = 1;
nodes = (
"487 -7 OFFCURVE",
"522 0 OFFCURVE",
"570 0 CURVE SMOOTH",
"1218 0 LINE",
"1218 187 LINE",
"1213 187 LINE",
"1213 5 LINE",
"527 5 LINE",
"468 -2 LINE",
"436 -7 LINE"
);
},
{
closed = 1;
nodes = (
"1056 377 LINE",
"1056 382 LINE",
"817 382 LINE",
"817 377 LINE"
);
},
{
closed = 1;
nodes = (
"1209 565 LINE",
"1209 752 LINE",
"570 752 LINE SMOOTH",
"522 752 OFFCURVE",
"487 759 OFFCURVE",
"436 759 CURVE",
"469 755 LINE",
"531 747 LINE",
"1204 747 LINE",
"1204 565 LINE"
);
}
);
width = 1277;
},
{
anchors = (
{
name = bottom;
position = "{636, 0}";
},
{
name = top;
position = "{642, 752}";
}
);
associatedMasterId = "2C5E45D0-97E8-45AA-A5B2-946753DF54E1";
layerId = "992AFCC7-4C64-40AF-93C2-6BF4BA1CEF7A";
name = "Jun 22 18, 11:10";
paths = (
{
closed = 1;
nodes = (
"505 -12 OFFCURVE",
"572 0 OFFCURVE",
"644 0 CURVE",
"647 388 LINE",
"647 245 OFFCURVE",
"626 168 OFFCURVE",
"586 132 CURVE SMOOTH",
"548 96 OFFCURVE",
"480 88 OFFCURVE",
"433 88 CURVE SMOOTH",
"254 88 OFFCURVE",
"184 207 OFFCURVE",
"184 378 CURVE SMOOTH",
"184 548 OFFCURVE",
"264 664 OFFCURVE",
"433 664 CURVE SMOOTH",
"585 664 OFFCURVE",
"647 622 OFFCURVE",
"647 388 CURVE",
"644 752 LINE",
"567 752 OFFCURVE",
"505 764 OFFCURVE",
"432 764 CURVE SMOOTH",
"199 764 OFFCURVE",
"76 605 OFFCURVE",
"76 378 CURVE SMOOTH",
"76 148 OFFCURVE",
"189 -12 OFFCURVE",
"432 -12 CURVE SMOOTH"
);
},
{
closed = 1;
nodes = (
"1002 334 LINE",
"1002 424 LINE",
"675 424 LINE",
"675 334 LINE"
);
},
{
closed = 1;
nodes = (
"1202 0 LINE",
"1202 227 LINE",
"1100 227 LINE",
"1100 93 LINE",
"699 93 LINE",
"741 191 OFFCURVE",
"752 290 OFFCURVE",
"752 388 CURVE SMOOTH",
"752 478 OFFCURVE",
"741 569 OFFCURVE",
"699 659 CURVE",
"1091 659 LINE",
"1091 525 LINE",
"1193 525 LINE",
"1193 752 LINE",
"617 752 LINE",
"647 629 OFFCURVE",
"647 506 OFFCURVE",
"647 388 CURVE SMOOTH",
"647 255 OFFCURVE",
"647 128 OFFCURVE",
"617 0 CURVE"
);
}
);
width = 1273;
}
);
leftKerningGroup = O;
leftMetricsKey = O;
rightKerningGroup = E;
rightMetricsKey = E;
unicode = 0152;
},
{
glyphname = P;
layers = (
{
anchors = (
{
name = bottom;
position = "{179, 0}";
},
{
name = top;
position = "{374, 732}";
}
);
layerId = "67AEAADB-8447-4819-9D92-8BB76BD22042";
rightMetricsKey = "=F+12";
paths = (
{
closed = 1;
nodes = (
"330 0 LINE",
"330 5 LINE",
"181 5 LINE",
"181 752 LINE",
"27 752 LINE",
"27 747 LINE",
"176 747 LINE",
"176 5 LINE",
"27 5 LINE",
"27 0 LINE"
);
},
{
closed = 1;
nodes = (
"436 377 LINE SMOOTH",
"606 377 OFFCURVE",
"691 448 OFFCURVE",
"691 565 CURVE SMOOTH",
"691 682 OFFCURVE",
"606 752 OFFCURVE",
"436 752 CURVE SMOOTH",
"178 752 LINE",
"178 747 LINE",
"436 747 LINE SMOOTH",
"603 747 OFFCURVE",
"686 679 OFFCURVE",
"686 565 CURVE SMOOTH",
"686 452 OFFCURVE",
"603 382 OFFCURVE",
"436 382 CURVE SMOOTH",
"179 382 LINE",
"179 377 LINE"
);
}
);
width = 728;
},
{
anchors = (
{
name = bottom;
position = "{211, 0}";
},
{
name = top;
position = "{401, 772}";
}
);
layerId = "BE4E587A-F76C-447B-AA28-A45E40876AAF";
rightMetricsKey = "=F+12";
paths = (
{
closed = 1;
nodes = (
"393 0 LINE",
"393 207 LINE",
"336 207 LINE",
"336 772 LINE",
"21 772 LINE",
"21 565 LINE",
"78 565 LINE",
"78 207 LINE",
"21 207 LINE",
"21 0 LINE"
);
},
{
closed = 1;
nodes = (
"447 300 LINE SMOOTH",
"658 300 OFFCURVE",
"773 388 OFFCURVE",
"773 537 CURVE SMOOTH",
"773 684 OFFCURVE",
"665 772 OFFCURVE",
"450 772 CURVE SMOOTH",
"290 772 LINE",
"290 565 LINE",
"440 565 LINE SMOOTH",
"478 565 OFFCURVE",
"504 552 OFFCURVE",
"504 522 CURVE SMOOTH",
"504 492 OFFCURVE",
"482 477 OFFCURVE",
"439 477 CURVE SMOOTH",
"273 477 LINE",
"273 300 LINE"
);
}
);
width = 794;
},
{
anchors = (
{
name = bottom;
position = "{191, 0}";
},
{
name = top;
position = "{366, 732}";
}
);
layerId = "2C5E45D0-97E8-45AA-A5B2-946753DF54E1";
rightMetricsKey = "=F+12";
paths = (
{
closed = 1;
nodes = (
"350 0 LINE",
"350 93 LINE",
"240 93 LINE",
"240 752 LINE",
"28 752 LINE",
"28 659 LINE",
"138 659 LINE",
"138 93 LINE",
"28 93 LINE",
"28 0 LINE"
);
},
{
closed = 1;
nodes = (
"421 334 LINE SMOOTH",
"644 334 OFFCURVE",
"687 458 OFFCURVE",
"687 547 CURVE SMOOTH",
"687 676 OFFCURVE",
"600 752 OFFCURVE",
"428 752 CURVE SMOOTH",
"214 752 LINE",
"214 659 LINE",
"424 659 LINE SMOOTH",
"520 659 OFFCURVE",
"583 623 OFFCURVE",
"583 540 CURVE SMOOTH",
"583 462 OFFCURVE",
"528 424 OFFCURVE",
"426 424 CURVE SMOOTH",
"226 424 LINE",
"226 334 LINE"
);
}
);
width = 721;
},
{
associatedMasterId = "67AEAADB-8447-4819-9D92-8BB76BD22042";
layerId = "63AA5395-74B9-4844-978E-A61BF9631CDC";
name = "Dec 23 17, 15:53";
paths = (
{
closed = 1;
nodes = (
"412 595 LINE SMOOTH",
"479 595 OFFCURVE",
"523 569 OFFCURVE",
"523 506 CURVE SMOOTH",
"523 442 OFFCURVE",
"484 412 OFFCURVE",
"411 412 CURVE SMOOTH",
"278 412 LINE",
"278 254 LINE",
"401 254 LINE SMOOTH",
"601 254 OFFCURVE",
"709 362 OFFCURVE",
"709 506 CURVE SMOOTH",
"709 655 OFFCURVE",
"611 752 OFFCURVE",
"416 752 CURVE SMOOTH",
"295 752 LINE",
"295 595 LINE"
);
},
{
closed = 1;
nodes = (
"127 595 LINE",
"127 157 LINE",
"33 157 LINE",
"33 0 LINE",
"399 0 LINE",
"399 157 LINE",
"305 157 LINE",
"305 752 LINE",
"33 752 LINE",
"33 595 LINE"
);
}
);
width = 727;
},
{
anchors = (
{
name = bottom;
position = "{181, 0}";
},
{
name = top;
position = "{372, 732}";
}
);
layerId = "A59F1195-5331-40FD-8BD6-3900E1073F61";
rightMetricsKey = "=F+13";
paths = (
{
closed = 1;
nodes = (
"333 0 LINE",
"333 23 LINE",
"192 23 LINE",
"192 752 LINE",
"27 752 LINE",
"27 729 LINE",
"168 729 LINE",
"168 23 LINE",
"27 23 LINE",
"27 0 LINE"
);
},
{
closed = 1;
nodes = (
"437 368 LINE SMOOTH",
"618 368 OFFCURVE",
"694 450 OFFCURVE",
"694 561 CURVE SMOOTH",
"694 681 OFFCURVE",
"609 752 OFFCURVE",
"439 752 CURVE SMOOTH",
"185 752 LINE",
"185 729 LINE",
"438 729 LINE SMOOTH",
"590 729 OFFCURVE",
"669 668 OFFCURVE",
"669 560 CURVE SMOOTH",
"669 454 OFFCURVE",
"592 391 OFFCURVE",
"438 391 CURVE SMOOTH",
"188 391 LINE",
"188 368 LINE"
);
}
);
width = 731;
}
);
leftKerningGroup = H;
leftMetricsKey = H;
rightKerningGroup = P;
rightMetricsKey = "F+12";
unicode = 0050;
},
{
color = 9;
glyphname = Thorn;
layers = (
{
anchors = (
{
name = bottom;
position = "{347, 0}";
},
{
name = top;
position = "{347, 732}";
}
);
layerId = "67AEAADB-8447-4819-9D92-8BB76BD22042";
paths = (
{
closed = 1;
nodes = (
"176 747 LINE",
"176 5 LINE",
"27 5 LINE",
"27 0 LINE",
"342 0 LINE",
"342 5 LINE",
"181 5 LINE",
"181 747 LINE",
"342 747 LINE",
"342 752 LINE",
"27 752 LINE",
"27 747 LINE"
);
},
{
closed = 1;
nodes = (
"402 562 LINE SMOOTH",
"569 562 OFFCURVE",
"652 494 OFFCURVE",
"652 380 CURVE SMOOTH",
"652 267 OFFCURVE",
"569 197 OFFCURVE",
"402 197 CURVE SMOOTH",
"179 197 LINE",
"179 192 LINE",
"402 192 LINE SMOOTH",
"572 192 OFFCURVE",
"657 263 OFFCURVE",
"657 380 CURVE SMOOTH",
"657 497 OFFCURVE",
"572 567 OFFCURVE",
"402 567 CURVE SMOOTH",
"178 567 LINE",
"178 562 LINE"
);
}
);
width = 694;
},
{
anchors = (
{
name = bottom;
position = "{346, 0}";
},
{
name = top;
position = "{346, 732}";
}
);
layerId = "2C5E45D0-97E8-45AA-A5B2-946753DF54E1";
paths = (
{
closed = 1;
nodes = (
"138 659 LINE",
"138 93 LINE",
"28 93 LINE",
"28 0 LINE",
"350 0 LINE",
"350 93 LINE",
"240 93 LINE",
"240 659 LINE",
"350 659 LINE",
"350 752 LINE",
"28 752 LINE",
"28 659 LINE"
);
},
{
closed = 1;
nodes = (
"394 481 LINE SMOOTH",
"490 481 OFFCURVE",
"553 449 OFFCURVE",
"553 378 CURVE SMOOTH",
"553 309 OFFCURVE",
"498 276 OFFCURVE",
"396 276 CURVE SMOOTH",
"226 276 LINE",
"226 183 LINE",
"391 183 LINE SMOOTH",
"614 183 OFFCURVE",
"657 297 OFFCURVE",
"657 378 CURVE SMOOTH",
"657 501 OFFCURVE",
"570 574 OFFCURVE",
"398 574 CURVE SMOOTH",
"213 574 LINE",
"213 481 LINE"
);
}
);
width = 691;
},
{
anchors = (
{
name = bottom;
position = "{346, 0}";
},
{
name = top;
position = "{346, 732}";
}
);
associatedMasterId = "2C5E45D0-97E8-45AA-A5B2-946753DF54E1";
layerId = "81DC54D9-03EB-4C52-B5E0-B7460E1DD03C";
name = "[130]";
paths = (
{
closed = 1;
nodes = (
"138 659 LINE",
"138 93 LINE",
"28 93 LINE",
"28 0 LINE",
"240 0 LINE",
"240 752 LINE",
"28 752 LINE",
"28 659 LINE"
);
},
{
closed = 1;
nodes = (
"394 481 LINE SMOOTH",
"490 481 OFFCURVE",
"553 449 OFFCURVE",
"553 378 CURVE SMOOTH",
"553 309 OFFCURVE",
"498 276 OFFCURVE",
"396 276 CURVE SMOOTH",
"226 276 LINE",
"226 183 LINE",
"391 183 LINE SMOOTH",
"614 183 OFFCURVE",
"657 297 OFFCURVE",
"657 378 CURVE SMOOTH",
"657 501 OFFCURVE",
"570 574 OFFCURVE",
"398 574 CURVE SMOOTH",
"213 574 LINE",
"213 481 LINE"
);
}
);
width = 691;
},
{
anchors = (
{
name = bottom;
position = "{346, 0}";
},
{
name = top;
position = "{346, 732}";
}
);
layerId = "A59F1195-5331-40FD-8BD6-3900E1073F61";
paths = (
{
closed = 1;
nodes = (
"168 729 LINE",
"168 23 LINE",
"27 23 LINE",
"27 0 LINE",
"343 0 LINE",
"343 23 LINE",
"192 23 LINE",
"192 729 LINE",
"343 729 LINE",
"343 752 LINE",
"27 752 LINE",
"27 729 LINE"
);
},
{
closed = 1;
nodes = (
"400 545 LINE SMOOTH",
"552 545 OFFCURVE",
"631 485 OFFCURVE",
"631 380 CURVE SMOOTH",
"631 276 OFFCURVE",
"554 213 OFFCURVE",
"400 213 CURVE SMOOTH",
"188 213 LINE",
"188 190 LINE",
"399 190 LINE SMOOTH",
"580 190 OFFCURVE",
"656 270 OFFCURVE",
"656 380 CURVE SMOOTH",
"656 498 OFFCURVE",
"571 568 OFFCURVE",
"401 568 CURVE SMOOTH",
"185 568 LINE",
"185 545 LINE"
);
}
);
width = 693;
},
{
anchors = (
{
name = bottom;
position = "{367, 0}";
},
{
name = top;
position = "{367, 772}";
}
);
associatedMasterId = "BE4E587A-F76C-447B-AA28-A45E40876AAF";
layerId = "EE2FD1E3-476F-4C8C-ADC9-9298FA48E216";
name = "]130]";
paths = (
{
closed = 1;
nodes = (
"78 565 LINE",
"78 207 LINE",
"21 207 LINE",
"21 0 LINE",
"393 0 LINE",
"393 207 LINE",
"336 207 LINE",
"336 565 LINE",
"393 565 LINE",
"393 772 LINE",
"21 772 LINE",
"21 565 LINE"
);
},
{
closed = 1;
nodes = (
"390 422 LINE SMOOTH",
"422 422 OFFCURVE",
"444 412 OFFCURVE",
"444 387 CURVE SMOOTH",
"444 365 OFFCURVE",
"426 354 OFFCURVE",
"389 354 CURVE SMOOTH",
"232 354 LINE",
"232 181 LINE",
"417 181 LINE SMOOTH",
"607 181 OFFCURVE",
"712 259 OFFCURVE",
"712 389 CURVE SMOOTH",
"712 518 OFFCURVE",
"614 595 OFFCURVE",
"420 595 CURVE SMOOTH",
"232 595 LINE",
"232 422 LINE"
);
}
);
width = 733;
},
{
anchors = (
{
name = bottom;
position = "{388, 0}";
},
{
name = top;
position = "{388, 772}";
}
);
layerId = "BE4E587A-F76C-447B-AA28-A45E40876AAF";
paths = (
{
closed = 1;
nodes = (
"78 565 LINE",
"78 207 LINE",
"21 207 LINE",
"21 0 LINE",
"336 0 LINE",
"336 772 LINE",
"21 772 LINE",
"21 565 LINE"
);
},
{
closed = 1;
nodes = (
"419 437 LINE SMOOTH",
"459 437 OFFCURVE",
"486 423 OFFCURVE",
"486 390 CURVE SMOOTH",
"486 357 OFFCURVE",
"463 341 OFFCURVE",
"418 341 CURVE SMOOTH",
"262 341 LINE",
"262 164 LINE",
"426 164 LINE SMOOTH",
"638 164 OFFCURVE",
"754 247 OFFCURVE",
"754 390 CURVE SMOOTH",
"754 531 OFFCURVE",
"645 614 OFFCURVE",
"429 614 CURVE SMOOTH",
"279 614 LINE",
"279 437 LINE"
);
}
);
width = 775;
},
{
anchors = (
{
name = bottom;
position = "{346, 0}";
},
{
name = top;
position = "{346, 732}";
}
);
associatedMasterId = "A59F1195-5331-40FD-8BD6-3900E1073F61";
layerId = "26FAE16C-F7B8-4BFD-B4C9-EF1548CB81C4";
name = "[130]";
paths = (
{
closed = 1;
nodes = (
"168 729 LINE",
"168 23 LINE",
"27 23 LINE",
"27 0 LINE",
"192 0 LINE",
"192 752 LINE",
"27 752 LINE",
"27 729 LINE"
);
},
{
closed = 1;
nodes = (
"400 545 LINE SMOOTH",
"552 545 OFFCURVE",
"631 485 OFFCURVE",
"631 380 CURVE SMOOTH",
"631 276 OFFCURVE",
"554 213 OFFCURVE",
"400 213 CURVE SMOOTH",
"188 213 LINE",
"188 190 LINE",
"399 190 LINE SMOOTH",
"580 190 OFFCURVE",
"656 270 OFFCURVE",
"656 380 CURVE SMOOTH",
"656 498 OFFCURVE",
"571 568 OFFCURVE",
"401 568 CURVE SMOOTH",
"185 568 LINE",
"185 545 LINE"
);
}
);
width = 693;
},
{
anchors = (
{
name = bottom;
position = "{347, 0}";
},
{
name = top;
position = "{347, 732}";
}
);
associatedMasterId = "67AEAADB-8447-4819-9D92-8BB76BD22042";
layerId = "1A528B60-01A2-46F0-A13F-DA1F75FCA657";
name = "[130]";
paths = (
{
closed = 1;
nodes = (
"176 747 LINE",
"176 5 LINE",
"27 5 LINE",
"27 0 LINE",
"181 0 LINE",
"181 752 LINE",
"27 752 LINE",
"27 747 LINE"
);
},
{
closed = 1;
nodes = (
"402 562 LINE SMOOTH",
"569 562 OFFCURVE",
"652 494 OFFCURVE",
"652 380 CURVE SMOOTH",
"652 267 OFFCURVE",
"569 197 OFFCURVE",
"402 197 CURVE SMOOTH",
"179 197 LINE",
"179 192 LINE",
"402 192 LINE SMOOTH",
"572 192 OFFCURVE",
"657 263 OFFCURVE",
"657 380 CURVE SMOOTH",
"657 497 OFFCURVE",
"572 567 OFFCURVE",
"402 567 CURVE SMOOTH",
"178 567 LINE",
"178 562 LINE"
);
}
);
width = 694;
}
);
leftKerningGroup = H;
leftMetricsKey = H;
rightKerningGroup = Thorn;
rightMetricsKey = P;
unicode = 00DE;
},
{
glyphname = Q;
layers = (
{
anchors = (
{
name = bottom;
position = "{431, -182}";
},
{
name = top;
position = "{431, 732}";
}
);
layerId = "67AEAADB-8447-4819-9D92-8BB76BD22042";
paths = (
{
closed = 1;
nodes = (
"655 -7 OFFCURVE",
"810 151 OFFCURVE",
"810 378 CURVE SMOOTH",
"810 602 OFFCURVE",
"655 759 OFFCURVE",
"431 759 CURVE SMOOTH",
"207 759 OFFCURVE",
"52 602 OFFCURVE",
"52 378 CURVE SMOOTH",
"52 151 OFFCURVE",
"207 -7 OFFCURVE",
"431 -7 CURVE SMOOTH"
);
},
{
closed = 1;
nodes = (
"209 -2 OFFCURVE",
"57 154 OFFCURVE",
"57 378 CURVE SMOOTH",
"57 599 OFFCURVE",
"209 754 OFFCURVE",
"431 754 CURVE SMOOTH",
"653 754 OFFCURVE",
"805 599 OFFCURVE",
"805 378 CURVE SMOOTH",
"805 154 OFFCURVE",
"653 -2 OFFCURVE",
"431 -2 CURVE SMOOTH"
);
},
{
closed = 1;
nodes = (
"529 7 LINE",
"387 -21 OFFCURVE",
"333 -48 OFFCURVE",
"333 -106 CURVE SMOOTH",
"333 -151 OFFCURVE",
"364 -182 OFFCURVE",
"443 -182 CURVE SMOOTH",
"756 -182 LINE",
"756 -177 LINE",
"443 -177 LINE SMOOTH",
"367 -177 OFFCURVE",
"338 -147 OFFCURVE",
"338 -106 CURVE SMOOTH",
"338 -51 OFFCURVE",
"387 -26 OFFCURVE",
"529 4 CURVE"
);
}
);
width = 862;
},
{
anchors = (
{
name = bottom;
position = "{436, -182}";
},
{
name = top;
position = "{436, 732}";
}
);
layerId = "2C5E45D0-97E8-45AA-A5B2-946753DF54E1";
paths = (
{
closed = 1;
nodes = (
"667 -11 OFFCURVE",
"826 149 OFFCURVE",
"826 378 CURVE SMOOTH",
"826 604 OFFCURVE",
"667 763 OFFCURVE",
"436 763 CURVE SMOOTH",
"205 763 OFFCURVE",
"46 604 OFFCURVE",
"46 378 CURVE SMOOTH",
"46 149 OFFCURVE",
"204 -10 OFFCURVE",
"436 -11 CURVE SMOOTH"
);
},
{
closed = 1;
nodes = (
"270 89 OFFCURVE",
"155 208 OFFCURVE",
"155 378 CURVE SMOOTH",
"155 547 OFFCURVE",
"270 663 OFFCURVE",
"436 663 CURVE SMOOTH",
"602 663 OFFCURVE",
"717 547 OFFCURVE",
"717 378 CURVE SMOOTH",
"717 208 OFFCURVE",
"602 89 OFFCURVE",
"436 89 CURVE SMOOTH"
);
},
{
closed = 1;
nodes = (
"488 82 LINE",
"372 52 OFFCURVE",
"327 16 OFFCURVE",
"327 -56 CURVE SMOOTH",
"327 -134 OFFCURVE",
"373 -182 OFFCURVE",
"491 -182 CURVE SMOOTH",
"798 -182 LINE",
"798 -89 LINE",
"497 -89 LINE SMOOTH",
"449 -89 OFFCURVE",
"429 -78 OFFCURVE",
"429 -45 CURVE SMOOTH",
"429 -15 OFFCURVE",
"447 -1 OFFCURVE",
"490 29 CURVE"
);
}
);
width = 870;
},
{
associatedMasterId = "2C5E45D0-97E8-45AA-A5B2-946753DF54E1";
backgroundImage = {
crop = "{{0, 0}, {2448, 3264}}";
imagePath = "../../../Design/Reference/Bruce/Bruce1848/1848 George Bruce & Co. type specimen book..jpg";
locked = "1";
transform = "{6.87522, 0, 0, 6.87522, -1066, -8409}";
};
layerId = "335EA497-6E32-4BE1-8A61-C06F4C286B9A";
name = "Dec 24 17, 01:19";
paths = (
{
closed = 1;
nodes = (
"660 -11 OFFCURVE",
"819 149 OFFCURVE",
"819 378 CURVE SMOOTH",
"819 604 OFFCURVE",
"660 763 OFFCURVE",
"429 763 CURVE SMOOTH",
"198 763 OFFCURVE",
"39 604 OFFCURVE",
"39 378 CURVE SMOOTH",
"39 158 OFFCURVE",
"196 5 OFFCURVE",
"427 4 CURVE",
"429 -11 LINE"
);
},
{
closed = 1;
nodes = (
"263 89 OFFCURVE",
"148 208 OFFCURVE",
"148 378 CURVE SMOOTH",
"148 547 OFFCURVE",
"263 663 OFFCURVE",
"429 663 CURVE SMOOTH",
"595 663 OFFCURVE",
"710 547 OFFCURVE",
"710 378 CURVE SMOOTH",
"710 208 OFFCURVE",
"595 89 OFFCURVE",
"429 89 CURVE SMOOTH"
);
},
{
closed = 1;
nodes = (
"427 42 LINE",
"306 42 OFFCURVE",
"259 9 OFFCURVE",
"259 -62 CURVE SMOOTH",
"259 -134 OFFCURVE",
"305 -182 OFFCURVE",
"423 -182 CURVE SMOOTH",
"770 -182 LINE",
"770 -89 LINE",
"429 -89 LINE SMOOTH",
"381 -89 OFFCURVE",
"361 -78 OFFCURVE",
"361 -50 CURVE SMOOTH",
"361 -22 OFFCURVE",
"381 -11 OFFCURVE",
"429 -11 CURVE"
);
}
);
width = 858;
},
{
anchors = (
{
name = bottom;
position = "{434, -210}";
},
{
name = top;
position = "{434, 752}";
}
);
layerId = "BE4E587A-F76C-447B-AA28-A45E40876AAF";
paths = (
{
closed = 1;
nodes = (
"684 -14 OFFCURVE",
"857 151 OFFCURVE",
"857 388 CURVE SMOOTH",
"857 622 OFFCURVE",
"684 786 OFFCURVE",
"434 786 CURVE SMOOTH",
"184 786 OFFCURVE",
"11 622 OFFCURVE",
"11 388 CURVE SMOOTH",
"11 151 OFFCURVE",
"184 -14 OFFCURVE",
"434 -14 CURVE SMOOTH"
);
},
{
closed = 1;
nodes = (
"342 229 OFFCURVE",
"278 294 OFFCURVE",
"278 388 CURVE SMOOTH",
"278 480 OFFCURVE",
"342 543 OFFCURVE",
"434 543 CURVE SMOOTH",
"526 543 OFFCURVE",
"590 480 OFFCURVE",
"590 388 CURVE SMOOTH",
"590 294 OFFCURVE",
"526 229 OFFCURVE",
"434 229 CURVE SMOOTH"
);
},
{
closed = 1;
nodes = (
"523 92 LINE",
"327 75 OFFCURVE",
"252 10 OFFCURVE",
"252 -82 CURVE SMOOTH",
"252 -160 OFFCURVE",
"304 -210 OFFCURVE",
"437 -210 CURVE SMOOTH",
"763 -210 LINE",
"763 -34 LINE",
"518 -34 LINE SMOOTH",
"496 -34 OFFCURVE",
"487 -31 OFFCURVE",
"487 -20 CURVE SMOOTH",
"487 -8 OFFCURVE",
"497 1 OFFCURVE",
"525 9 CURVE"
);
}
);
width = 868;
},
{
anchors = (
{
name = bottom;
position = "{432, -182}";
},
{
name = top;
position = "{432, 732}";
}
);
layerId = "A59F1195-5331-40FD-8BD6-3900E1073F61";
paths = (
{
closed = 1;
nodes = (
"657 -8 OFFCURVE",
"813 151 OFFCURVE",
"813 378 CURVE SMOOTH",
"813 602 OFFCURVE",
"657 760 OFFCURVE",
"432 760 CURVE SMOOTH",
"207 760 OFFCURVE",
"51 602 OFFCURVE",
"51 378 CURVE SMOOTH",
"51 151 OFFCURVE",
"206 -8 OFFCURVE",
"432 -8 CURVE SMOOTH"
);
},
{
closed = 1;
nodes = (
"221 17 OFFCURVE",
"77 165 OFFCURVE",
"77 378 CURVE SMOOTH",
"77 588 OFFCURVE",
"221 735 OFFCURVE",
"432 735 CURVE SMOOTH",
"643 735 OFFCURVE",
"787 588 OFFCURVE",
"787 378 CURVE SMOOTH",
"787 165 OFFCURVE",
"643 17 OFFCURVE",
"432 17 CURVE SMOOTH"
);
},
{
closed = 1;
nodes = (
"521 14 LINE",
"381 -9 OFFCURVE",
"332 -38 OFFCURVE",
"332 -98 CURVE SMOOTH",
"332 -148 OFFCURVE",
"366 -182 OFFCURVE",
"453 -182 CURVE SMOOTH",
"765 -182 LINE",
"765 -159 LINE",
"454 -159 LINE SMOOTH",
"384 -159 OFFCURVE",
"357 -133 OFFCURVE",
"357 -94 CURVE SMOOTH",
"357 -46 OFFCURVE",
"399 -25 OFFCURVE",
"521 1 CURVE"
);
}
);
width = 864;
},
{
anchors = (
{
name = bottom;
position = "{434, -182}";
},
{
name = top;
position = "{434, 732}";
}
);
associatedMasterId = "2C5E45D0-97E8-45AA-A5B2-946753DF54E1";
layerId = "DA4EFF85-A7BA-4B74-A3D4-1A741C06E649";
name = "Jun 5 18, 16:23";
paths = (
{
closed = 1;
nodes = (
"665 -11 OFFCURVE",
"824 149 OFFCURVE",
"824 378 CURVE SMOOTH",
"824 604 OFFCURVE",
"665 763 OFFCURVE",
"434 763 CURVE SMOOTH",
"203 763 OFFCURVE",
"44 604 OFFCURVE",
"44 378 CURVE SMOOTH",
"44 149 OFFCURVE",
"202 -10 OFFCURVE",
"434 -11 CURVE SMOOTH"
);
},
{
closed = 1;
nodes = (
"268 89 OFFCURVE",
"153 208 OFFCURVE",
"153 378 CURVE SMOOTH",
"153 547 OFFCURVE",
"268 663 OFFCURVE",
"434 663 CURVE SMOOTH",
"600 663 OFFCURVE",
"715 547 OFFCURVE",
"715 378 CURVE SMOOTH",
"715 208 OFFCURVE",
"600 89 OFFCURVE",
"434 89 CURVE SMOOTH"
);
},
{
closed = 1;
nodes = (
"822 -28 OFFCURVE",
"782 -62 OFFCURVE",
"731 -62 CURVE SMOOTH",
"573 -62 OFFCURVE",
"645 274 OFFCURVE",
"421 274 CURVE SMOOTH",
"349 274 OFFCURVE",
"287 240 OFFCURVE",
"287 179 CURVE SMOOTH",
"287 151 OFFCURVE",
"300 132 OFFCURVE",
"327 113 CURVE",
"315 64 LINE",
"434 89 LINE",
"388 89 OFFCURVE",
"359 106 OFFCURVE",
"359 141 CURVE SMOOTH",
"359 175 OFFCURVE",
"387 193 OFFCURVE",
"418 193 CURVE SMOOTH",
"552 193 OFFCURVE",
"479 -154 OFFCURVE",
"725 -157 CURVE SMOOTH",
"827 -158 OFFCURVE",
"899 -104 OFFCURVE",
"933 -1 CURVE",
"840 34 LINE"
);
}
);
width = 868;
}
);
leftKerningGroup = O;
leftMetricsKey = O;
rightKerningGroup = O;
unicode = 0051;
},
{
color = 0;
glyphname = R;
layers = (
{
anchors = (
{
name = bottom;
position = "{394, 0}";
},
{
name = top;
position = "{394, 732}";
}
);
layerId = "67AEAADB-8447-4819-9D92-8BB76BD22042";
paths = (
{
closed = 1;
nodes = (
"443 377 LINE",
"474 377 LINE SMOOTH",
"524 377 OFFCURVE",
"549 360 OFFCURVE",
"567 308 CURVE SMOOTH",
"674 0 LINE",
"770 0 LINE",
"770 5 LINE",
"678 5 LINE",
"572 310 LINE SMOOTH",
"555 358 OFFCURVE",
"537 381 OFFCURVE",
"468 381 CURVE"
);
},
{
closed = 1;
nodes = (
"442 747 LINE SMOOTH",
"609 747 OFFCURVE",
"692 677 OFFCURVE",
"692 574 CURVE SMOOTH",
"692 468 OFFCURVE",
"604 382 OFFCURVE",
"441 382 CURVE SMOOTH",
"179 382 LINE",
"179 377 LINE",
"465 377 LINE",
"489 378 LINE",
"489 381 LINE",
"605 390 OFFCURVE",
"697 464 OFFCURVE",
"697 574 CURVE SMOOTH",
"697 680 OFFCURVE",
"612 752 OFFCURVE",
"442 752 CURVE SMOOTH",
"303 752 LINE",
"303 747 LINE"
);
},
{
closed = 1;
nodes = (
"176 747 LINE",
"176 5 LINE",
"27 5 LINE",
"27 0 LINE",
"330 0 LINE",
"330 5 LINE",
"181 5 LINE",
"181 747 LINE",
"330 747 LINE",
"330 752 LINE",
"27 752 LINE",
"27 747 LINE"
);
}
);
width = 807;
},
{
anchors = (
{
name = bottom;
position = "{378, 0}";
},
{
name = top;
position = "{378, 732}";
}
);
layerId = "2C5E45D0-97E8-45AA-A5B2-946753DF54E1";
rightMetricsKey = "=P+4";
paths = (
{
closed = 1;
nodes = (
"353 334 LINE",
"392 334 LINE",
"442 334 OFFCURVE",
"463 316 OFFCURVE",
"481 265 CURVE SMOOTH",
"573 0 LINE",
"727 0 LINE",
"727 93 LINE",
"648 93 LINE",
"563 324 LINE SMOOTH",
"548 365 OFFCURVE",
"502 390 OFFCURVE",
"463 398 CURVE"
);
},
{
closed = 1;
nodes = (
"424 659 LINE SMOOTH",
"520 659 OFFCURVE",
"583 625 OFFCURVE",
"583 546 CURVE SMOOTH",
"583 464 OFFCURVE",
"527 424 OFFCURVE",
"423 424 CURVE SMOOTH",
"226 424 LINE",
"226 334 LINE",
"415 334 LINE",
"542 345 LINE",
"542 362 LINE",
"637 387 OFFCURVE",
"687 461 OFFCURVE",
"687 553 CURVE SMOOTH",
"687 678 OFFCURVE",
"600 752 OFFCURVE",
"428 752 CURVE SMOOTH",
"293 752 LINE",
"293 659 LINE"
);
},
{
closed = 1;
nodes = (
"138 659 LINE",
"138 93 LINE",
"28 93 LINE",
"28 0 LINE",
"350 0 LINE",
"350 93 LINE",
"240 93 LINE",
"240 659 LINE",
"350 659 LINE",
"350 752 LINE",
"28 752 LINE",
"28 659 LINE"
);
}
);
width = 765;
},
{
anchors = (
{
name = bottom;
position = "{445, 0}";
},
{
name = top;
position = "{411, 732}";
}
);
associatedMasterId = "67AEAADB-8447-4819-9D92-8BB76BD22042";
layerId = "28A20D30-0F77-4469-942E-7EA5F3C357A7";
name = "Apr 14 18, 00:17";
paths = (
{
closed = 1;
nodes = (
"462 378 LINE",
"492 377 LINE",
"498 377 OFFCURVE",
"501 375 OFFCURVE",
"503 370 CURVE SMOOTH",
"661 0 LINE",
"734 0 LINE",
"734 5 LINE",
"665 5 LINE",
"508 372 LINE SMOOTH",
"506 376 OFFCURVE",
"503 380 OFFCURVE",
"496 382 CURVE"
);
},
{
closed = 1;
nodes = (
"440 747 LINE SMOOTH",
"607 747 OFFCURVE",
"690 677 OFFCURVE",
"690 571 CURVE SMOOTH",
"690 469 OFFCURVE",
"610 382 OFFCURVE",
"459 382 CURVE SMOOTH",
"172 382 LINE",
"172 377 LINE",
"496 377 LINE",
"502 378 LINE",
"502 380 LINE",
"610 391 OFFCURVE",
"695 461 OFFCURVE",
"695 571 CURVE SMOOTH",
"695 680 OFFCURVE",
"610 752 OFFCURVE",
"440 752 CURVE SMOOTH",
"301 752 LINE",
"301 747 LINE"
);
},
{
closed = 1;
nodes = (
"169 747 LINE",
"169 5 LINE",
"20 5 LINE",
"20 0 LINE",
"323 0 LINE",
"323 5 LINE",
"174 5 LINE",
"174 747 LINE",
"323 747 LINE",
"323 752 LINE",
"20 752 LINE",
"20 747 LINE"
);
}
);
width = 793;
},
{
anchors = (
{
name = bottom;
position = "{417, 0}";
},
{
name = top;
position = "{390, 732}";
}
);
layerId = "A59F1195-5331-40FD-8BD6-3900E1073F61";
rightMetricsKey = "=P+0";
paths = (
{
closed = 1;
nodes = (
"424 368 LINE",
"457 368 LINE",
"507 368 OFFCURVE",
"530 351 OFFCURVE",
"549 299 CURVE SMOOTH",
"656 0 LINE",
"762 0 LINE",
"762 23 LINE",
"673 23 LINE",
"569 313 LINE SMOOTH",
"553 359 OFFCURVE",
"529 383 OFFCURVE",
"466 384 CURVE"
);
},
{
closed = 1;
nodes = (
"438 729 LINE SMOOTH",
"590 729 OFFCURVE",
"669 666 OFFCURVE",
"669 568 CURVE SMOOTH",
"669 467 OFFCURVE",
"588 391 OFFCURVE",
"437 391 CURVE SMOOTH",
"188 391 LINE",
"188 368 LINE",
"454 368 LINE",
"499 371 LINE",
"499 377 LINE",
"611 389 OFFCURVE",
"694 463 OFFCURVE",
"694 570 CURVE SMOOTH",
"694 680 OFFCURVE",
"609 752 OFFCURVE",
"439 752 CURVE SMOOTH",
"300 752 LINE",
"300 729 LINE"
);
},
{
closed = 1;
nodes = (
"168 729 LINE",
"168 23 LINE",
"27 23 LINE",
"27 0 LINE",
"333 0 LINE",
"333 23 LINE",
"192 23 LINE",
"192 729 LINE",
"333 729 LINE",
"333 752 LINE",
"27 752 LINE",
"27 729 LINE"
);
}
);
width = 799;
},
{
anchors = (
{
name = bottom;
position = "{376, 0}";
},
{
name = top;
position = "{376, 732}";
}
);
associatedMasterId = "2C5E45D0-97E8-45AA-A5B2-946753DF54E1";
layerId = "920DDCBD-CA2D-40FA-B236-FE30E01EC45F";
name = "May 29 18, 15:18";
paths = (
{
closed = 1;
nodes = (
"351 334 LINE",
"390 334 LINE",
"440 334 OFFCURVE",
"461 316 OFFCURVE",
"479 265 CURVE SMOOTH",
"571 0 LINE",
"733 0 LINE",
"733 93 LINE",
"654 93 LINE",
"562 324 LINE SMOOTH",
"546 365 OFFCURVE",
"500 390 OFFCURVE",
"461 398 CURVE"
);
},
{
closed = 1;
nodes = (
"422 659 LINE SMOOTH",
"518 659 OFFCURVE",
"581 625 OFFCURVE",
"581 546 CURVE SMOOTH",
"581 464 OFFCURVE",
"525 424 OFFCURVE",
"421 424 CURVE SMOOTH",
"224 424 LINE",
"224 334 LINE",
"413 334 LINE",
"540 345 LINE",
"540 362 LINE",
"635 387 OFFCURVE",
"685 461 OFFCURVE",
"685 553 CURVE SMOOTH",
"685 678 OFFCURVE",
"598 752 OFFCURVE",
"426 752 CURVE SMOOTH",
"291 752 LINE",
"291 659 LINE"
);
},
{
closed = 1;
nodes = (
"136 659 LINE",
"136 93 LINE",
"26 93 LINE",
"26 0 LINE",
"348 0 LINE",
"348 93 LINE",
"238 93 LINE",
"238 659 LINE",
"348 659 LINE",
"348 752 LINE",
"26 752 LINE",
"26 659 LINE"
);
}
);
width = 765;
},
{
anchors = (
{
name = bottom;
position = "{416, 0}";
},
{
name = top;
position = "{408, 772}";
}
);
layerId = "BE4E587A-F76C-447B-AA28-A45E40876AAF";
rightMetricsKey = "=P+6";
paths = (
{
closed = 1;
nodes = (
"329 297 LINE",
"421 297 LINE",
"436 297 OFFCURVE",
"442 292 OFFCURVE",
"448 272 CURVE SMOOTH",
"529 0 LINE",
"789 0 LINE",
"789 207 LINE",
"748 207 LINE",
"686 355 LINE SMOOTH",
"672 388 OFFCURVE",
"634 438 OFFCURVE",
"551 458 CURVE"
);
},
{
closed = 1;
nodes = (
"447 565 LINE SMOOTH",
"487 565 OFFCURVE",
"514 551 OFFCURVE",
"514 519 CURVE SMOOTH",
"514 489 OFFCURVE",
"490 474 OFFCURVE",
"446 474 CURVE SMOOTH",
"249 474 LINE",
"249 297 LINE",
"498 297 LINE",
"672 368 LINE",
"672 385 LINE",
"734 419 OFFCURVE",
"781 465 OFFCURVE",
"781 552 CURVE SMOOTH",
"781 690 OFFCURVE",
"670 772 OFFCURVE",
"451 772 CURVE SMOOTH",
"316 772 LINE",
"316 565 LINE"
);
},
{
closed = 1;
nodes = (
"78 565 LINE",
"78 207 LINE",
"21 207 LINE",
"21 0 LINE",
"397 0 LINE",
"397 207 LINE",
"336 207 LINE",
"336 565 LINE",
"393 565 LINE",
"393 772 LINE",
"21 772 LINE",
"21 565 LINE"
);
}
);
width = 816;
},
{
anchors = (
{
name = bottom;
position = "{416, 0}";
},
{
name = top;
position = "{408, 772}";
}
);
associatedMasterId = "BE4E587A-F76C-447B-AA28-A45E40876AAF";
layerId = "40B89D66-E47A-4BA0-80B8-2ABF5EF51902";
rightMetricsKey = "=P+6";
name = "Jun 4 18, 09:59";
paths = (
{
closed = 1;
nodes = (
"335 297 LINE",
"427 297 LINE",
"442 297 OFFCURVE",
"449 292 OFFCURVE",
"454 272 CURVE SMOOTH",
"519 0 LINE",
"789 0 LINE",
"789 207 LINE",
"738 207 LINE",
"692 355 LINE SMOOTH",
"681 390 OFFCURVE",
"640 438 OFFCURVE",
"557 458 CURVE"
);
},
{
closed = 1;
nodes = (
"453 565 LINE SMOOTH",
"493 565 OFFCURVE",
"520 551 OFFCURVE",
"520 519 CURVE SMOOTH",
"520 489 OFFCURVE",
"496 474 OFFCURVE",
"452 474 CURVE SMOOTH",
"255 474 LINE",
"255 297 LINE",
"504 297 LINE",
"681 367 LINE",
"681 384 LINE",
"742 418 OFFCURVE",
"787 464 OFFCURVE",
"787 552 CURVE SMOOTH",
"787 690 OFFCURVE",
"676 772 OFFCURVE",
"457 772 CURVE SMOOTH",
"322 772 LINE",
"322 565 LINE"
);
},
{
closed = 1;
nodes = (
"78 565 LINE",
"78 207 LINE",
"21 207 LINE",
"21 0 LINE",
"393 0 LINE",
"393 207 LINE",
"336 207 LINE",
"336 565 LINE",
"393 565 LINE",
"393 772 LINE",
"21 772 LINE",
"21 565 LINE"
);
}
);
width = 816;
}
);
leftKerningGroup = H;
leftMetricsKey = H;
rightKerningGroup = R;
rightMetricsKey = P;
unicode = 0052;
},
{
glyphname = Rcommaaccent;
layers = (
{
anchors = (
{
name = _bottom;
position = "{394, 0}";
}
);
components = (
{
name = R;
}
);
layerId = "67AEAADB-8447-4819-9D92-8BB76BD22042";
paths = (
{
closed = 1;
nodes = (
"411 -154 LINE SMOOTH",
"411 -193 OFFCURVE",
"392 -212 OFFCURVE",
"364 -212 CURVE",
"364 -217 LINE",
"395 -217 OFFCURVE",
"416 -196 OFFCURVE",
"416 -154 CURVE SMOOTH",
"416 -83 LINE",
"411 -83 LINE"
);
}
);
width = 807;
},
{
anchors = (
{
name = _bottom;
position = "{378, 0}";
}
);
components = (
{
name = R;
}
);
layerId = "2C5E45D0-97E8-45AA-A5B2-946753DF54E1";
paths = (
{
closed = 1;
nodes = (
"305 -138 LINE",
"412 -138 LINE",
"448 -117 LINE",
"448 -49 LINE",
"305 -49 LINE"
);
},
{
closed = 1;
nodes = (
"405 -122 LINE SMOOTH",
"405 -166 OFFCURVE",
"386 -186 OFFCURVE",
"338 -186 CURVE SMOOTH",
"305 -186 LINE",
"305 -224 LINE",
"338 -224 LINE SMOOTH",
"412 -224 OFFCURVE",
"448 -185 OFFCURVE",
"448 -120 CURVE SMOOTH",
"448 -65 LINE",
"405 -65 LINE"
);
}
);
width = 765;
},
{
anchors = (
{
name = _bottom;
position = "{416, 0}";
}
);
components = (
{
name = R;
}
);
layerId = "BE4E587A-F76C-447B-AA28-A45E40876AAF";
paths = (
{
closed = 1;
nodes = (
"292 -154 LINE",
"469 -154 LINE",
"540 -119 LINE",
"540 -24 LINE",
"292 -24 LINE"
);
},
{
closed = 1;
nodes = (
"437 -152 LINE SMOOTH",
"437 -174 OFFCURVE",
"414 -186 OFFCURVE",
"373 -186 CURVE SMOOTH",
"292 -186 LINE",
"292 -245 LINE",
"373 -245 LINE SMOOTH",
"494 -245 OFFCURVE",
"540 -211 OFFCURVE",
"540 -133 CURVE SMOOTH",
"540 -107 LINE",
"437 -120 LINE"
);
}
);
width = 816;
},
{
anchors = (
{
name = _bottom;
position = "{417, 0}";
}
);
components = (
{
name = R;
}
);
layerId = "A59F1195-5331-40FD-8BD6-3900E1073F61";
paths = (
{
closed = 1;
nodes = (
"415 -144 LINE SMOOTH",
"415 -180 OFFCURVE",
"398 -196 OFFCURVE",
"370 -196 CURVE",
"370 -218 LINE",
"412 -218 OFFCURVE",
"439 -193 OFFCURVE",
"439 -144 CURVE SMOOTH",
"439 -80 LINE",
"415 -80 LINE"
);
}
);
width = 799;
},
{
anchors = (
{
name = _bottom;
position = "{394, 0}";
}
);
associatedMasterId = "67AEAADB-8447-4819-9D92-8BB76BD22042";
components = (
{
name = R;
}
);
layerId = "822B2742-CAC9-4709-BF5F-5A4D47CEA0B0";
name = "[24]";
paths = (
{
closed = 1;
nodes = (
"387 -121 LINE",
"403 -121 LINE",
"406 -110 LINE",
"406 -102 LINE",
"387 -102 LINE"
);
},
{
closed = 1;
nodes = (
"401 -137 LINE SMOOTH",
"401 -147 OFFCURVE",
"395 -152 OFFCURVE",
"388 -152 CURVE SMOOTH",
"387 -152 LINE",
"387 -157 LINE",
"388 -157 LINE SMOOTH",
"398 -157 OFFCURVE",
"406 -150 OFFCURVE",
"406 -137 CURVE SMOOTH",
"406 -104 LINE",
"401 -104 LINE"
);
}
);
width = 807;
},
{
anchors = (
{
name = _bottom;
position = "{417, 0}";
}
);
associatedMasterId = "A59F1195-5331-40FD-8BD6-3900E1073F61";
components = (
{
name = R;
}
);
layerId = "E7DB5B91-8095-479B-BB7A-EBD4D1CA27B2";
name = "Light [24]";
paths = (
{
closed = 1;
nodes = (
"384 -146 LINE",
"413 -146 LINE",
"426 -125 LINE",
"426 -94 LINE",
"384 -94 LINE"
);
},
{
closed = 1;
nodes = (
"412 -176 LINE SMOOTH",
"412 -195 OFFCURVE",
"401 -204 OFFCURVE",
"384 -204 CURVE SMOOTH",
"383 -204 LINE",
"383 -217 LINE",
"384 -217 LINE SMOOTH",
"409 -217 OFFCURVE",
"426 -204 OFFCURVE",
"426 -176 CURVE SMOOTH",
"426 -94 LINE",
"412 -94 LINE"
);
}
);
width = 799;
},
{
anchors = (
{
name = _bottom;
position = "{378, 0}";
}
);
associatedMasterId = "2C5E45D0-97E8-45AA-A5B2-946753DF54E1";
components = (
{
name = R;
}
);
layerId = "8ACCF742-537E-4A1C-8713-8CE87403543B";
name = "Regular ]24]";
paths = (
{
closed = 1;
nodes = (
"357 -105 LINE SMOOTH",
"357 -128 OFFCURVE",
"346 -136 OFFCURVE",
"321 -136 CURVE",
"321 -220 LINE",
"402 -220 OFFCURVE",
"455 -181 OFFCURVE",
"455 -105 CURVE SMOOTH",
"455 -69 LINE",
"357 -69 LINE"
);
}
);
width = 765;
},
{
anchors = (
{
name = _bottom;
position = "{416, 0}";
}
);
associatedMasterId = "BE4E587A-F76C-447B-AA28-A45E40876AAF";
components = (
{
name = R;
}
);
layerId = "37378812-0249-4DF0-88FC-43D96DD912BC";
name = "]24]";
paths = (
{
closed = 1;
nodes = (
"364 -112 LINE SMOOTH",
"364 -128 OFFCURVE",
"355 -137 OFFCURVE",
"340 -137 CURVE",
"340 -245 LINE",
"486 -245 OFFCURVE",
"541 -205 OFFCURVE",
"541 -112 CURVE SMOOTH",
"541 -56 LINE",
"364 -56 LINE"
);
}
);
width = 816;
}
);
leftKerningGroup = H;
rightKerningGroup = R;
unicode = 0156;
},
{
color = 0;
glyphname = S;
layers = (
{
anchors = (
{
name = bottom;
position = "{329, 0}";
},
{
name = top;
position = "{329, 732}";
}
);
layerId = "67AEAADB-8447-4819-9D92-8BB76BD22042";
leftMetricsKey = "=O+9";
rightMetricsKey = "=O+4";
paths = (
{
closed = 1;
nodes = (
"519 -10 OFFCURVE",
"603 59 OFFCURVE",
"603 183 CURVE SMOOTH",
"603 301 OFFCURVE",
"528 359 OFFCURVE",
"335 391 CURVE SMOOTH",
"135 424 OFFCURVE",
"69 473 OFFCURVE",
"69 577 CURVE SMOOTH",
"69 694 OFFCURVE",
"156 757 OFFCURVE",
"299 757 CURVE SMOOTH",
"460 757 OFFCURVE",
"547 679 OFFCURVE",
"570 524 CURVE",
"573 546 LINE",
"569 546 LINE",
"547 680 OFFCURVE",
"463 762 OFFCURVE",
"299 762 CURVE SMOOTH",
"153 762 OFFCURVE",
"64 697 OFFCURVE",
"64 577 CURVE SMOOTH",
"64 469 OFFCURVE",
"135 419 OFFCURVE",
"334 386 CURVE SMOOTH",
"527 354 OFFCURVE",
"598 298 OFFCURVE",
"598 183 CURVE SMOOTH",
"598 62 OFFCURVE",
"516 -5 OFFCURVE",
"366 -5 CURVE SMOOTH",
"192 -5 OFFCURVE",
"87 76 OFFCURVE",
"66 228 CURVE",
"64 208 LINE",
"67 208 LINE",
"90 71 OFFCURVE",
"193 -10 OFFCURVE",
"366 -10 CURVE SMOOTH"
);
},
{
closed = 1;
nodes = (
"66 0 LINE",
"66 228 LINE",
"61 228 LINE",
"61 0 LINE"
);
},
{
closed = 1;
nodes = (
"575 524 LINE",
"575 752 LINE",
"570 752 LINE",
"570 524 LINE"
);
}
);
width = 659;
},
{
anchors = (
{
name = bottom;
position = "{387, 0}";
},
{
name = top;
position = "{387, 772}";
}
);
layerId = "BE4E587A-F76C-447B-AA28-A45E40876AAF";
leftMetricsKey = "=O+14";
rightMetricsKey = "=O+5";
paths = (
{
closed = 1;
nodes = (
"672 -10 OFFCURVE",
"759 74 OFFCURVE",
"759 229 CURVE SMOOTH",
"759 407 OFFCURVE",
"642 505 OFFCURVE",
"410 522 CURVE SMOOTH",
"321 529 OFFCURVE",
"293 553 OFFCURVE",
"293 583 CURVE SMOOTH",
"293 611 OFFCURVE",
"318 625 OFFCURVE",
"358 625 CURVE SMOOTH",
"425 625 OFFCURVE",
"471 588 OFFCURVE",
"480 528 CURVE",
"495 630 LINE",
"472 630 LINE",
"462 732 OFFCURVE",
"392 786 OFFCURVE",
"272 786 CURVE SMOOTH",
"113 786 OFFCURVE",
"25 697 OFFCURVE",
"25 551 CURVE SMOOTH",
"25 372 OFFCURVE",
"139 274 OFFCURVE",
"374 255 CURVE SMOOTH",
"458 248 OFFCURVE",
"491 233 OFFCURVE",
"491 200 CURVE SMOOTH",
"491 169 OFFCURVE",
"464 151 OFFCURVE",
"420 151 CURVE SMOOTH",
"357 151 OFFCURVE",
"307 191 OFFCURVE",
"296 248 CURVE",
"281 143 LINE",
"304 143 LINE",
"316 38 OFFCURVE",
"381 -10 OFFCURVE",
"505 -10 CURVE SMOOTH"
);
},
{
closed = 1;
nodes = (
"296 0 LINE",
"296 248 LINE",
"38 248 LINE",
"38 0 LINE"
);
},
{
closed = 1;
nodes = (
"738 528 LINE",
"738 772 LINE",
"480 772 LINE",
"480 528 LINE"
);
}
);
width = 775;
},
{
anchors = (
{
name = bottom;
position = "{349, 0}";
},
{
name = top;
position = "{349, 732}";
}
);
layerId = "2C5E45D0-97E8-45AA-A5B2-946753DF54E1";
leftMetricsKey = "=O+8";
rightMetricsKey = "=O-16";
paths = (
{
closed = 1;
nodes = (
"545 -10 OFFCURVE",
"637 71 OFFCURVE",
"637 208 CURVE SMOOTH",
"637 342 OFFCURVE",
"557 408 OFFCURVE",
"355 439 CURVE SMOOTH",
"217 465 OFFCURVE",
"159 503 OFFCURVE",
"159 570 CURVE SMOOTH",
"159 634 OFFCURVE",
"215 673 OFFCURVE",
"305 673 CURVE SMOOTH",
"411 673 OFFCURVE",
"493 614 OFFCURVE",
"509 524 CURVE",
"528 600 LINE",
"505 600 LINE",
"492 707 OFFCURVE",
"419 762 OFFCURVE",
"291 762 CURVE SMOOTH",
"144 762 OFFCURVE",
"55 688 OFFCURVE",
"55 565 CURVE SMOOTH",
"55 440 OFFCURVE",
"149 364 OFFCURVE",
"339 338 CURVE SMOOTH",
"481 318 OFFCURVE",
"533 281 OFFCURVE",
"533 201 CURVE SMOOTH",
"533 122 OFFCURVE",
"476 79 OFFCURVE",
"373 79 CURVE SMOOTH",
"257 79 OFFCURVE",
"173 136 OFFCURVE",
"156 228 CURVE",
"137 149 LINE",
"160 149 LINE",
"175 47 OFFCURVE",
"257 -10 OFFCURVE",
"389 -10 CURVE SMOOTH"
);
},
{
closed = 1;
nodes = (
"156 0 LINE",
"156 228 LINE",
"54 228 LINE",
"54 0 LINE"
);
},
{
closed = 1;
nodes = (
"611 524 LINE",
"611 752 LINE",
"509 752 LINE",
"509 524 LINE"
);
}
);
width = 667;
},
{
anchors = (
{
name = bottom;
position = "{411, 0}";
},
{
name = top;
position = "{344, 732}";
}
);
associatedMasterId = "BE4E587A-F76C-447B-AA28-A45E40876AAF";
layerId = "F8ECC15C-CBDE-49AD-B5FB-69E86B5BF4A4";
leftMetricsKey = "=H+4";
name = "Mar 20 18, 14:45";
paths = (
{
closed = 1;
nodes = (
"669 -10 OFFCURVE",
"756 74 OFFCURVE",
"756 229 CURVE SMOOTH",
"756 407 OFFCURVE",
"639 505 OFFCURVE",
"407 522 CURVE SMOOTH",
"318 529 OFFCURVE",
"290 553 OFFCURVE",
"290 585 CURVE SMOOTH",
"290 614 OFFCURVE",
"315 629 OFFCURVE",
"355 629 CURVE SMOOTH",
"422 629 OFFCURVE",
"468 590 OFFCURVE",
"477 528 CURVE",
"492 584 LINE",
"469 584 LINE",
"459 721 OFFCURVE",
"389 786 OFFCURVE",
"259 786 CURVE SMOOTH",
"110 786 OFFCURVE",
"22 697 OFFCURVE",
"22 551 CURVE SMOOTH",
"22 371 OFFCURVE",
"137 274 OFFCURVE",
"371 255 CURVE SMOOTH",
"455 248 OFFCURVE",
"488 233 OFFCURVE",
"488 198 CURVE SMOOTH",
"488 166 OFFCURVE",
"461 147 OFFCURVE",
"414 147 CURVE SMOOTH",
"354 147 OFFCURVE",
"304 189 OFFCURVE",
"293 248 CURVE",
"278 189 LINE",
"301 189 LINE",
"313 52 OFFCURVE",
"378 -10 OFFCURVE",
"512 -10 CURVE SMOOTH"
);
},
{
closed = 1;
nodes = (
"293 0 LINE",
"293 248 LINE",
"35 248 LINE",
"35 0 LINE"
);
},
{
closed = 1;
nodes = (
"735 528 LINE",
"735 772 LINE",
"477 772 LINE",
"477 528 LINE"
);
}
);
width = 767;
},
{
anchors = (
{
name = bottom;
position = "{334, 0}";
},
{
name = top;
position = "{334, 732}";
}
);
layerId = "A59F1195-5331-40FD-8BD6-3900E1073F61";
leftMetricsKey = "=O+9";
rightMetricsKey = "=O+0";
paths = (
{
closed = 1;
nodes = (
"525 -10 OFFCURVE",
"611 61 OFFCURVE",
"611 188 CURVE SMOOTH",
"611 309 OFFCURVE",
"535 369 OFFCURVE",
"340 401 CURVE SMOOTH",
"152 432 OFFCURVE",
"88 479 OFFCURVE",
"88 576 CURVE SMOOTH",
"88 682 OFFCURVE",
"169 740 OFFCURVE",
"301 740 CURVE SMOOTH",
"451 740 OFFCURVE",
"537 666 OFFCURVE",
"558 524 CURVE",
"564 593 LINE",
"557 593 LINE",
"534 686 OFFCURVE",
"455 762 OFFCURVE",
"298 762 CURVE SMOOTH",
"152 762 OFFCURVE",
"63 695 OFFCURVE",
"63 575 CURVE SMOOTH",
"63 463 OFFCURVE",
"139 408 OFFCURVE",
"336 376 CURVE SMOOTH",
"518 347 OFFCURVE",
"585 295 OFFCURVE",
"585 187 CURVE SMOOTH",
"585 74 OFFCURVE",
"509 12 OFFCURVE",
"366 12 CURVE SMOOTH",
"206 12 OFFCURVE",
"105 88 OFFCURVE",
"85 228 CURVE",
"80 160 LINE",
"87 160 LINE",
"115 62 OFFCURVE",
"207 -10 OFFCURVE",
"367 -10 CURVE SMOOTH"
);
},
{
closed = 1;
nodes = (
"85 0 LINE",
"85 228 LINE",
"60 228 LINE",
"60 0 LINE"
);
},
{
closed = 1;
nodes = (
"583 524 LINE",
"583 752 LINE",
"558 752 LINE",
"558 524 LINE"
);
}
);
width = 662;
},
{
anchors = (
{
name = bottom;
position = "{349, 0}";
},
{
name = top;
position = "{349, 732}";
}
);
associatedMasterId = "2C5E45D0-97E8-45AA-A5B2-946753DF54E1";
layerId = "8DF604F3-4F8C-4D1E-A128-23E4E2E9A99E";
leftMetricsKey = "=O+8";
rightMetricsKey = "=O-16";
name = "Jun 12 18, 15:36";
paths = (
{
closed = 1;
nodes = (
"545 -10 OFFCURVE",
"637 71 OFFCURVE",
"637 208 CURVE SMOOTH",
"637 342 OFFCURVE",
"557 408 OFFCURVE",
"355 439 CURVE SMOOTH",
"217 465 OFFCURVE",
"159 503 OFFCURVE",
"159 570 CURVE SMOOTH",
"159 634 OFFCURVE",
"215 673 OFFCURVE",
"305 673 CURVE SMOOTH",
"411 673 OFFCURVE",
"493 614 OFFCURVE",
"509 524 CURVE",
"528 600 LINE",
"505 600 LINE",
"492 707 OFFCURVE",
"419 762 OFFCURVE",
"291 762 CURVE SMOOTH",
"144 762 OFFCURVE",
"55 688 OFFCURVE",
"55 565 CURVE SMOOTH",
"55 440 OFFCURVE",
"149 364 OFFCURVE",
"339 338 CURVE SMOOTH",
"481 318 OFFCURVE",
"533 281 OFFCURVE",
"533 201 CURVE SMOOTH",
"533 122 OFFCURVE",
"476 79 OFFCURVE",
"373 79 CURVE SMOOTH",
"257 79 OFFCURVE",
"173 136 OFFCURVE",
"156 228 CURVE",
"137 149 LINE",
"160 149 LINE",
"175 47 OFFCURVE",
"257 -10 OFFCURVE",
"389 -10 CURVE SMOOTH"
);
},
{
closed = 1;
nodes = (
"156 0 LINE",
"156 228 LINE",
"54 228 LINE",
"54 0 LINE"
);
},
{
closed = 1;
nodes = (
"611 524 LINE",
"611 752 LINE",
"509 752 LINE",
"509 524 LINE"
);
}
);
width = 667;
},
{
anchors = (
{
name = bottom;
position = "{363, 0}";
},
{
name = top;
position = "{363, 747}";
}
);
associatedMasterId = "BE4E587A-F76C-447B-AA28-A45E40876AAF";
layerId = "7FAB5E9E-7120-435E-AF43-519611FAD226";
leftMetricsKey = "=O+10";
rightMetricsKey = "=O-7";
name = "{158}";
paths = (
{
closed = 1;
nodes = (
"593 -10 OFFCURVE",
"683 72 OFFCURVE",
"683 216 CURVE SMOOTH",
"683 367 OFFCURVE",
"589 445 OFFCURVE",
"375 471 CURVE SMOOTH",
"256 489 OFFCURVE",
"210 520 OFFCURVE",
"210 567 CURVE SMOOTH",
"210 611 OFFCURVE",
"247 635 OFFCURVE",
"314 635 CURVE SMOOTH",
"408 635 OFFCURVE",
"483 592 OFFCURVE",
"497 526 CURVE",
"515 612 LINE",
"492 612 LINE",
"480 717 OFFCURVE",
"408 771 OFFCURVE",
"283 771 CURVE SMOOTH",
"131 771 OFFCURVE",
"43 691 OFFCURVE",
"43 560 CURVE SMOOTH",
"43 413 OFFCURVE",
"145 329 OFFCURVE",
"352 306 CURVE SMOOTH",
"471 292 OFFCURVE",
"516 265 OFFCURVE",
"516 209 CURVE SMOOTH",
"516 155 OFFCURVE",
"477 127 OFFCURVE",
"399 127 CURVE SMOOTH",
"303 127 OFFCURVE",
"225 169 OFFCURVE",
"209 236 CURVE",
"192 147 LINE",
"215 147 LINE",
"228 44 OFFCURVE",
"304 -10 OFFCURVE",
"433 -10 CURVE SMOOTH"
);
},
{
closed = 1;
nodes = (
"209 0 LINE",
"209 236 LINE",
"47 236 LINE",
"47 0 LINE"
);
},
{
closed = 1;
nodes = (
"659 526 LINE",
"659 760 LINE",
"497 760 LINE",
"497 526 LINE"
);
}
);
width = 708;
}
);
leftKerningGroup = S;
rightKerningGroup = S;
rightMetricsKey = "=|-9";
unicode = 0053;
},
{
glyphname = Scommaaccent;
layers = (
{
anchors = (
{
name = _bottom;
position = "{329, 0}";
}
);
components = (
{
name = S;
}
);
layerId = "67AEAADB-8447-4819-9D92-8BB76BD22042";
paths = (
{
closed = 1;
nodes = (
"346 -154 LINE SMOOTH",
"346 -193 OFFCURVE",
"327 -212 OFFCURVE",
"299 -212 CURVE",
"299 -217 LINE",
"330 -217 OFFCURVE",
"351 -196 OFFCURVE",
"351 -154 CURVE SMOOTH",
"351 -83 LINE",
"346 -83 LINE"
);
}
);
width = 659;
},
{
anchors = (
{
name = _bottom;
position = "{349, 0}";
}
);
components = (
{
name = S;
}
);
layerId = "2C5E45D0-97E8-45AA-A5B2-946753DF54E1";
paths = (
{
closed = 1;
nodes = (
"276 -138 LINE",
"383 -138 LINE",
"419 -117 LINE",
"419 -49 LINE",
"276 -49 LINE"
);
},
{
closed = 1;
nodes = (
"376 -122 LINE SMOOTH",
"376 -166 OFFCURVE",
"357 -186 OFFCURVE",
"309 -186 CURVE SMOOTH",
"276 -186 LINE",
"276 -224 LINE",
"309 -224 LINE SMOOTH",
"383 -224 OFFCURVE",
"419 -185 OFFCURVE",
"419 -120 CURVE SMOOTH",
"419 -65 LINE",
"376 -65 LINE"
);
}
);
width = 667;
},
{
anchors = (
{
name = _bottom;
position = "{387, 0}";
}
);
components = (
{
name = S;
}
);
layerId = "BE4E587A-F76C-447B-AA28-A45E40876AAF";
paths = (
{
closed = 1;
nodes = (
"263 -154 LINE",
"440 -154 LINE",
"511 -119 LINE",
"511 -24 LINE",
"263 -24 LINE"
);
},
{
closed = 1;
nodes = (
"408 -152 LINE SMOOTH",
"408 -174 OFFCURVE",
"385 -186 OFFCURVE",
"344 -186 CURVE SMOOTH",
"263 -186 LINE",
"263 -245 LINE",
"344 -245 LINE SMOOTH",
"465 -245 OFFCURVE",
"511 -211 OFFCURVE",
"511 -133 CURVE SMOOTH",
"511 -107 LINE",
"408 -120 LINE"
);
}
);
width = 775;
},
{
anchors = (
{
name = _bottom;
position = "{334, 0}";
}
);
components = (
{
name = S;
}
);
layerId = "A59F1195-5331-40FD-8BD6-3900E1073F61";
paths = (
{
closed = 1;
nodes = (
"332 -144 LINE SMOOTH",
"332 -180 OFFCURVE",
"315 -196 OFFCURVE",
"287 -196 CURVE",
"287 -218 LINE",
"329 -218 OFFCURVE",
"356 -193 OFFCURVE",
"356 -144 CURVE SMOOTH",
"356 -80 LINE",
"332 -80 LINE"
);
}
);
width = 662;
},
{
anchors = (
{
name = _bottom;
position = "{329, 0}";
}
);
associatedMasterId = "67AEAADB-8447-4819-9D92-8BB76BD22042";
components = (
{
name = S;
}
);
layerId = "7E22823B-4D4A-4195-A9B0-EAF62DAA659A";
name = "[24]";
paths = (
{
closed = 1;
nodes = (
"322 -121 LINE",
"338 -121 LINE",
"341 -110 LINE",
"341 -102 LINE",
"322 -102 LINE"
);
},
{
closed = 1;
nodes = (
"336 -137 LINE SMOOTH",
"336 -147 OFFCURVE",
"330 -152 OFFCURVE",
"323 -152 CURVE SMOOTH",
"322 -152 LINE",
"322 -157 LINE",
"323 -157 LINE SMOOTH",
"333 -157 OFFCURVE",
"341 -150 OFFCURVE",
"341 -137 CURVE SMOOTH",
"341 -104 LINE",
"336 -104 LINE"
);
}
);
width = 659;
},
{
anchors = (
{
name = _bottom;
position = "{334, 0}";
}
);
associatedMasterId = "A59F1195-5331-40FD-8BD6-3900E1073F61";
components = (
{
name = S;
}
);
layerId = "7A05DD26-C926-44EE-BF21-19A289BECF54";
name = "Light [24]";
paths = (
{
closed = 1;
nodes = (
"301 -146 LINE",
"330 -146 LINE",
"343 -125 LINE",
"343 -94 LINE",
"301 -94 LINE"
);
},
{
closed = 1;
nodes = (
"329 -176 LINE SMOOTH",
"329 -195 OFFCURVE",
"318 -204 OFFCURVE",
"301 -204 CURVE SMOOTH",
"300 -204 LINE",
"300 -217 LINE",
"301 -217 LINE SMOOTH",
"326 -217 OFFCURVE",
"343 -204 OFFCURVE",
"343 -176 CURVE SMOOTH",
"343 -94 LINE",
"329 -94 LINE"
);
}
);
width = 662;
},
{
anchors = (
{
name = _bottom;
position = "{349, 0}";
}
);
associatedMasterId = "2C5E45D0-97E8-45AA-A5B2-946753DF54E1";
components = (
{
name = S;
}
);
layerId = "059E428B-8535-464B-9713-EE5651E9C62C";
name = "Regular ]24]";
paths = (
{
closed = 1;
nodes = (
"328 -105 LINE SMOOTH",
"328 -128 OFFCURVE",
"317 -136 OFFCURVE",
"292 -136 CURVE",
"292 -220 LINE",
"373 -220 OFFCURVE",
"426 -181 OFFCURVE",
"426 -105 CURVE SMOOTH",
"426 -69 LINE",
"328 -69 LINE"
);
}
);
width = 667;
},
{
anchors = (
{
name = _bottom;
position = "{387, 0}";
}
);
associatedMasterId = "BE4E587A-F76C-447B-AA28-A45E40876AAF";
components = (
{
name = S;
}
);
layerId = "57E62F4C-7FD2-406B-BAE4-D26BA37EF75E";
name = "]24]";
paths = (
{
closed = 1;
nodes = (
"335 -112 LINE SMOOTH",
"335 -128 OFFCURVE",
"326 -137 OFFCURVE",
"311 -137 CURVE",
"311 -245 LINE",
"457 -245 OFFCURVE",
"512 -205 OFFCURVE",
"512 -112 CURVE SMOOTH",
"512 -56 LINE",
"335 -56 LINE"
);
}
);
width = 775;
}
);
leftKerningGroup = S;
rightKerningGroup = S;
unicode = 0218;
},
{
color = 3;
glyphname = Germandbls;
layers = (
{
anchors = (
{
name = bottom;
position = "{416, 0}";
},
{
name = top;
position = "{416, 732}";
}
);
layerId = "67AEAADB-8447-4819-9D92-8BB76BD22042";
rightMetricsKey = "=S-10";
paths = (
{
closed = 1;
nodes = (
"329 0 LINE",
"329 5 LINE",
"181 5 LINE",
"181 747 LINE",
"719 747 LINE",
"719 752 LINE",
"27 752 LINE",
"27 747 LINE",
"176 747 LINE",
"176 5 LINE",
"27 5 LINE",
"27 0 LINE"
);
},
{
closed = 1;
nodes = (
"710 -7 OFFCURVE",
"783 78 OFFCURVE",
"783 201 CURVE SMOOTH",
"783 334 OFFCURVE",
"699 422 OFFCURVE",
"535 422 CURVE SMOOTH",
"469 422 LINE",
"469 417 LINE",
"535 417 LINE SMOOTH",
"697 417 OFFCURVE",
"778 331 OFFCURVE",
"778 201 CURVE SMOOTH",
"778 80 OFFCURVE",
"707 -2 OFFCURVE",
"551 -2 CURVE SMOOTH",
"501 -2 OFFCURVE",
"460 6 OFFCURVE",
"428 22 CURVE",
"426 18 LINE",
"459 2 OFFCURVE",
"500 -7 OFFCURVE",
"551 -7 CURVE SMOOTH"
);
},
{
closed = 1;
nodes = (
"475 418 LINE",
"475 423 LINE",
"719 746 LINE",
"719 751 LINE",
"713 749 LINE",
"713 746 LINE",
"469 423 LINE",
"469 418 LINE"
);
}
);
width = 829;
},
{
associatedMasterId = "67AEAADB-8447-4819-9D92-8BB76BD22042";
layerId = "5D449654-87D6-4E8D-B954-DA4B523FA6C0";
leftMetricsKey = "=n+12";
name = "Mar 14 18, 15:13";
paths = (
{
closed = 1;
nodes = (
"385 417 LINE",
"391 417 LINE",
"391 422 LINE",
"664 667 LINE",
"664 669 LINE",
"658 671 LINE",
"658 668 LINE",
"385 423 LINE"
);
},
{
closed = 1;
nodes = (
"185 557 LINE SMOOTH",
"185 697 OFFCURVE",
"252 792 OFFCURVE",
"404 792 CURVE SMOOTH",
"503 792 OFFCURVE",
"596 753 OFFCURVE",
"660 666 CURVE",
"664 669 LINE",
"600 756 OFFCURVE",
"506 797 OFFCURVE",
"404 797 CURVE SMOOTH",
"249 797 OFFCURVE",
"180 700 OFFCURVE",
"180 557 CURVE SMOOTH",
"180 524 LINE",
"51 524 LINE",
"51 519 LINE",
"180 519 LINE",
"180 5 LINE",
"51 5 LINE",
"51 0 LINE",
"185 0 LINE"
);
},
{
closed = 1;
nodes = (
"385 417 LINE",
"632 400 OFFCURVE",
"728 331 OFFCURVE",
"728 199 CURVE SMOOTH",
"728 81 OFFCURVE",
"654 -2 OFFCURVE",
"491 -2 CURVE SMOOTH",
"359 -2 OFFCURVE",
"291 50 OFFCURVE",
"272 144 CURVE",
"267 143 LINE",
"286 49 OFFCURVE",
"356 -7 OFFCURVE",
"491 -7 CURVE SMOOTH",
"657 -7 OFFCURVE",
"733 78 OFFCURVE",
"733 199 CURVE SMOOTH",
"733 334 OFFCURVE",
"633 405 OFFCURVE",
"386 422 CURVE"
);
}
);
width = 794;
},
{
anchors = (
{
name = bottom;
position = "{418, 0}";
},
{
name = top;
position = "{418, 732}";
}
);
layerId = "A59F1195-5331-40FD-8BD6-3900E1073F61";
rightMetricsKey = "=S-21";
paths = (
{
closed = 1;
nodes = (
"331 0 LINE",
"331 23 LINE",
"193 23 LINE",
"193 729 LINE",
"721 729 LINE",
"721 752 LINE",
"27 752 LINE",
"27 729 LINE",
"168 729 LINE",
"168 23 LINE",
"27 23 LINE",
"27 0 LINE"
);
},
{
closed = 1;
nodes = (
"706 -7 OFFCURVE",
"785 76 OFFCURVE",
"785 204 CURVE SMOOTH",
"785 341 OFFCURVE",
"697 428 OFFCURVE",
"535 428 CURVE SMOOTH",
"466 428 LINE",
"466 405 LINE",
"535 405 LINE SMOOTH",
"682 405 OFFCURVE",
"760 326 OFFCURVE",
"760 204 CURVE SMOOTH",
"760 90 OFFCURVE",
"690 15 OFFCURVE",
"549 15 CURVE SMOOTH",
"504 15 OFFCURVE",
"466 22 OFFCURVE",
"435 37 CURVE",
"426 17 LINE",
"460 1 OFFCURVE",
"500 -7 OFFCURVE",
"548 -7 CURVE SMOOTH"
);
},
{
closed = 1;
nodes = (
"496 419 LINE",
"496 429 LINE",
"721 725 LINE",
"721 748 LINE",
"691 736 LINE",
"691 727 LINE",
"466 431 LINE",
"466 406 LINE"
);
}
);
width = 815;
},
{
anchors = (
{
name = bottom;
position = "{426, 0}";
},
{
name = top;
position = "{426, 732}";
}
);
layerId = "2C5E45D0-97E8-45AA-A5B2-946753DF54E1";
rightMetricsKey = "=S-12";
paths = (
{
closed = 1;
nodes = (
"341 0 LINE",
"341 93 LINE",
"240 93 LINE",
"240 659 LINE",
"730 659 LINE",
"730 752 LINE",
"28 752 LINE",
"28 659 LINE",
"138 659 LINE",
"138 93 LINE",
"28 93 LINE",
"28 0 LINE"
);
},
{
closed = 1;
nodes = (
"692 -9 OFFCURVE",
"793 70 OFFCURVE",
"793 217 CURVE SMOOTH",
"793 366 OFFCURVE",
"690 451 OFFCURVE",
"536 451 CURVE SMOOTH",
"455 451 LINE",
"455 358 LINE",
"536 358 LINE SMOOTH",
"622 358 OFFCURVE",
"689 307 OFFCURVE",
"689 218 CURVE SMOOTH",
"689 129 OFFCURVE",
"624 81 OFFCURVE",
"541 81 CURVE SMOOTH",
"514 81 OFFCURVE",
"490 86 OFFCURVE",
"463 96 CURVE",
"427 13 LINE",
"466 -3 OFFCURVE",
"498 -9 OFFCURVE",
"538 -9 CURVE SMOOTH"
);
},
{
closed = 1;
nodes = (
"580 421 LINE",
"580 453 LINE",
"730 644 LINE",
"730 737 LINE",
"604 684 LINE",
"604 655 LINE",
"455 463 LINE",
"455 359 LINE"
);
}
);
width = 811;
},
{
associatedMasterId = "2C5E45D0-97E8-45AA-A5B2-946753DF54E1";
layerId = "FE80F295-343F-470D-BC19-20BD28AC8CD9";
rightMetricsKey = "=s-16";
name = "Jan 3 18, 14:29";
paths = (
{
closed = 1;
nodes = (
"362 337 LINE",
"483 379 LINE",
"483 411 LINE",
"631 673 LINE",
"631 759 LINE",
"532 720 LINE",
"532 691 LINE",
"362 404 LINE"
);
},
{
closed = 1;
nodes = (
"362 337 LINE",
"538 325 OFFCURVE",
"606 281 OFFCURVE",
"606 191 CURVE SMOOTH",
"606 115 OFFCURVE",
"559 78 OFFCURVE",
"472 78 CURVE SMOOTH",
"411 78 OFFCURVE",
"369 107 OFFCURVE",
"361 148 CURVE",
"264 130 LINE",
"282 42 OFFCURVE",
"342 -10 OFFCURVE",
"475 -10 CURVE SMOOTH",
"625 -10 OFFCURVE",
"700 71 OFFCURVE",
"700 198 CURVE SMOOTH",
"700 329 OFFCURVE",
"622 399 OFFCURVE",
"408 430 CURVE"
);
},
{
closed = 1;
nodes = (
"232 584 LINE SMOOTH",
"232 675 OFFCURVE",
"282 711 OFFCURVE",
"395 711 CURVE SMOOTH",
"470 711 OFFCURVE",
"536 695 OFFCURVE",
"611 672 CURVE",
"631 759 LINE",
"546 782 OFFCURVE",
"459 800 OFFCURVE",
"380 800 CURVE SMOOTH",
"212 800 OFFCURVE",
"135 717 OFFCURVE",
"135 584 CURVE SMOOTH",
"135 536 LINE",
"32 536 LINE",
"32 452 LINE",
"134 452 LINE",
"134 84 LINE",
"32 84 LINE",
"32 0 LINE",
"232 0 LINE",
"232 452 LINE",
"232 536 LINE"
);
}
);
width = 732;
},
{
associatedMasterId = "2C5E45D0-97E8-45AA-A5B2-946753DF54E1";
layerId = "EB730B4A-FF7D-4771-98D9-8E290D735F46";
rightMetricsKey = "=s-16";
name = "Jan 3 18, 14:37";
paths = (
{
closed = 1;
nodes = (
"402 367 LINE",
"523 409 LINE",
"523 441 LINE",
"685 656 LINE",
"685 690 LINE",
"575 685 LINE",
"575 656 LINE",
"402 434 LINE"
);
},
{
closed = 1;
nodes = (
"402 367 LINE",
"578 354 OFFCURVE",
"646 307 OFFCURVE",
"646 210 CURVE SMOOTH",
"646 126 OFFCURVE",
"590 76 OFFCURVE",
"500 76 CURVE SMOOTH",
"423 76 OFFCURVE",
"371 113 OFFCURVE",
"361 165 CURVE",
"264 147 LINE",
"284 47 OFFCURVE",
"355 -12 OFFCURVE",
"499 -12 CURVE SMOOTH",
"665 -12 OFFCURVE",
"740 74 OFFCURVE",
"740 211 CURVE SMOOTH",
"740 355 OFFCURVE",
"662 428 OFFCURVE",
"448 460 CURVE"
);
},
{
closed = 1;
nodes = (
"134 659 LINE",
"134 93 LINE",
"24 93 LINE",
"24 0 LINE",
"236 0 LINE",
"236 659 LINE",
"685 659 LINE",
"685 752 LINE",
"24 752 LINE",
"24 659 LINE"
);
}
);
width = 772;
},
{
associatedMasterId = "2C5E45D0-97E8-45AA-A5B2-946753DF54E1";
layerId = "7A2D836D-4BFC-4F42-A04F-CB07B7DAE8B8";
leftMetricsKey = "=H";
rightMetricsKey = "=S-16";
name = "Mar 14 18, 15:13";
paths = (
{
closed = 1;
nodes = (
"422 367 LINE",
"543 417 LINE",
"543 449 LINE",
"701 576 LINE",
"701 669 LINE",
"611 664 LINE",
"611 635 LINE",
"422 471 LINE"
);
},
{
closed = 1;
nodes = (
"252 557 LINE SMOOTH",
"252 654 OFFCURVE",
"319 700 OFFCURVE",
"425 700 CURVE SMOOTH",
"542 700 OFFCURVE",
"615 643 OFFCURVE",
"641 585 CURVE",
"701 669 LINE",
"637 758 OFFCURVE",
"543 800 OFFCURVE",
"420 800 CURVE SMOOTH",
"238 800 OFFCURVE",
"151 702 OFFCURVE",
"151 557 CURVE SMOOTH",
"151 536 LINE",
"48 536 LINE",
"48 443 LINE",
"150 443 LINE",
"150 93 LINE",
"48 93 LINE",
"48 0 LINE",
"252 0 LINE"
);
},
{
closed = 1;
nodes = (
"422 367 LINE",
"598 354 OFFCURVE",
"666 307 OFFCURVE",
"666 212 CURVE SMOOTH",
"666 130 OFFCURVE",
"613 83 OFFCURVE",
"529 83 CURVE SMOOTH",
"457 83 OFFCURVE",
"410 117 OFFCURVE",
"401 165 CURVE",
"304 143 LINE",
"323 46 OFFCURVE",
"390 -12 OFFCURVE",
"528 -12 CURVE SMOOTH",
"694 -12 OFFCURVE",
"770 74 OFFCURVE",
"770 211 CURVE SMOOTH",
"770 355 OFFCURVE",
"689 428 OFFCURVE",
"468 460 CURVE"
);
}
);
width = 810;
},
{
anchors = (
{
name = bottom;
position = "{447, 0}";
},
{
name = top;
position = "{447, 732}";
}
);
associatedMasterId = "2C5E45D0-97E8-45AA-A5B2-946753DF54E1";
layerId = "627AB63C-256E-461F-972E-59130295B5CC";
leftMetricsKey = "=H";
rightMetricsKey = "=S-16";
name = "Jun 10 18, 20:46";
paths = (
{
closed = 1;
nodes = (
"324 94 LINE",
"230 94 LINE",
"230 469 LINE SMOOTH",
"230 600 OFFCURVE",
"320 662 OFFCURVE",
"475 662 CURVE SMOOTH",
"521 662 OFFCURVE",
"600 657 OFFCURVE",
"675 641 CURVE",
"692 736 LINE",
"610 755 OFFCURVE",
"521 762 OFFCURVE",
"470 762 CURVE SMOOTH",
"235 762 OFFCURVE",
"129 644 OFFCURVE",
"129 469 CURVE SMOOTH",
"128 93 LINE",
"26 93 LINE",
"26 0 LINE",
"324 0 LINE"
);
},
{
closed = 1;
nodes = (
"763 -10 OFFCURVE",
"839 67 OFFCURVE",
"839 196 CURVE SMOOTH",
"839 449 OFFCURVE",
"541 403 OFFCURVE",
"541 550 CURVE SMOOTH",
"541 610 OFFCURVE",
"592 641 OFFCURVE",
"675 641 CURVE",
"571 698 LINE",
"571 653 LINE",
"488 644 OFFCURVE",
"437 611 OFFCURVE",
"437 524 CURVE SMOOTH",
"437 314 OFFCURVE",
"735 384 OFFCURVE",
"735 189 CURVE SMOOTH",
"735 118 OFFCURVE",
"693 79 OFFCURVE",
"622 79 CURVE SMOOTH",
"543 79 OFFCURVE",
"489 128 OFFCURVE",
"478 207 CURVE",
"459 128 LINE",
"482 128 LINE",
"492 39 OFFCURVE",
"546 -10 OFFCURVE",
"645 -10 CURVE SMOOTH"
);
},
{
closed = 1;
nodes = (
"478 0 LINE",
"478 207 LINE",
"376 207 LINE",
"376 0 LINE"
);
}
);
width = 869;
},
{
anchors = (
{
name = bottom;
position = "{438, 0}";
},
{
name = top;
position = "{438, 772}";
}
);
associatedMasterId = "BE4E587A-F76C-447B-AA28-A45E40876AAF";
layerId = "CE1F9310-FA2A-4087-91CD-6DEBA15548DB";
leftMetricsKey = "=n+12";
name = "Jun 10 18, 20:46";
paths = (
{
closed = 1;
nodes = (
"348 0 LINE",
"348 431 LINE SMOOTH",
"348 522 OFFCURVE",
"384 550 OFFCURVE",
"488 550 CURVE SMOOTH",
"578 550 OFFCURVE",
"724 535 OFFCURVE",
"827 517 CURVE",
"880 740 LINE",
"774 771 OFFCURVE",
"600 785 OFFCURVE",
"470 785 CURVE SMOOTH",
"198 785 OFFCURVE",
"88 656 OFFCURVE",
"89 431 CURVE SMOOTH",
"90 203 LINE",
"33 203 LINE",
"33 0 LINE"
);
},
{
closed = 1;
nodes = (
"942 -10 OFFCURVE",
"1006 74 OFFCURVE",
"1006 188 CURVE SMOOTH",
"1006 403 OFFCURVE",
"772 396 OFFCURVE",
"772 479 CURVE SMOOTH",
"772 503 OFFCURVE",
"793 517 OFFCURVE",
"827 517 CURVE",
"703 577 LINE",
"703 527 LINE",
"588 527 OFFCURVE",
"524 497 OFFCURVE",
"524 417 CURVE SMOOTH",
"524 271 OFFCURVE",
"738 266 OFFCURVE",
"738 188 CURVE SMOOTH",
"738 166 OFFCURVE",
"721 151 OFFCURVE",
"699 151 CURVE SMOOTH",
"666 151 OFFCURVE",
"653 183 OFFCURVE",
"650 228 CURVE",
"635 123 LINE",
"658 123 LINE",
"675 32 OFFCURVE",
"710 -10 OFFCURVE",
"806 -10 CURVE SMOOTH"
);
},
{
closed = 1;
nodes = (
"650 0 LINE",
"650 228 LINE",
"392 228 LINE",
"392 0 LINE"
);
}
);
width = 1008;
},
{
anchors = (
{
name = bottom;
position = "{445, 0}";
},
{
name = top;
position = "{445, 772}";
}
);
layerId = "BE4E587A-F76C-447B-AA28-A45E40876AAF";
paths = (
{
closed = 1;
nodes = (
"393 0 LINE",
"393 203 LINE",
"336 203 LINE",
"336 569 LINE",
"808 569 LINE",
"808 772 LINE",
"21 772 LINE",
"21 569 LINE",
"78 569 LINE",
"78 203 LINE",
"21 203 LINE",
"21 0 LINE"
);
},
{
closed = 1;
nodes = (
"758 -10 OFFCURVE",
"867 73 OFFCURVE",
"867 223 CURVE SMOOTH",
"867 402 OFFCURVE",
"717 474 OFFCURVE",
"561 474 CURVE SMOOTH",
"485 474 LINE",
"425 263 LINE",
"552 263 LINE SMOOTH",
"587 263 OFFCURVE",
"605 245 OFFCURVE",
"605 222 CURVE SMOOTH",
"605 202 OFFCURVE",
"592 182 OFFCURVE",
"550 182 CURVE SMOOTH",
"532 182 OFFCURVE",
"512 186 OFFCURVE",
"493 194 CURVE",
"425 18 LINE",
"461 -1 OFFCURVE",
"501 -10 OFFCURVE",
"570 -10 CURVE SMOOTH"
);
},
{
closed = 1;
nodes = (
"705 423 LINE",
"705 455 LINE",
"808 569 LINE",
"808 729 LINE",
"509 590 LINE",
"509 561 LINE",
"425 464 LINE",
"425 263 LINE"
);
}
);
width = 874;
},
{
anchors = (
{
name = bottom;
position = "{455, 0}";
},
{
name = top;
position = "{455, 772}";
}
);
associatedMasterId = "BE4E587A-F76C-447B-AA28-A45E40876AAF";
layerId = "86D9BB7B-DD62-4807-B8F5-5731CDCBAAC4";
leftMetricsKey = "=n+12";
name = "Jun 10 18, 20:48";
paths = (
{
closed = 1;
nodes = (
"451 277 LINE",
"725 389 LINE",
"725 421 LINE",
"811 522 LINE",
"811 639 LINE",
"533 578 LINE",
"533 549 LINE",
"451 462 LINE"
);
},
{
closed = 1;
nodes = (
"404 203 LINE",
"354 203 LINE",
"354 496 LINE SMOOTH",
"354 543 OFFCURVE",
"384 565 OFFCURVE",
"435 565 CURVE SMOOTH",
"494 565 OFFCURVE",
"535 544 OFFCURVE",
"550 513 CURVE",
"811 639 LINE",
"724 748 OFFCURVE",
"597 800 OFFCURVE",
"437 800 CURVE SMOOTH",
"206 800 OFFCURVE",
"94 678 OFFCURVE",
"95 496 CURVE SMOOTH",
"96 203 LINE",
"33 203 LINE",
"33 0 LINE",
"404 0 LINE"
);
},
{
closed = 1;
nodes = (
"451 277 LINE",
"577 272 OFFCURVE",
"626 254 OFFCURVE",
"626 215 CURVE SMOOTH",
"626 192 OFFCURVE",
"607 180 OFFCURVE",
"578 180 CURVE SMOOTH",
"558 180 OFFCURVE",
"542 185 OFFCURVE",
"528 194 CURVE",
"434 16 LINE",
"472 -3 OFFCURVE",
"511 -12 OFFCURVE",
"584 -12 CURVE SMOOTH",
"794 -12 OFFCURVE",
"888 74 OFFCURVE",
"888 220 CURVE SMOOTH",
"888 344 OFFCURVE",
"812 411 OFFCURVE",
"606 440 CURVE"
);
}
);
width = 890;
},
{
anchors = (
{
name = bottom;
position = "{423, 0}";
},
{
name = top;
position = "{423, 732}";
}
);
associatedMasterId = "2C5E45D0-97E8-45AA-A5B2-946753DF54E1";
layerId = "25941123-A98D-4E34-87C6-BD73FA2E6359";
leftMetricsKey = "=H";
rightMetricsKey = "=S-16";
name = "Jun 10 18, 20:50";
paths = (
{
closed = 1;
nodes = (
"440 367 LINE",
"561 417 LINE",
"561 449 LINE",
"725 576 LINE",
"725 669 LINE",
"635 664 LINE",
"635 635 LINE",
"440 471 LINE"
);
},
{
closed = 1;
nodes = (
"296 94 LINE",
"233 94 LINE",
"233 557 LINE SMOOTH",
"233 654 OFFCURVE",
"307 700 OFFCURVE",
"424 700 CURVE SMOOTH",
"554 700 OFFCURVE",
"636 642 OFFCURVE",
"665 585 CURVE",
"725 669 LINE",
"654 759 OFFCURVE",
"550 800 OFFCURVE",
"419 800 CURVE SMOOTH",
"225 800 OFFCURVE",
"132 702 OFFCURVE",
"132 557 CURVE",
"131 93 LINE",
"26 93 LINE",
"26 0 LINE",
"296 0 LINE"
);
},
{
closed = 1;
nodes = (
"440 367 LINE",
"622 354 OFFCURVE",
"692 306 OFFCURVE",
"692 212 CURVE SMOOTH",
"692 130 OFFCURVE",
"637 83 OFFCURVE",
"549 83 CURVE SMOOTH",
"474 83 OFFCURVE",
"425 117 OFFCURVE",
"416 165 CURVE",
"319 143 LINE",
"338 46 OFFCURVE",
"407 -12 OFFCURVE",
"548 -12 CURVE SMOOTH",
"718 -12 OFFCURVE",
"796 74 OFFCURVE",
"796 211 CURVE SMOOTH",
"796 354 OFFCURVE",
"713 428 OFFCURVE",
"486 460 CURVE"
);
}
);
width = 826;
},
{
anchors = (
{
name = bottom;
position = "{439, 0}";
},
{
name = top;
position = "{439, 732}";
}
);
associatedMasterId = "67AEAADB-8447-4819-9D92-8BB76BD22042";
layerId = "CA4E73A8-506C-4719-95AC-BF889DB01003";
rightMetricsKey = "=S+41";
name = "Jun 11 18, 10:18";
paths = (
{
closed = 1;
nodes = (
"450 417 LINE",
"456 417 LINE",
"456 422 LINE",
"701 667 LINE",
"701 669 LINE",
"695 671 LINE",
"695 668 LINE",
"450 423 LINE"
);
},
{
closed = 1;
nodes = (
"302 5 LINE",
"196 5 LINE",
"196 557 LINE SMOOTH",
"196 697 OFFCURVE",
"267 792 OFFCURVE",
"428 792 CURVE SMOOTH",
"532 792 OFFCURVE",
"630 753 OFFCURVE",
"697 666 CURVE",
"701 669 LINE",
"634 756 OFFCURVE",
"535 797 OFFCURVE",
"428 797 CURVE SMOOTH",
"264 797 OFFCURVE",
"191 700 OFFCURVE",
"191 557 CURVE SMOOTH",
"191 5 LINE",
"62 5 LINE",
"62 0 LINE",
"302 0 LINE"
);
},
{
closed = 1;
nodes = (
"450 417 LINE",
"677 400 OFFCURVE",
"765 331 OFFCURVE",
"765 199 CURVE SMOOTH",
"765 80 OFFCURVE",
"694 -2 OFFCURVE",
"538 -2 CURVE SMOOTH",
"412 -2 OFFCURVE",
"347 50 OFFCURVE",
"329 144 CURVE",
"324 143 LINE",
"342 49 OFFCURVE",
"409 -7 OFFCURVE",
"538 -7 CURVE SMOOTH",
"697 -7 OFFCURVE",
"770 78 OFFCURVE",
"770 199 CURVE SMOOTH",
"770 334 OFFCURVE",
"678 405 OFFCURVE",
"451 422 CURVE"
);
}
);
width = 827;
},
{
anchors = (
{
name = bottom;
position = "{439, 0}";
},
{
name = top;
position = "{439, 772}";
}
);
associatedMasterId = "BE4E587A-F76C-447B-AA28-A45E40876AAF";
layerId = "72A3E15A-42F6-4541-972D-AB2C241D5601";
rightMetricsKey = "=S-7";
name = "Jun 14 18, 18:25";
paths = (
{
closed = 1;
nodes = (
"435 277 LINE",
"709 389 LINE",
"709 421 LINE",
"795 522 LINE",
"795 729 LINE",
"517 578 LINE",
"517 549 LINE",
"435 462 LINE"
);
},
{
closed = 1;
nodes = (
"387 203 LINE",
"330 203 LINE",
"330 481 LINE SMOOTH",
"330 543 OFFCURVE",
"361 565 OFFCURVE",
"458 565 CURVE SMOOTH",
"530 565 OFFCURVE",
"619 553 OFFCURVE",
"719 519 CURVE",
"795 729 LINE",
"685 777 OFFCURVE",
"556 800 OFFCURVE",
"437 800 CURVE SMOOTH",
"183 800 OFFCURVE",
"70 678 OFFCURVE",
"71 481 CURVE SMOOTH",
"72 203 LINE",
"15 203 LINE",
"15 0 LINE",
"387 0 LINE"
);
},
{
closed = 1;
nodes = (
"435 277 LINE",
"561 274 OFFCURVE",
"610 256 OFFCURVE",
"610 217 CURVE SMOOTH",
"610 192 OFFCURVE",
"590 180 OFFCURVE",
"562 180 CURVE SMOOTH",
"544 180 OFFCURVE",
"528 185 OFFCURVE",
"512 194 CURVE",
"422 16 LINE",
"459 -3 OFFCURVE",
"502 -12 OFFCURVE",
"569 -12 CURVE SMOOTH",
"778 -12 OFFCURVE",
"872 74 OFFCURVE",
"872 216 CURVE SMOOTH",
"872 344 OFFCURVE",
"796 411 OFFCURVE",
"590 440 CURVE"
);
}
);
width = 881;
},
{
anchors = (
{
name = bottom;
position = "{456, 0}";
},
{
name = top;
position = "{456, 772}";
}
);
associatedMasterId = "BE4E587A-F76C-447B-AA28-A45E40876AAF";
layerId = "978908E6-F923-4EFA-A0A6-280AD933EC35";
leftMetricsKey = "=n+12";
name = "Jun 14 18, 18:35";
paths = (
{
closed = 1;
nodes = (
"348 569 LINE",
"813 569 LINE",
"813 772 LINE",
"33 772 LINE",
"33 569 LINE",
"90 569 LINE",
"90 203 LINE",
"33 203 LINE",
"33 0 LINE",
"405 0 LINE",
"405 203 LINE",
"348 203 LINE"
);
},
{
closed = 1;
nodes = (
"738 537 OFFCURVE",
"767 569 OFFCURVE",
"813 569 CURVE",
"689 629 LINE",
"689 579 LINE",
"561 579 OFFCURVE",
"490 535 OFFCURVE",
"490 438 CURVE SMOOTH",
"490 301 OFFCURVE",
"638 298 OFFCURVE",
"638 234 CURVE SMOOTH",
"638 210 OFFCURVE",
"618 198 OFFCURVE",
"590 198 CURVE SMOOTH",
"572 198 OFFCURVE",
"556 203 OFFCURVE",
"540 212 CURVE",
"480 16 LINE",
"509 -3 OFFCURVE",
"544 -12 OFFCURVE",
"597 -12 CURVE SMOOTH",
"806 -12 OFFCURVE",
"900 81 OFFCURVE",
"900 224 CURVE SMOOTH",
"900 416 OFFCURVE",
"738 410 OFFCURVE",
"738 498 CURVE SMOOTH"
);
}
);
width = 902;
},
{
anchors = (
{
name = bottom;
position = "{439, 0}";
},
{
name = top;
position = "{439, 772}";
}
);
associatedMasterId = "BE4E587A-F76C-447B-AA28-A45E40876AAF";
layerId = "8D85FC48-847F-4CE8-811B-F2DD12B9D3BB";
rightMetricsKey = "=S-7";
name = "Jun 14 18, 18:44";
paths = (
{
closed = 1;
nodes = (
"435 277 LINE",
"703 391 LINE",
"703 423 LINE",
"795 569 LINE",
"795 729 LINE",
"500 590 LINE",
"500 561 LINE",
"435 464 LINE"
);
},
{
closed = 1;
nodes = (
"435 277 LINE",
"561 274 OFFCURVE",
"610 256 OFFCURVE",
"610 217 CURVE SMOOTH",
"610 192 OFFCURVE",
"590 180 OFFCURVE",
"562 180 CURVE SMOOTH",
"544 180 OFFCURVE",
"528 185 OFFCURVE",
"512 194 CURVE",
"422 16 LINE",
"459 -3 OFFCURVE",
"502 -12 OFFCURVE",
"569 -12 CURVE SMOOTH",
"778 -12 OFFCURVE",
"872 74 OFFCURVE",
"872 216 CURVE SMOOTH",
"872 344 OFFCURVE",
"796 411 OFFCURVE",
"590 440 CURVE"
);
},
{
closed = 1;
nodes = (
"330 569 LINE",
"795 569 LINE",
"795 772 LINE",
"15 772 LINE",
"15 569 LINE",
"72 569 LINE",
"72 203 LINE",
"15 203 LINE",
"15 0 LINE",
"387 0 LINE",
"387 203 LINE",
"330 203 LINE"
);
}
);
width = 881;
},
{
anchors = (
{
name = bottom;
position = "{408, 0}";
},
{
name = top;
position = "{408, 732}";
}
);
associatedMasterId = "2C5E45D0-97E8-45AA-A5B2-946753DF54E1";
layerId = "6979CB2E-6BA5-445D-83C5-231F14143F5E";
rightMetricsKey = "=S-12";
name = "Jun 19 18, 16:21";
paths = (
{
closed = 1;
nodes = (
"437 359 LINE",
"558 409 LINE",
"558 441 LINE",
"712 621 LINE",
"712 714 LINE",
"586 661 LINE",
"586 632 LINE",
"437 463 LINE"
);
},
{
closed = 1;
nodes = (
"318 94 LINE",
"216 94 LINE",
"216 488 LINE SMOOTH",
"216 606 OFFCURVE",
"291 662 OFFCURVE",
"441 662 CURVE SMOOTH",
"502 662 OFFCURVE",
"591 653 OFFCURVE",
"695 619 CURVE",
"712 714 LINE",
"602 750 OFFCURVE",
"503 762 OFFCURVE",
"436 762 CURVE SMOOTH",
"209 762 OFFCURVE",
"115 652 OFFCURVE",
"115 488 CURVE SMOOTH",
"114 93 LINE",
"12 93 LINE",
"12 0 LINE",
"318 0 LINE"
);
},
{
closed = 1;
nodes = (
"437 359 LINE",
"610 347 OFFCURVE",
"677 301 OFFCURVE",
"677 212 CURVE SMOOTH",
"677 130 OFFCURVE",
"622 83 OFFCURVE",
"534 83 CURVE SMOOTH",
"493 83 OFFCURVE",
"460 93 OFFCURVE",
"436 110 CURVE",
"383 26 LINE",
"419 1 OFFCURVE",
"468 -12 OFFCURVE",
"533 -12 CURVE SMOOTH",
"703 -12 OFFCURVE",
"781 74 OFFCURVE",
"781 211 CURVE SMOOTH",
"781 349 OFFCURVE",
"701 421 OFFCURVE",
"483 452 CURVE"
);
}
);
width = 799;
},
{
anchors = (
{
name = bottom;
position = "{424, 0}";
},
{
name = top;
position = "{424, 732}";
}
);
associatedMasterId = "67AEAADB-8447-4819-9D92-8BB76BD22042";
layerId = "524FC7C3-7809-4A0E-9271-AEA2F9F18816";
rightMetricsKey = "=S-10";
name = "Jun 20 18, 09:55";
paths = (
{
closed = 1;
nodes = (
"515 417 LINE",
"520 417 LINE",
"520 422 LINE",
"727 701 LINE",
"727 708 LINE",
"722 706 LINE",
"722 703 LINE",
"515 424 LINE"
);
},
{
closed = 1;
nodes = (
"330 5 LINE",
"181 5 LINE",
"181 505 LINE SMOOTH",
"181 655 OFFCURVE",
"256 754 OFFCURVE",
"455 754 CURVE SMOOTH",
"537 754 OFFCURVE",
"641 739 OFFCURVE",
"723 704 CURVE",
"727 708 LINE",
"645 743 OFFCURVE",
"540 759 OFFCURVE",
"455 759 CURVE SMOOTH",
"253 759 OFFCURVE",
"176 658 OFFCURVE",
"176 505 CURVE SMOOTH",
"176 5 LINE",
"27 5 LINE",
"27 0 LINE",
"330 0 LINE"
);
},
{
closed = 1;
nodes = (
"515 417 LINE",
"686 400 OFFCURVE",
"773 331 OFFCURVE",
"773 199 CURVE SMOOTH",
"773 80 OFFCURVE",
"702 -2 OFFCURVE",
"546 -2 CURVE SMOOTH",
"496 -2 OFFCURVE",
"455 6 OFFCURVE",
"423 22 CURVE",
"421 18 LINE",
"454 2 OFFCURVE",
"495 -7 OFFCURVE",
"546 -7 CURVE SMOOTH",
"705 -7 OFFCURVE",
"778 78 OFFCURVE",
"778 199 CURVE SMOOTH",
"778 334 OFFCURVE",
"688 405 OFFCURVE",
"516 422 CURVE"
);
}
);
width = 824;
}
);
leftKerningGroup = H;
leftMetricsKey = "=H";
rightKerningGroup = B;
rightMetricsKey = "=B";
unicode = 1E9E;
},
